<svg width="57" height="57" viewBox="0 0 57 57" fill="none" xmlns="http://www.w3.org/2000/svg">
<path d="M28.1406 55.6337C43.0523 55.6337 55.1406 43.5454 55.1406 28.6337C55.1406 13.722 43.0523 1.63367 28.1406 1.63367C13.2289 1.63367 1.14062 13.722 1.14062 28.6337C1.14062 43.5454 13.2289 55.6337 28.1406 55.6337Z" stroke="white" stroke-width="2" stroke-miterlimit="10"/>
<path d="M22.5881 55.0164C14.4109 36.425 41.7195 21.228 33.311 2.09656" stroke="white" stroke-width="2" stroke-miterlimit="10"/>
<path d="M28.5259 35.4993C32.7011 35.4993 36.0858 32.1146 36.0858 27.9393C36.0858 23.764 32.7011 20.3793 28.5259 20.3793C24.3506 20.3793 20.9658 23.764 20.9658 27.9393C20.9658 32.1146 24.3506 35.4993 28.5259 35.4993Z" stroke="white" stroke-width="2" stroke-miterlimit="10"/>
<path d="M23.8981 15.4423C26.2414 15.4423 28.141 13.5427 28.141 11.1994C28.141 8.85613 26.2414 6.95654 23.8981 6.95654C21.5549 6.95654 19.6553 8.85613 19.6553 11.1994C19.6553 13.5427 21.5549 15.4423 23.8981 15.4423Z" stroke="white" stroke-width="2" stroke-miterlimit="10"/>
<path d="M30.2998 55.6335C30.0683 54.6307 29.9141 53.6278 29.9141 52.5478C29.9141 45.7592 35.4683 40.205 42.2569 40.205C45.4969 40.205 48.5055 41.4391 50.7426 43.5219" stroke="white" stroke-width="2" stroke-miterlimit="10"/>
</svg>
