<svg width="10" height="19" viewBox="0 0 10 19" fill="none" xmlns="https://www.w3.org/2000/svg">
<path fill-rule="evenodd" clip-rule="evenodd" d="M5 18.3835C7.76142 18.3835 10 16.1449 10 13.3835V3.47858C9.86009 1.5186 8.22923 0 6.26426 0C4.29929 0 2.66843 1.5186 2.52852 3.47858V11.7295C2.52852 13.0945 3.63504 14.201 5 14.201C6.36496 14.201 7.47148 13.0945 7.47148 11.7295V6.78656H5.95057V11.7295C5.95057 12.2545 5.52499 12.6801 5 12.6801C4.47501 12.6801 4.04943 12.2545 4.04943 11.7295V3.47858C4.15553 2.33461 5.11538 1.45966 6.26426 1.45966C7.41314 1.45966 8.37299 2.33461 8.47909 3.47858V13.3835C8.47909 15.305 6.92145 16.8626 5 16.8626C3.07855 16.8626 1.52091 15.305 1.52091 13.3835V6.78656H0V13.3835C0 16.1449 2.23858 18.3835 5 18.3835Z" fill="white"/>
</svg>
