<svg width="28" height="19" viewBox="0 0 28 19" xmlns="https://www.w3.org/2000/svg">
  <mask id="mask-behance" mask-type="alpha" maskUnits="userSpaceOnUse" x="0" y="0" width="28" height="19">
    <path fill-rule="evenodd" clip-rule="evenodd" d="M0.799805 0.400024H8.6826C10.6758 0.430024 12.0834 1.04082 12.9126 2.23122C13.4094 2.96082 13.6614 3.83202 13.6614 4.85322C13.6614 5.90082 13.4094 6.74202 12.9054 7.38162C12.6258 7.73922 12.2106 8.06562 11.6622 8.35842C12.495 8.67642 13.1214 9.18283 13.5474 9.87402C13.9686 10.5664 14.1822 11.4052 14.1822 12.3916C14.1822 13.4092 13.941 14.3236 13.455 15.1312C13.1442 15.6664 12.7614 16.1164 12.2982 16.4824C11.7762 16.9024 11.1642 17.188 10.455 17.344C9.7482 17.5 8.97781 17.5756 8.1522 17.5756H0.799805V0.400024ZM4.0543 3.38304V7.17024H8.0179C8.7283 7.17024 9.3031 7.02864 9.7447 6.74424C10.1875 6.45984 10.4071 5.95824 10.4071 5.23824C10.4071 4.43664 10.1167 3.90744 9.5311 3.65184C9.0271 3.47064 8.3863 3.38304 7.6027 3.38304H4.0543ZM4.0543 10.0135V14.5951H8.01423C8.72221 14.5951 9.273 14.4943 9.6666 14.2915C10.383 13.9195 10.7406 13.2007 10.7406 12.1483C10.7406 11.2531 10.3926 10.6423 9.7014 10.3063C9.3114 10.1191 8.76901 10.0219 8.06942 10.0135H4.0543ZM17.6686 3.33762H24.6586V1.20042H17.6686V3.33762ZM16.893 6.29709C18.0018 5.12589 19.4394 4.53909 21.2082 4.53909C22.257 4.53909 23.2038 4.73709 24.045 5.13309C24.8862 5.52909 25.581 6.15669 26.1282 7.01109C26.625 7.76709 26.9454 8.64309 27.0918 9.63669C27.1782 10.2223 27.2106 11.0623 27.1938 12.1591H18.4086C18.4554 13.4335 18.8754 14.3263 19.6674 14.8411C20.1522 15.1567 20.733 15.3187 21.4086 15.3187C22.1298 15.3187 22.7106 15.1255 23.1606 14.7355C23.4054 14.5243 23.6214 14.2339 23.8086 13.8595H27.0318C26.9454 14.6143 26.5542 15.3811 25.8618 16.1563C24.7806 17.3911 23.2686 18.0091 21.3222 18.0091C19.7154 18.0091 18.3006 17.4883 17.0718 16.4467C15.8454 15.4063 15.2322 13.7083 15.2322 11.3635C15.2322 9.16149 15.7854 7.47429 16.893 6.29709ZM19.3259 8.00081C18.8831 8.48801 18.6011 9.14201 18.4871 9.96761H23.9207C23.8619 9.08561 23.5847 8.41841 23.0807 7.96001C22.5779 7.50401 21.9539 7.27601 21.2087 7.27601C20.3999 7.27601 19.7711 7.51721 19.3259 8.00081Z" />
  </mask>
  <g mask="url(#mask-behance)">
    <path fill-rule="evenodd" clip-rule="evenodd" d="M-5.19922 24.0076H33.1984V-5.59875H-5.19922V24.0076Z" />
  </g>
</svg>
