<svg width="52" height="39" viewBox="0 0 52 39" fill="none" xmlns="http://www.w3.org/2000/svg">
<path fill-rule="evenodd" clip-rule="evenodd" d="M49.0922 22.9316C48.4627 22.0407 47.3296 21.2771 45.9446 21.2771C43.4265 21.2771 41.6639 23.1861 41.6639 25.8587C41.6639 28.5312 43.4265 30.4402 45.9446 30.4402C47.0778 30.4402 48.2109 29.9312 48.7145 29.4221V29.2948V27.8949C48.7145 27.7677 48.5886 27.7677 48.5886 27.7677H45.441C45.3151 27.7677 45.1892 27.6404 45.1892 27.5131V25.3496C45.1892 25.2223 45.3151 25.0951 45.441 25.0951H51.1067V21.9134L49.2181 22.9316C49.344 23.0588 49.2181 23.0588 49.0922 22.9316ZM22.2746 24.4588H25.674C26.6813 24.4588 27.3108 23.9497 27.3108 23.0588C27.3108 22.168 26.6813 21.6589 25.674 21.6589H22.2746C22.1487 21.6589 22.0228 21.7862 22.0228 21.9134V24.3315C22.0228 24.3315 22.1487 24.4588 22.2746 24.4588ZM36.1241 32.6037C36.1241 32.731 35.9982 32.8583 35.9982 32.8583H33.4801C33.3542 32.8583 33.2283 32.731 33.3542 32.6037V19.1136C33.3542 18.9863 33.4801 18.8591 33.4801 18.8591H35.9982C36.1241 18.8591 36.1241 18.9863 36.1241 19.1136V32.6037ZM25.674 18.9863H26.3035C28.9475 18.9863 30.2066 20.6408 30.2066 22.5498C30.2066 23.9497 29.4512 25.0951 28.4439 25.4769C28.318 25.4769 28.318 25.6041 28.318 25.7314C28.318 25.7314 28.318 25.8587 28.4439 25.8587C29.5771 26.3677 30.4584 27.6404 30.4584 29.0403C30.4584 31.0766 29.0734 32.8583 26.5554 32.8583H19.3788C19.2529 32.8583 19.127 32.731 19.127 32.6037V23.8224L0.619068 37.5671C0.36726 37.8216 0.493164 38.458 0.996781 38.458H50.8549C51.1067 38.458 51.3585 38.2034 51.3585 37.9489V30.9493C49.9736 32.2219 48.2109 32.9855 46.0705 32.9855C42.0416 32.9855 38.7681 30.1857 38.7681 25.8587C38.7681 21.5317 42.0416 18.7318 46.0705 18.7318C48.5886 18.7318 50.2254 19.8772 51.3585 21.2771V0.787382C51.2326 0.532851 51.1067 0.27832 50.8549 0.27832C50.729 0.27832 50.6031 0.27832 50.6031 0.405586C50.4772 0.405586 25.674 18.9863 25.674 18.9863ZM22.2746 30.1857H25.7999C26.9331 30.1857 27.5626 29.5494 27.5626 28.6585C27.5626 27.7677 26.9331 27.1313 25.7999 27.1313H22.2746C22.1487 27.1313 22.0228 27.2586 22.0228 27.3859V30.0584C22.0228 30.1857 22.1487 30.1857 22.2746 30.1857Z" fill="white"/>
</svg>
