<svg width="57" height="56" viewBox="0 0 57 56" fill="none" xmlns="http://www.w3.org/2000/svg">
<path d="M28.7061 55C43.6177 55 55.7061 42.9117 55.7061 28C55.7061 13.0883 43.6177 1 28.7061 1C13.7944 1 1.70605 13.0883 1.70605 28C1.70605 42.9117 13.7944 55 28.7061 55Z" stroke="white" stroke-width="2" stroke-miterlimit="10"/>
<path d="M28.707 19.2831V8.71448" stroke="white" stroke-width="2" stroke-miterlimit="10"/>
<path d="M28.707 36.3315V46.9001" stroke="white" stroke-width="2" stroke-miterlimit="10"/>
<path d="M19.9894 27.7684H9.65234" stroke="white" stroke-width="2" stroke-miterlimit="10"/>
<path d="M37.0381 27.7684H47.7609" stroke="white" stroke-width="2" stroke-miterlimit="10"/>
<path d="M34.6465 21.8284L42.2065 14.3456" stroke="white" stroke-width="2" stroke-miterlimit="10"/>
<path d="M22.6137 33.8628L15.208 41.2685" stroke="white" stroke-width="2" stroke-miterlimit="10"/>
<path d="M22.6137 21.6742L15.208 14.3456" stroke="white" stroke-width="2" stroke-miterlimit="10"/>
<path d="M34.6465 33.7086L42.2065 41.2687" stroke="white" stroke-width="2" stroke-miterlimit="10"/>
<path d="M32.4106 28.0001C30.6363 28.5401 29.3249 29.9287 28.7849 31.6259C28.7077 31.9344 28.322 31.9344 28.2449 31.6259C27.7049 29.8516 26.3163 28.5401 24.6191 28.0001C24.3106 27.923 24.3106 27.5373 24.6191 27.4601C26.3934 26.9201 27.7049 25.5316 28.2449 23.8345C28.322 23.5259 28.7077 23.5259 28.7849 23.8345C29.3249 25.6087 30.7135 26.9201 32.4106 27.4601C32.7192 27.4601 32.7192 27.923 32.4106 28.0001Z" fill="white"/>
</svg>
