<svg width="34" height="37" viewBox="0 0 34 37" fill="none" xmlns="http://www.w3.org/2000/svg">
<path d="M12.7933 24.1034C11.3222 22.6181 10.4115 20.6022 10.4115 18.3605C10.4115 16.1187 11.3223 14.1027 12.7934 12.6174C14.5838 10.8251 14.5893 7.92642 12.7896 6.14405C10.9945 4.35106 8.09756 4.35172 6.30325 6.14603C3.17938 9.2699 1.23828 13.5833 1.23828 18.3605C1.23828 23.1377 3.17938 27.4511 6.30325 30.5749C8.09758 32.3693 10.9946 32.3699 12.7897 30.5768C14.5894 28.7944 14.5838 25.8958 12.7933 24.1034Z" stroke="white" stroke-width="2"/>
<path d="M6.30515 12.6363C8.09686 14.4259 11.009 14.4321 12.7916 12.6344C14.2761 11.165 16.3062 10.2543 18.5328 10.2543C20.7778 10.2543 22.807 11.1674 24.274 12.6344C26.069 14.4293 28.9674 14.4293 30.7624 12.6344C32.5545 10.8423 32.5607 7.94248 30.7607 6.15948C27.6362 3.03587 23.3082 1.09619 18.5328 1.09619C13.7566 1.09619 9.42785 3.03656 6.30325 6.16116C4.51106 7.95336 4.50489 10.8533 6.30515 12.6363Z" stroke="white" stroke-width="2"/>
<path d="M24.2925 24.0979L24.2919 24.0985C22.8071 25.5698 20.7757 26.4818 18.5475 26.4818C16.3025 26.4818 14.2732 25.5687 12.8062 24.1017C11.0113 22.3068 8.11287 22.3068 6.3179 24.1017C4.52573 25.8939 4.51954 28.7938 6.31972 30.5768C9.44418 33.7003 13.7722 35.6399 18.5475 35.6399C23.3237 35.6399 27.6524 33.6995 30.777 30.5749C32.5698 28.7821 32.5754 25.8807 30.7732 24.0979C28.9791 22.3231 26.0866 22.3231 24.2925 24.0979Z" stroke="white" stroke-width="2"/>
<path d="M6.30325 12.6344C8.09822 14.4293 10.9966 14.4293 12.7916 12.6344C14.5838 10.8422 14.5899 7.94229 12.7897 6.15931C10.9952 4.36684 8.09966 4.36682 6.30517 6.15925C4.50489 7.94224 4.51105 10.8422 6.30325 12.6344Z" stroke="white" stroke-width="2"/>
<path d="M6.30517 24.1151C4.50765 25.8953 4.50765 28.8118 6.30517 30.5921C8.10028 32.3852 10.9972 32.3845 12.7916 30.5902C14.5838 28.798 14.5899 25.8981 12.7897 24.1151C10.9952 22.3226 8.09964 22.3226 6.30517 24.1151Z" stroke="white" stroke-width="2"/>
</svg>
