<svg width="33" height="37" viewBox="0 0 33 37" fill="none" xmlns="http://www.w3.org/2000/svg">
<path d="M11.346 25.4878C9.52447 23.6496 8.38809 21.1429 8.38809 18.3521C8.38809 15.5613 9.52447 13.0546 11.346 11.2163C12.9002 9.66216 12.9002 7.15546 11.346 5.61801C9.79185 4.06385 7.28515 4.06385 5.73099 5.61801C2.47227 8.87673 0.450195 13.3721 0.450195 18.3521C0.450195 23.3321 2.47227 27.8274 5.73099 31.0861C7.28515 32.6403 9.79185 32.6403 11.346 31.0861C12.9002 29.5487 12.9002 27.042 11.346 25.4878Z" fill="#FFD75F"/>
<path d="M11.3451 11.233C13.1833 9.41144 15.7068 8.27507 18.4808 8.27507C21.2716 8.27507 23.7951 9.41144 25.6166 11.233C27.1708 12.7871 29.6775 12.7871 31.2316 11.233C32.7858 9.67883 32.7858 7.17212 31.2316 5.63468C27.9729 2.37596 23.4608 0.353882 18.4808 0.353882C13.5009 0.353882 8.98879 2.37596 5.73007 5.63468C4.17591 7.18883 4.17591 9.69554 5.73007 11.233C7.28423 12.7871 9.80764 12.7871 11.3451 11.233Z" fill="#4FB5E1"/>
<path d="M25.6332 25.4879C23.7949 27.3094 21.2715 28.4458 18.4974 28.4458C15.7066 28.4458 13.1832 27.3094 11.3617 25.4879C9.80753 23.9337 7.30083 23.9337 5.74667 25.4879C4.19252 27.042 4.19252 29.5488 5.74667 31.0862C9.00539 34.3449 13.5175 36.367 18.4974 36.367C23.4774 36.367 27.9895 34.3449 31.2482 31.0862C32.8024 29.532 32.8024 27.0253 31.2482 25.4879C29.6941 23.9504 27.1874 23.9504 25.6332 25.4879Z" fill="#F05751"/>
<path d="M11.3451 11.2329C9.79094 12.7871 7.28423 12.7871 5.73007 11.2329C4.17591 9.67876 4.17591 7.17206 5.73007 5.63461C7.28423 4.08045 9.79094 4.08045 11.3451 5.63461C12.8993 7.17206 12.8993 9.67876 11.3451 11.2329Z" fill="#0681B6"/>
<path d="M11.3451 31.1029C9.79094 32.6571 7.28423 32.6571 5.73007 31.1029C4.17591 29.5655 4.17591 27.0421 5.73007 25.5046C7.28423 23.9504 9.79094 23.9504 11.3451 25.5046C12.8993 27.0421 12.8993 29.5488 11.3451 31.1029Z" fill="#CD4739"/>
</svg>
