<svg width="119" height="147" viewBox="0 0 119 147" fill="none" xmlns="http://www.w3.org/2000/svg">
<path fill-rule="evenodd" clip-rule="evenodd" d="M59.2963 1.29444L79.8658 43.4682L79.8221 43.4571L79.6978 43.947L80.156 44.0633L98.4517 81.575L98.2755 81.9368L98.7299 82.1581L98.733 82.1517L118.591 122.867C119.142 123.996 118.673 125.358 117.544 125.909C117.424 125.967 117.299 126.015 117.17 126.052C105.725 129.309 93.0741 128.728 79.2218 124.314C63.1249 119.184 51.0965 110.341 42.2131 97.3486L42.5137 97.1846L42.2718 96.7409L41.9279 96.9284C40.0534 94.1469 38.3207 91.1775 36.7208 88.0161C35.8575 86.3101 35.0782 84.5143 34.3833 82.6456L34.6077 82.5166L34.3559 82.0784L34.2067 82.1642C28.6328 66.7577 28.7136 46.5666 34.5269 30.9625C38.2287 21.0259 45.272 10.9304 55.6536 0.673535C56.5472 -0.209266 57.9872 -0.200558 58.87 0.692988C59.0439 0.868956 59.1878 1.07211 59.2963 1.29444ZM24.4655 87.7824L24.4569 87.7673L34.2067 82.1642C34.2649 82.3252 34.3238 82.4857 34.3833 82.6456L24.867 88.1146L24.7444 87.9017C24.6865 87.8014 24.5712 87.7566 24.4655 87.7824ZM22.683 102.238C21.8532 101.557 21.1412 100.649 20.5489 99.5149C18.245 95.1032 19.5405 91.1779 24.3814 87.8203C24.4077 87.802 24.4363 87.7895 24.4655 87.7824L24.7087 88.2056L24.867 88.1146L26.4796 90.9116C26.3274 90.9882 26.1811 91.0718 26.0407 91.1619L24.4447 88.3937C19.987 91.5759 18.8549 95.1792 20.997 99.2809C23.1361 103.377 26.8881 104.326 32.3553 102.115L30.8316 99.4716C30.9832 99.3939 31.1289 99.3092 31.2686 99.2181L32.8138 101.898L32.5973 102.016L32.8393 102.46L32.8519 102.453C32.8406 102.46 32.8286 102.466 32.8159 102.472C28.5861 104.243 25.2547 104.215 22.8628 102.381V102.238H22.683ZM22.3574 113.128V102.238H22.683C22.7423 102.287 22.8022 102.335 22.8628 102.381V113.128H22.3574ZM26.0226 129.554V132.587C26.0226 133.843 25.0043 134.861 23.7482 134.861H18.6941C17.438 134.861 16.4197 133.843 16.4197 132.587V115.403C16.4197 114.147 17.438 113.128 18.6941 113.128H22.3574V113.357H22.8628V113.128H23.7482C25.0043 113.128 26.0226 114.147 26.0226 115.403V120.457V129.554ZM30.5713 129.554C30.5713 129.415 30.4582 129.302 30.3186 129.302H26.2753C26.1357 129.302 26.0226 129.415 26.0226 129.554C26.0226 129.694 26.1357 129.807 26.2753 129.807H30.3186C30.4582 129.807 30.5713 129.694 30.5713 129.554ZM30.5713 120.457V129.554V132.587C30.5713 133.843 31.5896 134.861 32.8457 134.861H37.8999C39.156 134.861 40.1742 133.843 40.1742 132.587V115.403C40.1742 114.147 39.156 113.128 37.8999 113.128H33.9819V101.837L42.2131 97.3486C42.1176 97.209 42.0226 97.069 41.9279 96.9284L32.8138 101.898L32.9372 102.112C33.0064 102.232 32.9655 102.383 32.8519 102.453L33.4765 102.112V113.128H32.8457C31.5896 113.128 30.5713 114.147 30.5713 115.403V120.457ZM30.5713 120.457C30.5713 120.317 30.4582 120.204 30.3186 120.204H26.2753C26.1357 120.204 26.0226 120.317 26.0226 120.457C26.0226 120.596 26.1357 120.71 26.2753 120.71H30.3186C30.4582 120.71 30.5713 120.596 30.5713 120.457ZM33.4765 102.112L33.9819 101.837V101.829H33.4765V102.112ZM33.4765 113.128H33.9819V113.357H33.4765V113.128ZM31.0157 98.7794L31.2686 99.2181C33.2674 97.9142 34.0286 95.2952 32.9554 93.0948C31.7929 90.7114 28.9184 89.7216 26.535 90.8841L26.518 90.8925L26.4796 90.9116L26.7325 91.3501C26.5796 91.4258 26.4331 91.5095 26.2935 91.6003L26.0407 91.1619C24.0199 92.4592 23.2458 95.0932 24.3243 97.3044C25.4868 99.6878 28.3613 100.678 30.7447 99.5151C30.7738 99.5009 30.8028 99.4864 30.8316 99.4716L30.5787 99.0331C30.731 98.9562 30.8767 98.8713 31.0157 98.7794ZM31.0157 98.7794L26.7325 91.3501L26.7566 91.3382C28.8891 90.2981 31.461 91.1837 32.5011 93.3162C33.4571 95.2763 32.7863 97.6075 31.0157 98.7794ZM30.5787 99.0331L30.5579 99.0436L30.5231 99.0607C28.3906 100.101 25.8187 99.2152 24.7786 97.0827C23.8174 95.1119 24.5009 92.7657 26.2935 91.6003L30.5787 99.0331ZM113.004 52.1165L113.061 51.8898L79.8658 43.4682L80.156 44.0633L112.135 52.1763L89.9345 63.0042L90.1561 63.4585L112.502 52.5597L112.34 52.2283L112.699 52.3193L98.4517 81.575L98.733 82.1517L113.291 52.2566L113.004 52.1165ZM112.699 52.3193L112.837 52.0354L113.004 52.1165L112.937 52.3797L112.699 52.3193ZM112.34 52.2283L112.135 52.1763L112.28 52.1055L112.34 52.2283ZM58.5104 1.0482C58.6456 1.18507 58.7576 1.34307 58.842 1.516L118.137 123.089C118.565 123.967 118.201 125.026 117.323 125.454C117.229 125.5 117.132 125.537 117.031 125.566C105.688 128.794 93.1373 128.218 79.3752 123.832C59.8138 117.598 46.3166 105.859 37.1717 87.7879C29.2287 72.0922 28.4645 48.6829 35.0005 31.1389C38.6742 21.2778 45.676 11.2417 56.0088 1.03307C56.7038 0.346451 57.8238 0.353224 58.5104 1.0482ZM18.6941 113.634C17.7171 113.634 16.9251 114.426 16.9251 115.403V132.587C16.9251 133.564 17.7171 134.356 18.6941 134.356H23.7482C24.7252 134.356 25.5172 133.564 25.5172 132.587V115.403C25.5172 114.426 24.7252 113.634 23.7482 113.634H18.6941ZM31.0768 115.403C31.0768 114.426 31.8687 113.634 32.8457 113.634H37.8999C38.8768 113.634 39.6688 114.426 39.6688 115.403V132.587C39.6688 133.564 38.8768 134.356 37.8999 134.356H32.8457C31.8687 134.356 31.0768 133.564 31.0768 132.587V115.403ZM0.766279 142.198C0.766279 140.105 2.46339 138.408 4.55689 138.408H53.0478C55.1413 138.408 56.8384 140.105 56.8384 142.198C56.8384 144.292 55.1413 145.989 53.0478 145.989H4.55689C2.46339 145.989 0.766279 144.292 0.766279 142.198ZM4.55689 137.902H53.0478C55.4205 137.902 57.3439 139.826 57.3439 142.198C57.3439 144.571 55.4205 146.494 53.0478 146.494H4.55689C2.18426 146.494 0.260864 144.571 0.260864 142.198C0.260864 139.826 2.18426 137.902 4.55689 137.902Z" fill="white" fill-opacity="0.6"/>
</svg>
