<svg width="51" height="6" viewBox="0 0 51 6" fill="none" xmlns="http://www.w3.org/2000/svg">
<g opacity="0.5">
<path d="M4.90789 3.32959C4.90789 4.7103 3.80923 5.82959 2.45395 5.82959C1.09867 5.82959 0 4.7103 0 3.32959C0 1.94888 1.09867 0.82959 2.45395 0.82959C3.80923 0.82959 4.90789 1.94888 4.90789 3.32959Z" fill="#554F71"/>
<path d="M27.4841 3.32959C27.4841 4.7103 26.3854 5.82959 25.0301 5.82959C23.6748 5.82959 22.5762 4.7103 22.5762 3.32959C22.5762 1.94888 23.6748 0.82959 25.0301 0.82959C26.3854 0.82959 27.4841 1.94888 27.4841 3.32959Z" fill="#554F71"/>
<path d="M50.0602 3.32959C50.0602 4.7103 48.9616 5.82959 47.6063 5.82959C46.251 5.82959 45.1523 4.7103 45.1523 3.32959C45.1523 1.94888 46.251 0.82959 47.6063 0.82959C48.9616 0.82959 50.0602 1.94888 50.0602 3.32959Z" fill="#554F71"/>
</g>
</svg>
