<svg width="24" height="24" viewBox="0 0 24 24" xmlns="https://www.w3.org/2000/svg">
  <path fill-rule="evenodd" clip-rule="evenodd" d="M0 12C0 5.382 5.3844 0 12 0C18.6156 0 24 5.382 24 12C24 18.6156 18.6156 23.9976 12 23.9976C5.3844 23.9976 0 18.6156 0 12ZM9.59883 2.051C9.87963 2.4314 11.7432 4.9646 13.422 8.0534C17.0676 6.6866 18.6108 4.6118 18.7944 4.349C16.9836 2.7434 14.604 1.7666 12 1.7666C11.1732 1.7666 10.3692 1.8674 9.59883 2.051ZM7.64179 2.74102C4.77379 4.09342 2.62939 6.73582 1.96699 9.91702H2.11819C3.01939 9.91702 6.98299 9.85222 11.4422 8.66662C9.74419 5.64862 7.91299 3.11182 7.64179 2.74102ZM14.8894 11.059C14.965 11.2354 15.0382 11.4094 15.1114 11.5858C18.523 11.1574 21.9118 11.845 22.2478 11.9182C22.2262 9.49898 21.361 7.27778 19.9342 5.53418C19.717 5.82698 18.0022 8.02658 14.2102 9.57458C14.449 10.063 14.677 10.5574 14.8894 11.059ZM12.288 10.2434C7.75195 11.5994 3.33595 11.7026 2.07715 11.7026C1.91515 11.7026 1.80595 11.7002 1.75435 11.7002C1.75195 11.8058 1.75195 11.909 1.75195 12.0122C1.75195 14.6474 2.74795 17.051 4.38595 18.8654C4.61635 18.4694 7.43155 13.8122 12.7164 12.1058C12.8496 12.0602 12.9852 12.0194 13.1184 11.9822C12.8628 11.399 12.5832 10.8182 12.288 10.2434ZM15.7359 13.2024C17.0775 16.8876 17.6235 19.8852 17.7291 20.5092C20.0271 18.9552 21.6627 16.4916 22.1211 13.6416C21.7683 13.53 18.9471 12.6888 15.7359 13.2024ZM5.70703 20.0976C7.44583 21.4512 9.63223 22.2612 11.9998 22.2612C13.4182 22.2612 14.7718 21.9708 16.0054 21.4476C15.8518 20.5476 15.2554 17.4144 13.8166 13.6764C13.795 13.6848 13.771 13.6908 13.7494 13.6992C7.96663 15.714 5.89183 19.7208 5.70703 20.0976Z" />
  <mask id="mask-dribbble" mask-type="alpha" maskUnits="userSpaceOnUse" x="0" y="0" width="24" height="24">
    <path fill-rule="evenodd" clip-rule="evenodd" d="M0 12C0 5.382 5.3844 0 12 0C18.6156 0 24 5.382 24 12C24 18.6156 18.6156 23.9976 12 23.9976C5.3844 23.9976 0 18.6156 0 12ZM9.59883 2.051C9.87963 2.4314 11.7432 4.9646 13.422 8.0534C17.0676 6.6866 18.6108 4.6118 18.7944 4.349C16.9836 2.7434 14.604 1.7666 12 1.7666C11.1732 1.7666 10.3692 1.8674 9.59883 2.051ZM7.64179 2.74102C4.77379 4.09342 2.62939 6.73582 1.96699 9.91702H2.11819C3.01939 9.91702 6.98299 9.85222 11.4422 8.66662C9.74419 5.64862 7.91299 3.11182 7.64179 2.74102ZM14.8894 11.059C14.965 11.2354 15.0382 11.4094 15.1114 11.5858C18.523 11.1574 21.9118 11.845 22.2478 11.9182C22.2262 9.49898 21.361 7.27778 19.9342 5.53418C19.717 5.82698 18.0022 8.02658 14.2102 9.57458C14.449 10.063 14.677 10.5574 14.8894 11.059ZM12.288 10.2434C7.75195 11.5994 3.33595 11.7026 2.07715 11.7026C1.91515 11.7026 1.80595 11.7002 1.75435 11.7002C1.75195 11.8058 1.75195 11.909 1.75195 12.0122C1.75195 14.6474 2.74795 17.051 4.38595 18.8654C4.61635 18.4694 7.43155 13.8122 12.7164 12.1058C12.8496 12.0602 12.9852 12.0194 13.1184 11.9822C12.8628 11.399 12.5832 10.8182 12.288 10.2434ZM15.7359 13.2024C17.0775 16.8876 17.6235 19.8852 17.7291 20.5092C20.0271 18.9552 21.6627 16.4916 22.1211 13.6416C21.7683 13.53 18.9471 12.6888 15.7359 13.2024ZM5.70703 20.0976C7.44583 21.4512 9.63223 22.2612 11.9998 22.2612C13.4182 22.2612 14.7718 21.9708 16.0054 21.4476C15.8518 20.5476 15.2554 17.4144 13.8166 13.6764C13.795 13.6848 13.771 13.6908 13.7494 13.6992C7.96663 15.714 5.89183 19.7208 5.70703 20.0976Z" />
  </mask>
  <g mask="url(#mask-dribbble)"></g>
</svg>
