<svg width="36" height="41" viewBox="0 0 36 41" fill="none" xmlns="http://www.w3.org/2000/svg">
<path d="M22.7216 40.0655H23.1969L30.9538 36.0955L31.0829 35.9087V4.21993L30.9538 4.0322L23.1969 0.0654907H22.7158L22.7216 40.0655Z" fill="#5294CF"/>
<path d="M12.6284 40.0655H12.1466L4.39625 36.0955L4.23897 35.8186L4.15918 4.38132L4.39625 4.0322L12.1466 0.0654907H12.6344L12.6284 40.0655Z" fill="#1F5B98"/>
<path d="M12.1592 0.0654907H23.1897V40.0655H12.1592V0.0654907Z" fill="#2D72B8"/>
<path d="M35.0144 19.1669L34.7523 19.1075L31.0096 18.7503L30.9541 18.7786L23.1902 18.4608H12.1592L4.39517 18.7786V12.7191L4.38704 12.7236L4.39517 12.7058L12.1592 10.8646H23.1902L30.9541 12.7058L33.8082 14.2585V13.2603L35.0144 13.1252L34.8895 12.8759L31.0704 10.0809L30.9541 10.1196L23.1902 7.65737H12.1592L4.39517 10.1196V4.03229L0.334961 8.90063V13.1524L0.366389 13.1291L1.54116 13.2603V14.2791L0.334961 14.9397V19.1703L0.366389 19.1669L1.54116 19.1847V20.9603L0.527594 20.9759L0.334961 20.957V25.1892L1.54116 25.8531V26.8837L0.38549 27.0143L0.334961 26.9754V31.2265L4.39517 36.0956V30.0088L12.1592 32.471H23.1902L30.977 30.0016L31.0805 30.048L34.8493 27.2942L35.0144 27.0198L33.8082 26.8837V25.8737L33.6501 25.8091L31.0704 27.2324L30.977 27.432L23.1902 29.2626V29.2648H12.1592V29.2626L4.39517 27.4242V21.3426L12.1592 21.6593V21.667H23.1902L30.9541 21.3426L31.1309 21.4258L34.7585 21.1061L35.0144 20.9781L33.8082 20.9603V19.1847L35.0144 19.1669Z" fill="#1A476F"/>
<path d="M30.9541 30.0088V36.0956L35.0145 31.2265V27.0032L30.9775 30.0016L30.9541 30.0088ZM30.9541 27.4376L30.9775 27.432L35.0145 25.2098V20.9603L30.9541 21.3426V27.4376ZM30.9775 12.7114L30.9541 12.7058V18.7786L35.0145 19.1669V14.9196L30.9775 12.7114ZM30.9775 10.1435L35.0145 13.1252V8.90174L30.9541 4.03229V10.1196L30.9775 10.1279V10.1435Z" fill="#2D72B8"/>
</svg>
