<svg width="38" height="43" viewBox="0 0 38 43" fill="none" xmlns="http://www.w3.org/2000/svg">
<path d="M5.61825 37.3706V37.4572L5.56055 37.3898C5.58138 37.4075 5.61344 37.3962 5.61825 37.3706Z" fill="white"/>
<path d="M35.7238 20.548L36.9579 20.5304L36.6902 20.4711L32.8596 20.1137L32.8019 20.1425L24.8555 19.8252H13.5657L5.61919 20.1425V20.1185C5.61598 20.1329 5.60316 20.1457 5.58713 20.1473L1.50331 20.5288C1.49369 20.5304 1.48408 20.5256 1.47767 20.5208C1.47606 20.524 1.47286 20.5272 1.46965 20.5288C1.46805 20.5304 1.46645 20.532 1.46484 20.5336L1.4969 20.5304L2.69897 20.548V22.3239L1.66198 22.3399L1.46484 22.3207V22.3624C1.46484 22.3415 1.48247 22.3271 1.50331 22.3287L5.58713 22.7037C5.60316 22.7053 5.61598 22.7166 5.61919 22.7326V22.7053L13.5657 23.0227V23.0307H24.8555L32.8019 22.707L32.9831 22.7903L36.6966 22.4713L36.9579 22.3431L35.7238 22.3255V20.548Z" fill="white"/>
<path d="M36.8297 14.2396L32.9205 11.4444L32.8019 11.4828L24.8555 9.021H13.5657L5.61919 11.4828V11.4668C5.61759 11.4796 5.60797 11.4892 5.59675 11.494V11.5101L1.52094 14.4495C1.5001 14.464 1.47286 14.4527 1.46645 14.4303C1.46645 14.4319 1.46484 14.4351 1.46484 14.4367V14.5152L1.4969 14.4928L2.69897 14.6242V15.626L5.59675 14.0777L5.61919 14.0729L5.62079 14.0713L13.5657 12.2281H24.8555L32.8019 14.0697L35.7238 15.6227V14.6242L36.9579 14.4896L36.8297 14.2396Z" fill="white"/>
<path d="M35.7231 28.2462V27.2365L35.5612 27.1724L32.9215 28.5956L32.8253 28.796L24.8564 30.6263V30.6279H13.565V30.6263L5.62014 28.7879V28.8024L5.6009 28.7976C5.5977 28.7976 5.59449 28.796 5.59129 28.7944L2.69831 27.2381V28.2462L1.51548 28.376L1.50586 28.368C1.50906 28.3792 1.51067 28.3905 1.51067 28.4017C1.51387 28.4033 1.51868 28.4049 1.52189 28.4065L5.59129 31.3604C5.59449 31.362 5.5977 31.3652 5.60251 31.3652L5.62014 31.37V31.3684L13.565 33.8334H24.8548L32.8237 31.3636L32.9295 31.4101L36.7873 28.6565L36.9556 28.3824L35.7231 28.2462Z" fill="white"/>
<path d="M32.8252 31.365L32.8125 31.3682L32.8252 31.365Z" fill="#5294CF"/>
<path d="M5.61919 22.7326V28.7878H5.62079V22.7406C5.62079 22.7374 5.62079 22.7342 5.61919 22.7326ZM1.46484 26.552C1.46484 26.5648 1.47286 26.5776 1.48408 26.584L2.69897 27.238V27.2155L1.46484 26.552ZM1.48408 16.2735C1.47286 16.2799 1.46645 16.2895 1.46484 16.3024L2.69897 15.642V15.6244L1.48408 16.2735ZM5.61919 14.0713L5.61118 14.0873L5.61919 14.0825V20.1185C5.61919 20.1153 5.62079 20.1137 5.62079 20.1105V14.0713H5.61919ZM5.61919 5.48535V11.4652C5.61919 11.4636 5.62079 11.4604 5.62079 11.4588V5.49337C5.62079 5.49176 5.62079 5.48856 5.61919 5.48535Z" fill="#2D72B8"/>
<path d="M32.8035 5.39559V11.4829H32.8019L24.8571 9.02103H24.8555V1.42877H24.8635L32.8019 5.39559H32.8035Z" stroke="white" stroke-width="1.7" stroke-miterlimit="10" stroke-linecap="square" stroke-linejoin="bevel"/>
<path d="M32.8026 14.0681V20.141H32.801L24.8561 19.8236H24.8545V12.2281H24.8561L32.801 14.0681H32.8026Z" stroke="white" stroke-width="1.7" stroke-miterlimit="10" stroke-linecap="square" stroke-linejoin="bevel"/>
<path d="M32.8026 22.7054V28.8007L24.8561 30.6262V30.6278H24.8545V23.0307H24.8561L32.801 22.7054H32.8026Z" stroke="white" stroke-width="1.7" stroke-miterlimit="10" stroke-linecap="square" stroke-linejoin="bevel"/>
<path d="M24.8561 33.8333L32.8026 31.3715V37.4587H32.801L24.8625 41.4288H24.8545V33.8333H24.8561Z" stroke="white" stroke-width="1.7" stroke-miterlimit="10" stroke-linecap="square" stroke-linejoin="bevel"/>
<path d="M13.5656 33.8333V41.4288H13.5512L5.61914 37.4587V31.3715L13.5656 33.8333Z" stroke="white" stroke-width="1.7" stroke-miterlimit="10" stroke-linecap="square" stroke-linejoin="bevel"/>
<path d="M13.5656 23.0227V30.6262L5.61914 28.7878V22.7054L13.5656 23.0227Z" stroke="white" stroke-width="1.7" stroke-miterlimit="10" stroke-linecap="square" stroke-linejoin="bevel"/>
<path d="M13.5666 1.42877V9.02103L5.62012 11.4829V5.39559L13.5522 1.42877H13.5666Z" stroke="white" stroke-width="1.7" stroke-miterlimit="10" stroke-linecap="square" stroke-linejoin="bevel"/>
<path d="M13.5658 12.2281V19.8236L5.61934 20.141V14.0825L5.61133 14.0873L5.61774 14.0713L5.61934 14.0681L13.5658 12.2281Z" stroke="white" stroke-width="1.7" stroke-miterlimit="10" stroke-linecap="square" stroke-linejoin="bevel"/>
<path d="M24.8562 33.8333H13.5664V41.4271H24.8562V33.8333Z" stroke="white" stroke-width="1.7" stroke-miterlimit="10" stroke-linecap="square" stroke-linejoin="bevel"/>
<path d="M24.8562 23.0308H13.5664V30.6278H24.8562V23.0308Z" stroke="white" stroke-width="1.7" stroke-miterlimit="10" stroke-linecap="square" stroke-linejoin="bevel"/>
<path d="M24.8562 12.2281H13.5664V19.8236H24.8562V12.2281Z" stroke="white" stroke-width="1.7" stroke-miterlimit="10" stroke-linecap="square" stroke-linejoin="bevel"/>
<path d="M24.8572 1.42877H13.5674V9.02103H24.8572V1.42877Z" stroke="white" stroke-width="1.7" stroke-miterlimit="10" stroke-linecap="square" stroke-linejoin="bevel"/>
<path d="M36.9571 10.2648V14.4881L32.8252 11.5069V11.4909L32.8027 11.4829V5.39563L36.9571 10.2648Z" stroke="white" stroke-width="1.7" stroke-miterlimit="10" stroke-linecap="square" stroke-linejoin="bevel"/>
<path d="M36.9571 16.2831V20.5304L32.8027 20.141V14.0681L32.8252 14.0745L36.9571 16.2831Z" stroke="white" stroke-width="1.7" stroke-miterlimit="10" stroke-linecap="square" stroke-linejoin="bevel"/>
<path d="M36.9571 22.3239V26.5728L32.8252 28.7942L32.8027 28.8007V22.7054L36.9571 22.3239Z" stroke="white" stroke-width="1.7" stroke-miterlimit="10" stroke-linecap="square" stroke-linejoin="bevel"/>
<path d="M36.9571 28.3663V32.5896L32.8027 37.4588V31.3715L32.8124 31.3683L32.8252 31.3651L36.9571 28.3663Z" stroke="white" stroke-width="1.7" stroke-miterlimit="10" stroke-linecap="square" stroke-linejoin="bevel"/>
<path d="M5.60419 31.3731L5.58656 31.3683C5.58335 31.3667 5.57855 31.3651 5.57534 31.3635L1.50434 28.4096C1.4803 28.3919 1.44824 28.4096 1.44824 28.4384V32.5783C1.44824 32.5864 1.45145 32.5944 1.45626 32.6008L5.54008 37.3866C5.56092 37.4123 5.60259 37.3962 5.60259 37.3642V31.3731H5.60419ZM5.60419 28.8022V22.7406C5.60419 22.7214 5.58977 22.707 5.57214 22.7054L1.48671 22.3287C1.46587 22.3271 1.44824 22.3431 1.44824 22.364V26.5536C1.44824 26.5664 1.45626 26.5792 1.46748 26.5856L5.57694 28.7958C5.58015 28.7974 5.58335 28.799 5.58656 28.799L5.60419 28.8022ZM5.58015 14.0761L1.46748 16.2751C1.45626 16.2815 1.44824 16.2927 1.44824 16.3072V20.4936C1.44824 20.5144 1.46587 20.5304 1.48671 20.5288L5.57053 20.1474C5.58816 20.1458 5.60259 20.1297 5.60259 20.1121V14.0713L5.58015 14.0761ZM5.58015 11.5085V11.4925C5.59457 11.4877 5.60419 11.4732 5.60419 11.4588V5.49336C5.60419 5.4597 5.56252 5.44528 5.54168 5.47092L1.45626 10.2568C1.45145 10.2632 1.44824 10.2712 1.44824 10.2792V14.4191C1.44824 14.448 1.4819 14.4656 1.50434 14.448L5.58015 11.5085Z" stroke="white" stroke-width="1.7" stroke-miterlimit="10" stroke-linecap="square" stroke-linejoin="bevel"/>
<path d="M1.15918 22.0783L1.64551 20.8225L3.1036 20.3768L3.71124 22.0783H1.15918Z" fill="white"/>
<path d="M36.9634 22.2887V21.2004H36.7218C36.1974 20.9988 35.0361 20.6038 34.585 20.6361C34.1339 20.6683 34.3971 21.7513 34.585 22.2887H36.9634Z" fill="white"/>
</svg>
