<svg width="37" height="37" viewBox="0 0 37 37" fill="none" xmlns="http://www.w3.org/2000/svg">
<path d="M0.958984 18.603V5.66015C0.958984 2.89873 3.19756 0.660156 5.95898 0.660156H31.8865C34.6479 0.660156 36.8865 2.89873 36.8865 5.66016V31.5459C36.8865 34.3073 34.6479 36.5458 31.8865 36.5458H5.95898C3.19756 36.5458 0.958984 34.3073 0.958984 31.5458V18.603ZM28.4686 31.2821C28.7393 31.2598 29.0025 31.1815 29.2414 31.0523C30.1396 30.6136 30.6618 29.6528 31.0796 27.6684C31.2467 26.8956 33.5653 14.7805 33.607 14.5716C33.6654 14.2324 33.5986 13.8835 33.419 13.5899C33.3736 13.5305 33.3168 13.4808 33.2519 13.4436H33.1266H32.5208C32.279 13.4007 32.0316 13.4007 31.7898 13.4436C31.6553 13.5077 31.5367 13.601 31.4428 13.7166C31.3489 13.8322 31.2819 13.9673 31.2467 14.1121C31.2467 14.1121 30.9125 15.9502 30.5365 18.0181L29.8472 21.778L29.7427 21.3393C28.573 16.0129 28.1135 14.1121 28.1135 13.945C28.064 13.8222 27.9933 13.709 27.9046 13.6108C27.6748 13.4019 27.6539 13.381 26.714 13.381C25.774 13.381 25.8367 13.381 25.6696 13.5481C25.5678 13.6676 25.4943 13.8086 25.4545 13.9605C25.4147 14.1124 25.4097 14.2713 25.4398 14.4254C25.4398 14.6552 25.4398 14.9894 26.8811 20.2323C28.3223 25.4752 28.4477 26.3734 28.5103 26.8747C28.6063 27.5276 28.4494 28.1925 28.0717 28.7337C28.0717 28.7337 28.0717 28.7337 27.9046 28.7337L27.4868 28.6293C26.9228 28.4622 26.714 28.4831 26.5051 28.6293C26.2853 28.9382 26.1884 29.3181 26.2335 29.6946C26.2335 30.2376 26.2335 30.4048 26.5678 30.6763C26.9001 30.9911 27.3424 31.1635 27.8001 31.1567L28.4686 31.2821ZM24.4998 27.8146C24.5807 27.7762 24.6523 27.7209 24.7099 27.6524C24.7676 27.584 24.8099 27.5039 24.834 27.4178C24.8795 27.1692 24.8795 26.9144 24.834 26.6658C24.8613 26.4229 24.8613 26.1776 24.834 25.9347C24.7907 25.8102 24.7126 25.7007 24.6089 25.6193C24.5052 25.5378 24.3804 25.4878 24.2492 25.4752H23.5181C22.7661 25.4752 22.7243 25.4752 22.599 25.0992C22.4453 24.6913 22.3606 24.2607 22.3484 23.825C22.3484 22.4882 22.3484 21.1305 22.3484 19.7727V15.9711H23.0794C24.0403 15.9711 24.1447 15.9711 24.3327 15.7413C24.4338 15.6045 24.505 15.4479 24.5416 15.2818C24.5625 14.9061 24.5625 14.5295 24.5416 14.1538C24.5301 14.012 24.4816 13.8756 24.4009 13.7584C24.3203 13.6411 24.2104 13.547 24.0821 13.4854C23.9776 13.4854 23.9567 13.4854 23.1421 13.4854H22.3275V10.8326C22.3275 8.55584 22.3275 8.26341 22.3275 8.15897C22.2988 8.04732 22.2467 7.94305 22.1746 7.85303C22.1026 7.76301 22.0123 7.6893 21.9097 7.63677C21.9097 7.63677 21.7635 7.63677 21.2413 7.63677C20.9441 7.5853 20.6403 7.5853 20.3431 7.63677C20.2408 7.70235 20.1529 7.78799 20.0847 7.88852C20.0165 7.98905 19.9694 8.10237 19.9462 8.22163C19.8836 8.36785 19.7582 9.01538 19.7582 10.8744L19.6329 13.381H19.2569C18.8183 13.381 18.693 13.381 18.5676 13.5481C18.4423 13.7152 18.317 13.945 18.2961 14.5089C18.2752 15.0729 18.2961 15.5325 18.5467 15.7413C18.7974 15.9502 18.8183 15.9502 19.2569 15.9502H19.6329V19.731C19.6329 23.2819 19.6329 23.9086 19.6329 24.4725C19.6913 25.1434 19.8607 25.7998 20.1342 26.4151C20.3349 26.8066 20.632 27.1405 20.9974 27.3853C21.3629 27.6302 21.7847 27.7779 22.223 27.8146H24.3118H24.4581H24.4998ZM8.95911 27.8146C9.07265 27.7349 9.1684 27.6325 9.24031 27.5138C9.31222 27.3952 9.35872 27.2629 9.37687 27.1253C9.37687 26.9582 9.37687 26.2898 9.37687 17.6839C9.37687 9.07804 9.31421 8.30519 9.31421 8.15897C9.30178 8.07132 9.27152 7.98715 9.22528 7.91166C9.17904 7.83617 9.11782 7.77096 9.04539 7.72006C8.97295 7.66917 8.89086 7.63366 8.80416 7.61574C8.71747 7.59782 8.62803 7.59787 8.54135 7.61588L7.2254 7.97098L5.63791 8.38874C5.4175 8.40918 5.2109 8.5051 5.05304 8.66028C4.84416 8.86916 4.80239 9.03627 4.80239 9.91357C4.80239 10.7909 4.80239 10.958 5.05304 11.1877C5.3037 11.4175 5.44992 11.3966 6.0139 11.1877L6.3481 11.1042C6.3481 11.1042 6.3481 12.7335 6.3481 18.9581C6.3481 26.1436 6.3481 26.8329 6.3481 26.9791C6.3481 27.1253 6.59876 27.6058 6.84942 27.6893C7.18899 27.736 7.53336 27.736 7.87293 27.6893C8.77112 27.6893 8.79201 27.6893 8.89645 27.6893L8.95911 27.8146ZM15.5806 27.8146C15.7931 27.6745 15.9429 27.4573 15.9984 27.2089V27.0209V17.663C15.9984 10.9997 15.9984 8.34696 15.9984 8.24252C15.9984 8.13808 15.706 7.59499 15.33 7.59499C14.7275 7.69431 14.1339 7.84098 13.5545 8.03364C12.9509 8.15584 12.3574 8.32342 11.779 8.53496C11.7001 8.589 11.6346 8.66039 11.5875 8.74367C11.5404 8.82694 11.513 8.91989 11.5075 9.01538C11.403 9.01538 11.403 9.01538 11.403 9.91357C11.403 10.8118 11.403 10.7909 11.403 10.9162C11.4785 10.9982 11.5712 11.0624 11.6746 11.1042C11.8834 11.3131 12.0297 11.334 12.6354 11.1042H13.0741C13.0741 11.1042 13.0741 13.6108 13.0741 19.0208V26.9791V27.1462C13.1179 27.3286 13.2119 27.4951 13.3456 27.6266C13.5127 27.752 13.5336 27.7729 14.5362 27.752C15.5389 27.7311 15.5806 27.8146 15.5806 27.8146Z" fill="white"/>
</svg>
