<svg width="36" height="37" viewBox="0 0 36 37" fill="none" xmlns="http://www.w3.org/2000/svg">
<path d="M0.0625 18.3295V5.38665C0.0625 2.62523 2.30108 0.386658 5.0625 0.386658H30.99C33.7514 0.386658 35.99 2.62523 35.99 5.38666V31.2724C35.99 34.0338 33.7514 36.2724 30.99 36.2724H5.0625C2.30107 36.2724 0.0625 34.0338 0.0625 31.2723V18.3295ZM27.5721 31.0086C27.8428 30.9863 28.106 30.908 28.3449 30.7788C29.2431 30.3401 29.7653 29.3793 30.1831 27.3949C30.3502 26.6221 32.6688 14.507 32.7105 14.2981C32.7689 13.9589 32.7021 13.61 32.5225 13.3164C32.4771 13.257 32.4203 13.2073 32.3554 13.1702H32.2301H31.6244C31.3826 13.1272 31.1351 13.1272 30.8933 13.1702C30.7588 13.2342 30.6403 13.3275 30.5463 13.4431C30.4524 13.5587 30.3854 13.6938 30.3502 13.8386C30.3502 13.8386 30.016 15.6767 29.64 17.7446L28.9507 21.5045L28.8463 21.0658C27.6765 15.7394 27.217 13.8386 27.217 13.6715C27.1675 13.5487 27.0968 13.4355 27.0081 13.3373C26.7783 13.1284 26.7574 13.1075 25.8175 13.1075C24.8775 13.1075 24.9402 13.1075 24.7731 13.2746C24.6713 13.3941 24.5978 13.5351 24.558 13.687C24.5182 13.8389 24.5132 13.9978 24.5433 14.1519C24.5433 14.3817 24.5433 14.7159 25.9846 19.9588C27.4259 25.2017 27.5512 26.0999 27.6139 26.6012C27.7098 27.2541 27.5529 27.919 27.1752 28.4602C27.1752 28.4602 27.1752 28.4602 27.0081 28.4602L26.5903 28.3558C26.0264 28.1887 25.8175 28.2096 25.6086 28.3558C25.3888 28.6648 25.292 29.0446 25.3371 29.4211C25.3371 29.9642 25.3371 30.1313 25.6713 30.4028C26.0037 30.7176 26.4459 30.89 26.9037 30.8832L27.5721 31.0086ZM23.6033 27.5411C23.6842 27.5027 23.7558 27.4474 23.8135 27.3789C23.8711 27.3105 23.9134 27.2304 23.9376 27.1443C23.983 26.8957 23.983 26.6409 23.9376 26.3923C23.9648 26.1494 23.9648 25.9041 23.9376 25.6612C23.8942 25.5367 23.8161 25.4272 23.7124 25.3458C23.6088 25.2643 23.4839 25.2143 23.3527 25.2017H22.6216C21.8696 25.2017 21.8279 25.2017 21.7025 24.8257C21.5488 24.4178 21.4641 23.9872 21.4519 23.5515C21.4519 22.2147 21.4519 20.857 21.4519 19.4992V15.6976H22.183C23.1438 15.6976 23.2482 15.6976 23.4362 15.4678C23.5374 15.331 23.6085 15.1744 23.6451 15.0083C23.666 14.6326 23.666 14.256 23.6451 13.8803C23.6336 13.7385 23.5851 13.6021 23.5045 13.4849C23.4238 13.3676 23.3139 13.2735 23.1856 13.2119C23.0811 13.2119 23.0603 13.2119 22.2456 13.2119H21.431V10.5591C21.431 8.28234 21.431 7.98991 21.431 7.88547C21.4023 7.77383 21.3502 7.66955 21.2782 7.57953C21.2061 7.48951 21.1158 7.4158 21.0132 7.36327C21.0132 7.36327 20.867 7.36327 20.3448 7.36327C20.0476 7.31181 19.7438 7.31181 19.4466 7.36327C19.3444 7.42885 19.2565 7.51449 19.1882 7.61502C19.12 7.71555 19.0729 7.82888 19.0497 7.94814C18.9871 8.09435 18.8618 8.74188 18.8618 10.6009L18.7364 13.1075H18.3604C17.9218 13.1075 17.7965 13.1075 17.6711 13.2746C17.5458 13.4417 17.4205 13.6715 17.3996 14.2354C17.3787 14.7994 17.3996 15.259 17.6502 15.4678C17.9009 15.6767 17.9218 15.6767 18.3604 15.6767H18.7364V19.4575C18.7364 23.0084 18.7364 23.6351 18.7364 24.199C18.7948 24.8699 18.9642 25.5263 19.2377 26.1416C19.4384 26.5331 19.7355 26.867 20.1009 27.1118C20.4664 27.3567 20.8882 27.5044 21.3265 27.5411H23.4154H23.5616H23.6033ZM8.06263 27.5411C8.17616 27.4614 8.27192 27.359 8.34383 27.2403C8.41574 27.1217 8.46224 26.9894 8.48039 26.8518C8.48039 26.6847 8.48039 26.0163 8.48039 17.4104C8.48039 8.80455 8.41773 8.03169 8.41773 7.88547C8.4053 7.79782 8.37503 7.71365 8.32879 7.63816C8.28256 7.56267 8.22133 7.49746 8.1489 7.44657C8.07647 7.39567 7.99437 7.36016 7.90768 7.34224C7.82099 7.32432 7.73154 7.32437 7.64487 7.34238L6.32892 7.69748L4.74143 8.11524C4.52101 8.13568 4.31442 8.2316 4.15656 8.38679C3.94768 8.59567 3.9059 8.76277 3.9059 9.64007C3.9059 10.5174 3.9059 10.6845 4.15656 10.9142C4.40722 11.144 4.55343 11.1231 5.11741 10.9142L5.45162 10.8307C5.45162 10.8307 5.45162 12.46 5.45162 18.6846C5.45162 25.8701 5.45162 26.5594 5.45162 26.7056C5.45162 26.8518 5.70228 27.3323 5.95293 27.4158C6.29251 27.4625 6.63687 27.4625 6.97645 27.4158C7.87464 27.4158 7.89552 27.4158 7.99996 27.4158L8.06263 27.5411ZM14.6841 27.5411C14.8967 27.401 15.0465 27.1838 15.1019 26.9354V26.7474V17.3895C15.1019 10.7262 15.1019 8.07346 15.1019 7.96902C15.1019 7.86458 14.8095 7.32149 14.4335 7.32149C13.831 7.42081 13.2374 7.56748 12.658 7.76014C12.0544 7.88235 11.4609 8.04993 10.8825 8.26146C10.8036 8.3155 10.7381 8.38689 10.691 8.47017C10.6439 8.55344 10.6166 8.64639 10.611 8.74188C10.5065 8.74188 10.5065 8.74188 10.5065 9.64007C10.5065 10.5383 10.5065 10.5174 10.5065 10.6427C10.582 10.7247 10.6747 10.7889 10.7781 10.8307C10.987 11.0396 11.1332 11.0605 11.7389 10.8307H12.1776C12.1776 10.8307 12.1776 13.3373 12.1776 18.7473V26.7056V26.8727C12.2214 27.0551 12.3154 27.2216 12.4491 27.3531C12.6162 27.4785 12.6371 27.4994 13.6397 27.4785C14.6424 27.4576 14.6841 27.5411 14.6841 27.5411Z" fill="white"/>
</svg>
