<svg width="48" height="48" viewBox="0 0 48 48" fill="none" xmlns="http://www.w3.org/2000/svg">
<path d="M24 46.4C11.6 46.4 1.5 36.3 1.5 23.9C1.5 11.5 11.6 1.39999 24 1.39999C36.4 1.39999 46.5 11.5 46.5 23.9C46.5 36.3 36.4 46.4 24 46.4Z" stroke="white" stroke-width="2" stroke-miterlimit="10"/>
<path d="M15.0002 34.2V28.1L11.7002 32C12.2002 33 12.2002 33.2 12.7002 34.2H15.0002Z" fill="white"/>
<path d="M17.9004 31.2V19.6C20.3004 17.2 21.6004 15.9 24.0004 13.5C26.4004 15.9 27.7003 17.2 30.1003 19.6V31.2C29.3003 32 28.8004 32.5 27.9004 33.4H20.1003C19.2003 32.6 18.7004 32.1 17.9004 31.2Z" stroke="white" stroke-width="1.6822" stroke-miterlimit="10"/>
<path d="M33 34.2V28.1L36.3 32C35.8 33 35.8 33.2 35.3 34.2H33Z" fill="white"/>
<path d="M24 24.9C24.5523 24.9 25 24.4523 25 23.9C25 23.3477 24.5523 22.9 24 22.9C23.4477 22.9 23 23.3477 23 23.9C23 24.4523 23.4477 24.9 24 24.9Z" fill="white" stroke="white" stroke-width="2" stroke-miterlimit="10"/>
</svg>
