<svg width="47" height="48" viewBox="0 0 47 48" fill="none" xmlns="http://www.w3.org/2000/svg">
<path d="M23.5 46.3C11.1 46.3 1 36.2 1 23.8C1 11.4 11.1 1.3 23.5 1.3C35.9 1.3 46 11.4 46 23.8C46 36.2 35.9 46.3 23.5 46.3Z" stroke="white" stroke-width="2" stroke-miterlimit="10"/>
<path d="M33.3002 14H13.7002V33.6H33.3002V14Z" stroke="white" stroke-width="2" stroke-miterlimit="10"/>
<path d="M19.6006 23.2C20.1529 23.2 20.6006 22.7523 20.6006 22.2C20.6006 21.6477 20.1529 21.2 19.6006 21.2C19.0483 21.2 18.6006 21.6477 18.6006 22.2C18.6006 22.7523 19.0483 23.2 19.6006 23.2Z" fill="white" stroke="white" stroke-width="2" stroke-miterlimit="10"/>
<path d="M25.4004 22.6H29.4004" stroke="white" stroke-width="2" stroke-miterlimit="10"/>
<path d="M26 27.5C26 28.9 24.9 30 23.5 30C22.1 30 21 28.9 21 27.5" stroke="white" stroke-width="1.7195" stroke-miterlimit="10"/>
</svg>
