<svg width="48" height="48" viewBox="0 0 48 48" fill="none" xmlns="http://www.w3.org/2000/svg">
<path d="M23.6992 46.6C11.2992 46.6 1.19922 36.5 1.19922 24.1C1.19922 11.7 11.2992 1.60001 23.6992 1.60001C36.0992 1.60001 46.1992 11.7 46.1992 24.1C46.1992 36.5 36.0992 46.6 23.6992 46.6Z" stroke="white" stroke-width="2" stroke-miterlimit="10"/>
<path d="M27.5625 20.8488C25.9918 21.3721 24.6829 22.5497 24.1593 24.2505C24.0284 24.5122 23.7666 24.5122 23.6357 24.2505C23.1121 22.6805 21.9341 21.3721 20.2325 20.8488C19.9707 20.7179 19.9707 20.4563 20.2325 20.3254C21.8032 19.8021 23.1121 18.6246 23.6357 16.9237C23.7666 16.662 24.0284 16.662 24.1593 16.9237C24.6829 18.4937 25.8609 19.8021 27.5625 20.3254C27.8243 20.3254 27.8243 20.7179 27.5625 20.8488Z" fill="white"/>
<path d="M27.568 29.7737H20.3304C18.1476 27.5919 16.8839 26.3287 14.7012 24.1469V17.0273C16.8839 14.8455 18.1476 13.5824 20.3304 11.4005H27.568C29.7507 13.5824 31.0144 14.8455 33.1972 17.0273V24.2617C31.0144 26.3287 29.8656 27.5919 27.568 29.7737Z" stroke="white" stroke-width="2" stroke-miterlimit="10"/>
<path d="M23.8975 30.7143L23.8975 37.5" stroke="white" stroke-width="2" stroke-miterlimit="10"/>
</svg>
