<svg width="70" height="40" viewBox="0 0 70 40" fill="none" xmlns="http://www.w3.org/2000/svg"><path fill-rule="evenodd" clip-rule="evenodd" d="M39.776 11c.05 0 .055.649.032 2.883-.018 1.584-.02 2.88-.006 2.88.015 0 .203-.08.418-.178.65-.297 1.246-.424 2.114-.455.576-.019.843-.007 1.141.053 1.938.397 3.373 1.962 3.872 4.232.131.592.18 2.063.093 2.799a9.046 9.046 0 01-.505 2.022c-.828 2.07-2.606 3.422-4.965 3.772-.544.081-2.25.092-2.982.02-.5-.052-2.024-.302-2.558-.422l-.367-.083.029-1.942c.07-4.679.077-7.234.032-9.72-.043-2.432-.055-2.69-.15-3.05-.122-.457-.294-.774-.504-.92-.081-.059-.302-.14-.492-.181-.626-.14-.59-.117-.608-.398-.01-.163.008-.27.051-.303.055-.044 5.175-1.009 5.355-1.009zm.405 17.052c.219.018.355.026.463.026.127 0 .216-.011.36-.038.365-.07.65-.213.955-.484.764-.678 1.337-2.079 1.563-3.813.093-.708.08-2.318-.022-2.907-.276-1.594-.87-2.643-1.733-3.066-.359-.175-.414-.188-.84-.188-.303 0-.565.032-.787.098l-.334.097-.025 1.815c-.031 2.326.045 8.148.109 8.317.042.104.086.129.29.143zM.166 11.324c.063-.011 1.66-.017 3.928-.017l3.177.003 6.94.013.032.2c.018.108.048 1.23.066 2.49l.034 2.293-.36.105c-.537.163-.533.165-.777-.468-.594-1.554-1.276-2.452-2.211-2.903-.645-.313-.943-.351-2.76-.351H6.652l-.029.26c-.05.491-.131 3.636-.131 5.118v1.477l.467-.002c.256-.002.76-.019 1.121-.04.542-.032.703-.06.93-.166.559-.254.936-.815 1.17-1.729l.12-.47.41-.015.41-.015v5.969l-.41-.014-.41-.015-.117-.472c-.219-.887-.641-1.52-1.161-1.749-.241-.105-.838-.165-1.988-.198l-.542-.018v1.122c0 1.221.068 2.875.156 3.771.122 1.25.445 1.942 1.026 2.194.11.045.462.125.781.171.318.046.619.106.667.13.122.063.129.71.007.757-.095.035-8.972.033-9.061-.002-.043-.018-.065-.141-.065-.371 0-.411-.025-.394.78-.54.618-.114.84-.23 1.113-.583.529-.687.644-2.006.646-7.44 0-5.104-.1-6.18-.648-6.967-.242-.35-.65-.54-1.337-.621l-.527-.064-.016-.407L0 11.352l.166-.028zm32.34 4.872c.474-.214.789-.278 1.374-.278.693 0 1.385.223 1.385.446 0 .15-1.22 3.339-1.288 3.364-.032.012-.271-.078-.53-.2-.539-.257-1.045-.381-1.536-.381-.611.002-1.296.225-1.565.51-.115.123-.116.13-.145 1.955-.029 1.807.032 4.012.136 4.9.088.754.291 1.127.71 1.299.14.058 1.027.179 1.316.179.021 0 .032.173.025.385l-.014.386-3.723.01c-2.047.007-3.752-.006-3.788-.028-.045-.029-.061-.143-.05-.385l.016-.343.176-.037c.097-.022.305-.062.462-.091.486-.09.765-.35.923-.862.129-.416.187-1.749.188-4.426.004-3.273-.066-4.044-.399-4.484-.183-.238-.314-.305-.755-.388-.216-.042-.446-.085-.507-.098-.1-.02-.115-.054-.115-.297 0-.236.016-.279.115-.32.15-.06 5.133-1.045 5.291-1.045h.126l-.025.734c-.015.403-.035.989-.049 1.305l-.02.57.178-.32c.579-1.031 1.227-1.67 2.088-2.06zm-16.717.398c.888-.44 1.95-.658 3.005-.658 1.17 0 2.33.267 3.242.796 1.563.909 2.508 2.521 2.772 4.728.08.672.028 2.093-.1 2.68-.516 2.403-2.026 4.08-4.237 4.712a7.504 7.504 0 01-.82.177c-.453.062-1.83.062-2.267-.002-1.218-.175-2.287-.685-3.101-1.482-.68-.665-1.12-1.396-1.445-2.396-.508-1.565-.508-3.577 0-5.108.491-1.483 1.598-2.776 2.95-3.447zm2.327 11.543c.159.07.382.106.61.106.245-.002.497-.042.676-.125.95-.436 1.46-1.693 1.627-4.012.23-3.23-.305-5.928-1.368-6.876-.479-.427-1.222-.567-1.76-.329-.784.344-1.288 1.364-1.526 3.09-.168 1.23-.15 3.741.034 4.87.294 1.778.88 2.904 1.707 3.276zm46.831-12.173c-1.404.126-2.434.567-3.228 1.38-.789.805-1.145 1.752-1.082 2.874.052.93.33 1.597.91 2.183.539.543.99.8 2.285 1.3 2.088.805 2.643 1.283 2.637 2.276-.003.839-.453 1.454-1.277 1.74-.292.102-1.033.102-1.43 0-1.038-.272-1.833-1.159-2.51-2.807l-.175-.422-.203.01a1.102 1.102 0 00-.344.074l-.138.066.012.72c.007.396.027 1.23.045 1.853l.03 1.137.234.097c.475.202 1.901.51 2.796.606.112.01.723.016 1.36.009 1.103-.013 1.182-.02 1.738-.163 1.639-.424 2.7-1.325 3.171-2.695.143-.422.165-.549.185-1.176.028-.833-.05-1.267-.325-1.81-.422-.834-1.202-1.406-2.833-2.08-1.333-.55-2.002-.93-2.408-1.371-.332-.358-.43-.646-.396-1.183.028-.493.152-.788.466-1.118.401-.425.955-.574 1.617-.436 1.085.227 1.785.97 2.386 2.542.213.56.238.578.624.436l.243-.088-.009-.647c-.006-.355-.024-1.1-.042-1.657l-.032-1.011-.18-.076c-.837-.35-2.314-.59-3.498-.59a6.97 6.97 0 00-.629.027zm-13.063.574c.827-.397 1.813-.598 2.763-.598.846 0 1.663.159 2.314.481 1.556.77 2.47 2.306 2.702 4.54.032.3.05.658.04.794l-.015.25-3.723.012-3.722.012.014.434c.032 1.008.251 1.896.656 2.67.185.352.332.545.687.9.805.802 1.606 1.11 2.868 1.11.914 0 1.574-.18 2.262-.618.192-.125.387-.224.434-.224.106 0 .346.308.346.44 0 .22-.72.925-1.425 1.396-.575.384-1.49.733-2.283.87-.555.095-1.803.093-2.352-.005-2.496-.444-4.281-2.193-4.864-4.762-.075-.33-.107-.7-.127-1.416-.029-1.132.064-1.835.36-2.709.569-1.676 1.586-2.864 3.065-3.577zm.265 4.509c.01.016.266.02.643.02a63.9 63.9 0 002.69-.062l.523-.031-.03-.777c-.062-1.573-.372-2.637-.918-3.131-.202-.187-.475-.302-.706-.303-.056 0-.226.035-.374.079-.217.064-.337.145-.603.41-.493.491-.852 1.288-1.076 2.392-.093.457-.186 1.343-.149 1.403z" fill="#80808E"/></svg>