<svg width="57" height="57" viewBox="0 0 57 57" fill="none" xmlns="http://www.w3.org/2000/svg">
<path d="M28.7207 55.4302C43.6324 55.4302 55.7207 43.3419 55.7207 28.4302C55.7207 13.5185 43.6324 1.43018 28.7207 1.43018C13.809 1.43018 1.7207 13.5185 1.7207 28.4302C1.7207 43.3419 13.809 55.4302 28.7207 55.4302Z" stroke="white" stroke-width="2" stroke-miterlimit="10"/>
<path d="M28.5658 36.9159C33.1245 36.9159 36.8201 33.2203 36.8201 28.6616C36.8201 24.1029 33.1245 20.4073 28.5658 20.4073C24.0071 20.4073 20.3115 24.1029 20.3115 28.6616C20.3115 33.2203 24.0071 36.9159 28.5658 36.9159Z" stroke="white" stroke-width="2" stroke-miterlimit="10"/>
<path d="M23.1664 54.8131C14.9893 36.2216 42.375 20.9473 33.9664 1.81592" stroke="white" stroke-width="2" stroke-miterlimit="10"/>
<path d="M16.6089 22.3358L10.0518 28.893L16.3775 35.2187" stroke="white" stroke-width="2" stroke-miterlimit="10"/>
<path d="M40.5234 22.3358L47.0806 28.893L40.6777 35.2187" stroke="white" stroke-width="2" stroke-miterlimit="10"/>
</svg>
