<svg width="41" height="41" viewBox="0 0 41 41" fill="none" xmlns="http://www.w3.org/2000/svg">
<path d="M20.3613 0.300537C9.31564 0.300537 0.361328 9.25481 0.361328 20.3005C0.361328 31.3463 9.31568 40.3005 20.3613 40.3005C31.4071 40.3005 40.3613 31.3463 40.3613 20.3005C40.3613 9.25481 31.4071 0.300537 20.3613 0.300537ZM4.65882 20.509L20.1528 36.003C11.6448 35.8921 4.76968 29.017 4.65882 20.509ZM23.8764 35.6104L5.05143 16.7855C6.64771 9.80417 12.8961 4.59541 20.3613 4.59541C25.5797 4.59541 30.2027 7.14118 33.0586 11.0578L30.8842 12.9765C28.5675 9.65425 24.7186 7.48002 20.3613 7.48002C14.8136 7.48002 10.0894 11.0038 8.3037 15.9352L24.7267 32.3582C28.7151 30.9139 31.7824 27.5472 32.8097 23.3775H26.0024V20.3006H33.1818V20.3005H36.0665V20.3005C36.0665 27.7658 30.8577 34.0142 23.8764 35.6104Z" fill="#744C9E"/>
</svg>
