<svg width="41" height="41" viewBox="0 0 41 41" fill="none" xmlns="http://www.w3.org/2000/svg">
<g clip-path="url(#clip0)">
<path d="M20.4639 0.603027C9.41818 0.603027 0.463867 9.5573 0.463867 20.603C0.463867 31.6488 9.41821 40.603 20.4639 40.603C31.5096 40.603 40.4639 31.6488 40.4639 20.603C40.4639 9.5573 31.5096 0.603027 20.4639 0.603027ZM4.76136 20.8115L20.2553 36.3055C11.7474 36.1946 4.87222 29.3195 4.76136 20.8115ZM23.9789 35.9129L5.15397 17.088C6.75025 10.1067 12.9986 4.8979 20.4639 4.8979C25.6822 4.8979 30.3053 7.44367 33.1612 11.3603L30.9867 13.2789C28.6701 9.95674 24.8211 7.78251 20.4639 7.78251C14.9162 7.78251 10.1919 11.3063 8.40624 16.2377L24.8293 32.6607C28.8176 31.2164 31.885 27.8497 32.9123 23.68H26.1049V20.6031H33.2844V20.603H36.169V20.603C36.169 28.0683 30.9603 34.3167 23.9789 35.9129Z" fill="white"/>
</g>
<defs>
<clipPath id="clip0">
<rect width="40" height="40" fill="white" transform="translate(0.463867 0.603027)"/>
</clipPath>
</defs>
</svg>
