<svg width="114" height="40" viewBox="0 0 114 40" fill="none" xmlns="http://www.w3.org/2000/svg"><path fill-rule="evenodd" clip-rule="evenodd" d="M84.324 14.028c-1.895-1.174-4.28-1.21-6.405-.764-1.966.443-3.717 1.756-4.655 3.543-1.048 1.986-1.273 4.334-.971 6.536.306 2.077 1.935 3.836 3.964 4.353 2.759.68 5.995.273 8.115-1.756 1.893-1.83 2.49-4.6 2.384-7.147.017-1.85-.832-3.768-2.432-4.765zm-7.09 6.215c.262-1.205.6-2.66 1.816-3.245 1.074-.552 2.577.014 2.767 1.275.265 1.56-.136 3.197-.775 4.624-.569 1.295-2.518 1.838-3.501.71-.674-.93-.489-2.16-.327-3.232l.02-.132zm16.498-7.2c-1.739.107-3.617.8-4.52 2.383-1.086 1.896-.922 4.72.968 6.05.619.482 1.35.722 2.082.962.439.144.877.288 1.291.484.674.321.563 1.441-.162 1.626-.969.346-1.94-.245-2.432-1.069-.655.184-1.312.36-1.968.537-.713.192-1.427.384-2.138.586a4.265 4.265 0 003.165 3.063c2.174.52 4.592.46 6.63-.529 2.796-1.34 3.228-5.893.602-7.618-.636-.47-1.377-.711-2.12-.952-.503-.163-1.006-.327-1.477-.563-.822-.349-.418-1.608.386-1.665.75-.204 1.35.381 1.802.893.513-.143 1.029-.282 1.544-.422.864-.234 1.728-.468 2.587-.715l-.02-.053c-.284-.72-.587-1.49-1.241-1.956-1.404-1.086-3.285-1.142-4.979-1.043zM1 27.675c.835-4.785 1.67-9.567 2.51-14.35h1.185c1.185 0 2.372-.001 3.557.003l-.359 1.987c-.188 1.042-.377 2.083-.56 3.125h3.95l.26-1.426c.224-1.226.448-2.452.653-3.68 1.585-.015 3.171-.012 4.754-.003l-.137.788v.002c-.788 4.517-1.575 9.035-2.37 13.554h-.949c-1.263 0-2.524.001-3.787-.005.304-1.776.613-3.55.929-5.323h-.988c-.99 0-1.98-.001-2.97.003-.155.87-.306 1.738-.458 2.607-.158.907-.316 1.813-.477 2.718H1zm19.875-14.422l-1.356.001c-.21 1.191-.424 2.382-.637 3.572a1038.6 1038.6 0 00-.858 4.834c-.242 1.489-.173 3.168.776 4.415 1.034 1.345 2.816 1.808 4.438 1.882 1.876.05 3.905-.023 5.533-1.072 1.489-.96 2.142-2.736 2.45-4.404.273-1.537.541-3.075.81-4.613v-.002c.267-1.537.535-3.075.809-4.612h-1.777c-.988 0-1.975 0-2.963-.006-.243 1.223-.451 2.454-.66 3.684-.328 1.944-.656 3.887-1.124 5.799-.225 1.395-2.023 2.117-3.132 1.233-.664-.626-.527-1.63-.414-2.463l.022-.162c.36-2.02.73-4.041 1.1-6.061l.37-2.02a523.407 523.407 0 00-3.387-.005zm13.18 7.79l.002-.006c.447-2.57.895-5.142 1.349-7.712h10.212a627.992 627.992 0 01-.681 3.913c-.865-.005-1.729-.005-2.593-.005-.96 0-1.92.001-2.88-.006a254.5 254.5 0 00-.43 2.563h.87c1.015-.002 2.032-.003 3.05.008l-.001.001v.002c-.219 1.227-.438 2.453-.654 3.68-1.304.003-2.608.003-3.915.003l-.297 1.677c-.147.84-.294 1.678-.448 2.517-1.58-.003-3.162-.003-4.742-.003.388-2.21.773-4.42 1.159-6.632zm16.135-7.718h-2.554c-.844 4.783-1.676 9.568-2.506 14.353 1.577-.003 3.154-.003 4.731-.003.253-1.392.492-2.787.725-4.185 1.052-.007 2.102-.007 3.154-.006h.79c.094-.544.19-1.087.286-1.63v-.006c.121-.683.242-1.366.359-2.05-.911-.01-1.823-.01-2.736-.01l-1.174-.001c.14-.855.281-1.708.423-2.56 1.066.006 2.13.006 3.196.006.76 0 1.522 0 2.283.002.137-.8.279-1.6.42-2.398l.265-1.509c-2.553-.004-5.108-.004-7.662-.003zm9.68.003c2.09-.003 4.182-.006 6.273-.006 1.572.009 3.31.43 4.308 1.742.95 1.194.915 2.833.702 4.263-.241 1.582-1.128 3.114-2.574 3.87-1.476.847-3.185.815-4.844.784-.321-.006-.64-.012-.956-.011l-.14.778v.001c-.177.973-.352 1.944-.514 2.918-1.582.014-3.168.011-4.75.003.35-2.027.704-4.053 1.059-6.08v-.003c.482-2.752.964-5.505 1.435-8.259zm4.128 3.745c-.103.574-.21 1.147-.315 1.72-.102.548-.203 1.095-.302 1.642.166-.004.332-.002.5-.001.655.005 1.32.01 1.927-.266.972-.45 1.265-1.91.548-2.703-.513-.372-1.15-.374-1.77-.377-.2 0-.397-.002-.588-.015zm42.493-3.748h-4.805l-.161.907a305.76 305.76 0 00-.524 2.995c1.239.008 2.481.008 3.72.003l-.207 1.191c-.533 3.084-1.067 6.165-1.598 9.251 1.187.005 2.373.004 3.559.004h1.187l.683-3.89c.383-2.185.766-4.37 1.155-6.554h.699c.933 0 1.867 0 2.799.006.12-.65.235-1.303.351-1.955.116-.652.232-1.304.351-1.955-2.404-.005-4.807-.004-7.209-.003z" fill="#80808E"/></svg>