<svg width="57" height="57" viewBox="0 0 57 57" fill="none" xmlns="http://www.w3.org/2000/svg">
<path d="M28.5469 55.9073C43.4586 55.9073 55.5469 43.819 55.5469 28.9073C55.5469 13.9957 43.4586 1.90735 28.5469 1.90735C13.6352 1.90735 1.54688 13.9957 1.54688 28.9073C1.54688 43.819 13.6352 55.9073 28.5469 55.9073Z" stroke="white" stroke-width="2" stroke-miterlimit="10"/>
<path d="M20.6788 41.713C27.1973 41.713 32.4817 36.4286 32.4817 29.9101C32.4817 23.3916 27.1973 18.1073 20.6788 18.1073C14.1602 18.1073 8.87598 23.3916 8.87598 29.9101C8.87598 36.4286 14.1602 41.713 20.6788 41.713Z" stroke="white" stroke-width="2" stroke-miterlimit="10"/>
<path d="M36.338 41.713C42.8566 41.713 48.1409 36.4286 48.1409 29.9101C48.1409 23.3916 42.8566 18.1073 36.338 18.1073C29.8195 18.1073 24.5352 23.3916 24.5352 29.9101C24.5352 36.4286 29.8195 41.713 36.338 41.713Z" stroke="white" stroke-width="2" stroke-miterlimit="10"/>
<path d="M37.8818 26.2074L41.5847 29.9102L37.959 33.536" stroke="white" stroke-width="2" stroke-miterlimit="10"/>
<path d="M18.9832 33.536L15.2803 29.8331L18.906 26.2074" stroke="white" stroke-width="2" stroke-miterlimit="10"/>
</svg>
