<svg width="70" height="40" viewBox="0 0 70 40" fill="none" xmlns="http://www.w3.org/2000/svg"><path fill-rule="evenodd" clip-rule="evenodd" d="M0 1v37h37v-4.665h-2.333v2.333H2.332V3.334h32.335v18.98H37V1H0zm8.129 31.19h2.334v-8.733H8.129v8.734zm8.334-4.69v-4.043h2.226v8.734h-2.144l-2.674-4.538h-.037v4.538H11.62v-8.734h2.45L16.43 27.5h.034zm3.392-4.043h2.898c2.781 0 4.113.754 4.113 4.36 0 3.678-1.308 4.374-4.077 4.374h-2.934v-8.734zm2.333 6.717v-4.595h.718c.991 0 1.59.058 1.59 2.25 0 2.205-.622 2.345-1.496 2.345h-.812zm5.514 2.017h2.332v-8.735h-2.332v8.735zm21.61-8.839c-3.252 0-3.83 2.13-3.83 4.477 0 2.334.578 4.467 3.83 4.467 3.241 0 3.819-2.133 3.819-4.467 0-2.346-.566-4.477-3.82-4.477zm-1.461 4.56c0 1.437.176 2.322 1.46 2.322 1.274 0 1.452-.885 1.452-2.322 0-1.427-.178-2.309-1.451-2.309-1.285 0-1.461.882-1.461 2.309zm17.819-4.56c-3.254 0-3.832 2.13-3.832 4.477 0 2.334.578 4.467 3.832 4.467 3.24 0 3.815-2.133 3.815-4.467 0-2.346-.566-4.477-3.815-4.477zm-1.463 4.56c0 1.437.176 2.322 1.463 2.322 1.27 0 1.447-.885 1.447-2.322 0-1.427-.177-2.309-1.448-2.309-1.286 0-1.462.882-1.462 2.309zm-23.025 4.384c-2.864 0-3.57-1.828-3.57-4.467 0-3.027.967-4.477 3.982-4.477 1.084 0 2.052.282 2.711.706l-1.249 1.944a3.077 3.077 0 00-1.567-.399c-.92 0-1.531.247-1.531 2.297 0 1.969.364 2.463 1.436 2.463 1.12 0 1.12-.403 1.12-1.317V28.818h-1.505l.258-1.896h3.38v5.269H42.5c-.377.07-.81.105-1.319.105zm12.784-4.467c0 2.64.708 4.467 3.572 4.467.507 0 .942-.035 1.317-.105h2.148v-5.269H57.62l-.257 1.896h1.505v.223c0 .917.001 1.322-1.118 1.322-1.074 0-1.44-.494-1.44-2.462 0-2.05.613-2.298 1.532-2.298.685 0 1.168.176 1.568.4l1.25-1.945c-.661-.424-1.628-.706-2.71-.706-3.018 0-3.985 1.45-3.985 4.477zM31.201 32.19v-8.734h5.797v2.133h-3.512v1.145h2.587l-.282 2.07h-2.305v1.31h3.512v2.076H31.2z" fill="#80808E"/></svg>