<svg width="24" height="24" viewBox="0 0 24 24" xmlns="http://www.w3.org/2000/svg">
  <mask id="mask-instagram" mask-type="alpha" maskUnits="userSpaceOnUse" x="0" y="0" width="24" height="24">
    <path fill-rule="evenodd" clip-rule="evenodd" d="M6.9816 0H17.0172C20.8584 0 24 3.0576 24 6.7956V17.2032C24 20.9412 20.8584 24 17.0172 24H6.9816C3.1428 24 0 20.9412 0 17.2032V6.7956C0 3.0576 3.1428 0 6.9816 0ZM3.35533 20.7349C4.33093 21.6817 5.61733 22.2049 6.98173 22.2049H17.0173C18.3829 22.2049 19.6705 21.6817 20.6449 20.7349C21.6181 19.7881 22.1557 18.5317 22.1557 17.2033V6.79574C22.1557 5.46854 21.6181 4.21574 20.6449 3.26654C19.6705 2.31974 18.3829 1.79414 17.0173 1.79414H6.98173C5.61733 1.79414 4.33093 2.31974 3.35533 3.26654C2.38213 4.21574 1.84453 5.46854 1.84453 6.79574V17.2033C1.84453 18.5317 2.38213 19.7881 3.35533 20.7349ZM17.1867 5.37595C17.1867 4.53355 17.8887 3.85195 18.7515 3.85195C19.6167 3.85195 20.3163 4.53355 20.3163 5.37595C20.3163 6.21715 19.6167 6.89635 18.7515 6.89635C17.8887 6.89635 17.1867 6.21715 17.1867 5.37595ZM5.42988 11.9076C5.42988 8.35441 8.38908 5.47441 12.0371 5.47441C15.6863 5.47441 18.6455 8.35441 18.6455 11.9076C18.6455 15.4596 15.6863 18.3396 12.0371 18.3396C8.38908 18.3396 5.42988 15.4596 5.42988 11.9076ZM7.67871 11.9112C7.67871 14.238 9.61551 16.1256 12.0071 16.1256C14.3951 16.1256 16.3319 14.238 16.3319 11.9112C16.3319 9.58676 14.3951 7.70156 12.0071 7.70156C9.61551 7.70156 7.67871 9.58676 7.67871 11.9112Z" />
  </mask>
  <g mask="url(#mask-instagram)">
    <path fill-rule="evenodd" clip-rule="evenodd" d="M-5.99902 30H30.001V-6H-5.99902V30Z" />
  </g>
</svg>
