<svg width="131" height="40" viewBox="0 0 131 40" fill="none" xmlns="http://www.w3.org/2000/svg"><path d="M5.003 18.664l2.686-3.918c.504-.727 1.175-1.09 1.987-1.09.671 0 1.23.223 1.707.699.475.475.727 1.035.727 1.678 0 .476-.14.896-.392 1.287l-2.434 3.526 2.966 3.777c.308.364.448.812.448 1.316 0 .671-.224 1.23-.7 1.706s-1.035.728-1.707.728c-.727 0-1.287-.224-1.679-.7l-3.637-4.532v2.518c0 .727-.112 1.259-.364 1.679-.447.727-1.119 1.09-1.986 1.09-.784 0-1.4-.251-1.82-.783-.39-.56-.587-1.203-.587-2.014v-9.29c0-.755.196-1.399.616-1.903.42-.503 1.035-.783 1.79-.783.728 0 1.316.28 1.791.784.28.28.448.587.504.867.056.196.056.532.056 1.035v2.323h.028zm13.375-2.043v8.982c0 .783-.196 1.427-.616 1.93-.42.56-1.035.84-1.79.84-.7 0-1.288-.252-1.763-.784-.392-.42-.616-1.09-.616-1.986V16.62c0-1.007.196-1.735.616-2.182.475-.532 1.063-.784 1.79-.784.728 0 1.315.252 1.763.756.42.475.616 1.203.616 2.21zm8.618-3.246c1.763 0 3.385.588 4.868 1.763 1.148.923 1.735 1.903 1.735 2.91 0 .84-.364 1.511-1.063 1.987-.392.28-.84.391-1.315.391-.392 0-.756-.084-1.12-.28-.14-.083-.503-.447-1.09-1.063-.532-.587-1.232-.895-2.043-.895-.784 0-1.455.28-1.987.811a2.834 2.834 0 00-.811 2.015c0 .783.28 1.455.811 2.015.532.56 1.203.811 1.987.811.643 0 1.259-.224 1.819-.671.335-.336.699-.672 1.035-1.008.364-.308.84-.476 1.399-.476.643 0 1.203.224 1.707.672.475.448.727 1.007.727 1.65 0 .896-.532 1.792-1.567 2.687-1.455 1.287-3.134 1.903-5.064 1.903a7.748 7.748 0 01-3.358-.756c-1.315-.643-2.378-1.567-3.162-2.798a7.385 7.385 0 01-1.175-4.057c0-2.183.811-4.057 2.434-5.596 1.427-1.315 3.162-1.987 5.233-2.015zm12.255 5.289l2.686-3.918c.504-.727 1.176-1.09 1.987-1.09.672 0 1.231.223 1.707.699.475.475.727 1.035.727 1.678 0 .476-.14.896-.391 1.287l-2.435 3.526 2.966 3.777c.308.364.448.812.448 1.316 0 .671-.224 1.23-.7 1.706-.475.476-1.035.728-1.706.728-.728 0-1.288-.224-1.68-.7l-3.637-4.532v2.518c0 .727-.112 1.259-.363 1.679-.448.727-1.12 1.09-1.987 1.09-.783 0-1.4-.251-1.819-.783-.392-.475-.615-1.147-.615-1.93V16.34c0-.755.196-1.399.615-1.903a2.387 2.387 0 011.819-.783c.727 0 1.315.252 1.819.784.28.28.447.587.503.867.056.196.056.532.056 1.035v2.323zM49.94 22.777c.532 0 1.091.224 1.707.7.755.587 1.259.867 1.539.867.42 0 .615-.224.615-.644 0-.224-.112-.42-.364-.587-.14-.084-.839-.364-2.154-.812-2.127-.755-3.19-2.127-3.19-4.169 0-1.539.56-2.742 1.679-3.61 1.007-.755 2.21-1.147 3.666-1.147 1.259 0 2.35.308 3.273.896.924.587 1.4 1.37 1.4 2.322 0 .56-.169 1.035-.532 1.427-.364.392-.812.56-1.371.56-.588 0-1.232-.28-1.96-.84-.447-.335-.782-.531-1.006-.531-.392 0-.588.195-.588.56 0 .363.476.699 1.455.979 1.343.42 2.35.923 3.078 1.538.98.812 1.455 1.931 1.455 3.386 0 1.595-.532 2.826-1.623 3.722-1.007.839-2.322 1.23-3.945 1.23-1.623 0-2.966-.419-4.03-1.286-.839-.7-1.287-1.483-1.287-2.407 0-.615.196-1.119.616-1.539.448-.391.951-.615 1.567-.615zm12.787-4.561h-1.26c-.699 0-1.286-.196-1.734-.56-.475-.42-.727-.951-.727-1.65 0-.42.112-.812.335-1.176.224-.392.532-.643.896-.811.363-.168 1.23-.252 2.602-.252h4.813c1.175 0 1.958.084 2.294.224.392.168.7.42.923.811.224.392.364.784.364 1.203 0 .672-.252 1.232-.783 1.707-.364.336-.98.532-1.847.532h-1.091v7.219c0 .783-.14 1.399-.392 1.819-.448.727-1.12 1.09-1.959 1.09-.867 0-1.51-.335-1.986-.978-.28-.42-.448-1.036-.448-1.875v-7.303zm11.612 8.17c-.224.532-.448.952-.7 1.203-.475.532-1.063.784-1.762.784-.84 0-1.511-.336-1.959-1.007a2.338 2.338 0 01-.42-1.372c0-.42.112-.839.308-1.259l4.533-9.653c.448-.951 1.175-1.399 2.21-1.399 1.036 0 1.791.476 2.239 1.455l4.589 9.71c.196.391.28.783.28 1.146 0 .56-.196 1.064-.56 1.512-.476.587-1.091.867-1.847.867-.615 0-1.119-.196-1.539-.56-.307-.28-.615-.755-.923-1.399h-4.449v-.028zm19.866-3.721l1.12 1.819c.307.503.475 1.007.475 1.538 0 .672-.224 1.232-.7 1.68a2.388 2.388 0 01-1.706.67c-.868 0-1.511-.363-1.959-1.09l-1.986-3.274v1.959c0 .671-.224 1.23-.672 1.706-.448.476-1.007.7-1.679.7-.811 0-1.455-.28-1.874-.896-.392-.503-.56-1.203-.56-2.042v-8.926c0-1.847.98-2.742 2.966-2.742h3.05c1.007 0 1.93.28 2.77.867.867.588 1.483 1.316 1.874 2.239.308.7.448 1.399.448 2.098 0 1.316-.531 2.547-1.567 3.694zm5.68-4.45h-1.259c-.7 0-1.287-.195-1.735-.559-.475-.42-.727-.951-.727-1.65 0-.42.112-.812.336-1.176.224-.392.531-.643.895-.811.364-.168 1.231-.252 2.602-.252h4.813c1.175 0 1.959.084 2.294.224.392.168.7.42.924.811.224.392.364.784.364 1.203 0 .672-.252 1.232-.784 1.707-.364.336-.979.532-1.847.532h-1.091v7.219c0 .783-.14 1.399-.392 1.819-.447.727-1.119 1.09-1.958 1.09-.868 0-1.511-.335-1.987-.978-.28-.42-.448-1.036-.448-1.875v-7.303zm14.159 5.569h2.182c.895 0 1.567.196 2.015.56.503.447.783 1.007.783 1.706 0 .7-.252 1.288-.783 1.707-.392.336-1.064.504-1.987.504h-3.721c-.868 0-1.483-.056-1.819-.196-.644-.252-1.063-.7-1.259-1.287-.14-.392-.196-1.007-.196-1.875v-7.89c0-.672.028-1.092.056-1.315.084-.448.252-.84.559-1.175.336-.364.784-.588 1.288-.7.251-.056.755-.056 1.511-.056h2.854c.783 0 1.231 0 1.371.028.503.056.923.196 1.259.448.587.447.867 1.007.867 1.707 0 .755-.252 1.343-.755 1.762-.448.364-1.064.532-1.847.532h-2.35v.98h1.874c.56 0 1.008.14 1.371.447.392.308.56.727.56 1.287 0 1.147-.7 1.735-2.099 1.735h-1.706v1.091h-.028zm15.361-1.12l1.119 1.82c.308.503.476 1.007.476 1.538 0 .672-.224 1.232-.7 1.68a2.386 2.386 0 01-1.706.67c-.868 0-1.511-.363-1.959-1.09l-1.987-3.274v1.959a2.39 2.39 0 01-.671 1.706c-.448.476-1.008.7-1.679.7-.812 0-1.455-.28-1.875-.896-.392-.503-.559-1.203-.559-2.042v-8.926c0-1.847.979-2.742 2.966-2.742h3.049c1.008 0 1.931.28 2.771.867.867.588 1.482 1.316 1.874 2.239.308.7.448 1.399.448 2.098 0 1.316-.532 2.547-1.567 3.694z" fill="#80808E"/></svg>