<svg width="41" height="42" viewBox="0 0 41 42" fill="none" xmlns="http://www.w3.org/2000/svg">
<path fill-rule="evenodd" clip-rule="evenodd" d="M40.1862 10.1513C40.2008 10.2053 40.2083 10.261 40.2084 10.3169V19.0132C40.2084 19.1248 40.179 19.2344 40.123 19.331C40.0671 19.4276 39.9866 19.5077 39.8898 19.5632L32.5909 23.7655V32.0947C32.5909 32.3214 32.4704 32.5307 32.2739 32.6448L17.0381 41.4155C17.0032 41.4353 16.9651 41.448 16.9271 41.4615C16.9128 41.4662 16.8994 41.475 16.8843 41.4789C16.7778 41.507 16.6658 41.507 16.5593 41.4789C16.5419 41.4742 16.5261 41.4647 16.5094 41.4583C16.4745 41.4456 16.4381 41.4345 16.4048 41.4155L1.17213 32.6448C1.07537 32.5892 0.994961 32.5091 0.939023 32.4125C0.883086 32.3159 0.853592 32.2063 0.853516 32.0947L0.853516 6.00608C0.853516 5.94901 0.861441 5.89353 0.875708 5.83964C0.880463 5.82141 0.89156 5.80476 0.8979 5.78653C0.909789 5.75325 0.920885 5.71917 0.938322 5.68825C0.950211 5.66765 0.967648 5.651 0.981914 5.63198C1.00014 5.60662 1.01679 5.58046 1.03819 5.55827C1.05642 5.54004 1.08019 5.52657 1.1008 5.51072C1.12379 5.49169 1.14439 5.47109 1.17055 5.45603H1.17134L8.78806 1.07067C8.88451 1.01517 8.99383 0.985962 9.1051 0.985962C9.21637 0.985962 9.32569 1.01517 9.42213 1.07067L17.0389 5.45603H17.0404C17.0658 5.47188 17.0872 5.49169 17.1102 5.50992C17.1308 5.52577 17.1538 5.54004 17.172 5.55748C17.1942 5.58046 17.21 5.60662 17.2291 5.63198C17.2425 5.651 17.2608 5.66765 17.2719 5.68825C17.2901 5.71996 17.3004 5.75325 17.3131 5.78653C17.3194 5.80476 17.3305 5.82141 17.3353 5.84043C17.3499 5.89444 17.3573 5.95013 17.3575 6.00608V22.3008L23.7045 18.6462V10.3161C23.7045 10.2607 23.7124 10.2044 23.7267 10.1513C23.7322 10.1323 23.7425 10.1156 23.7489 10.0974C23.7615 10.0641 23.7726 10.03 23.7901 9.99911C23.802 9.97851 23.8194 9.96186 23.8329 9.94284C23.8519 9.91748 23.8677 9.89132 23.8899 9.86913C23.9082 9.8509 23.9312 9.83743 23.9518 9.82157C23.9755 9.80255 23.9961 9.78195 24.0215 9.76689H24.0223L31.6398 5.38152C31.7362 5.32595 31.8456 5.2967 31.9568 5.2967C32.0681 5.2967 32.1775 5.32595 32.2739 5.38152L39.8906 9.76689C39.9175 9.78274 39.9382 9.80255 39.9619 9.82078C39.9817 9.83663 40.0047 9.8509 40.023 9.86834C40.0452 9.89132 40.061 9.91748 40.08 9.94284C40.0943 9.96186 40.1117 9.97851 40.1228 9.99911C40.1411 10.03 40.1514 10.0641 40.164 10.0974C40.1712 10.1156 40.1815 10.1323 40.1862 10.1513ZM38.9387 18.6462V11.4147L36.2733 12.9491L32.5909 15.0693V22.3008L38.9395 18.6462H38.9387ZM31.322 31.7278V24.4915L27.6999 26.5601L17.3567 32.4633V39.7677L31.322 31.7278ZM2.12323 7.10381V31.7278L16.087 39.7669V32.4641L8.79203 28.3355L8.78965 28.3339L8.78648 28.3323C8.76191 28.3181 8.7413 28.2975 8.71832 28.28C8.6985 28.2642 8.67552 28.2515 8.65808 28.2341L8.65649 28.2317C8.63589 28.2119 8.62162 28.1873 8.60418 28.1651C8.58833 28.1437 8.56931 28.1255 8.55663 28.1033L8.55584 28.1009C8.54157 28.0771 8.53285 28.0486 8.52255 28.0217C8.51224 27.9979 8.49877 27.9757 8.49243 27.9503V27.9495C8.4845 27.9194 8.48292 27.8877 8.47975 27.8568C8.47658 27.833 8.47024 27.8092 8.47024 27.7855V27.7839V10.7584L4.78869 8.63746L2.12323 7.1046V7.10381ZM9.10589 2.35307L2.75968 6.00608L9.1043 9.65909L15.4497 6.00529L9.1043 2.35307H9.10589ZM12.4062 25.1509L16.0878 23.0316V7.10381L13.4223 8.63825L9.73995 10.7584V26.6862L12.4062 25.1509ZM31.9568 6.66392L25.6114 10.3169L31.9568 13.97L38.3015 10.3161L31.9568 6.66392ZM31.322 15.0693L27.6397 12.9491L24.9742 11.4147V18.6462L28.6557 20.7656L31.322 22.3008V15.0693ZM16.721 31.3656L26.0283 26.0521L30.6808 23.3969L24.3401 19.7463L17.0396 23.9494L10.3859 27.7799L16.721 31.3656Z" fill="white"/>
</svg>
