<svg width="57" height="57" viewBox="0 0 57 57" fill="none" xmlns="http://www.w3.org/2000/svg">
<path d="M28.2637 55.4155C43.1754 55.4155 55.2637 43.3272 55.2637 28.4155C55.2637 13.5038 43.1754 1.41553 28.2637 1.41553C13.352 1.41553 1.26367 13.5038 1.26367 28.4155C1.26367 43.3272 13.352 55.4155 28.2637 55.4155Z" stroke="white" stroke-width="2" stroke-miterlimit="10"/>
<path d="M37.2125 15.6104C37.2125 13.9132 35.8239 12.5247 34.1268 12.5247H21.1668C19.4696 12.5247 18.0811 13.9132 18.0811 15.6104V41.3761C18.0811 43.0732 19.4696 44.4618 21.1668 44.4618H34.1268C35.8239 44.4618 37.2125 43.0732 37.2125 41.3761V15.6104Z" stroke="white" stroke-width="2" stroke-miterlimit="10"/>
<path d="M18.6201 19.3903C20.0087 18.696 21.5515 18.3103 23.2487 18.3103C28.803 18.3103 33.3544 22.8618 33.3544 28.416C33.3544 33.9703 28.803 38.5217 23.2487 38.5217C21.5515 38.5217 20.0087 38.1361 18.6201 37.4418" stroke="white" stroke-width="2" stroke-miterlimit="10"/>
<path d="M23.249 44.3067V38.521" stroke="white" stroke-width="2" stroke-miterlimit="10"/>
<path d="M23.249 18.3104V12.5247" stroke="white" stroke-width="2" stroke-miterlimit="10"/>
<path d="M18.0811 28.416H37.2125" stroke="white" stroke-width="2" stroke-miterlimit="10"/>
<path d="M37.52 42.6098L30.4229 35.5898" stroke="white" stroke-width="2" stroke-miterlimit="10"/>
<path d="M30.4229 21.2415L37.4429 14.2214" stroke="white" stroke-width="2" stroke-miterlimit="10"/>
</svg>
