<svg width="23" height="47" viewBox="0 0 23 47" fill="none" xmlns="http://www.w3.org/2000/svg">
<g clip-path="url(#clip0)">
<path d="M9.23098 8.55992C10.3006 7.74025 11.0823 6.42877 11.0823 6.42877C11.0823 6.42877 11.864 7.74025 12.9336 8.55992C13.9622 9.37959 20.627 15.1993 20.627 26.6747C20.627 37.6583 12.8102 41.8796 12.1931 42.2075L11.0823 17.1255L11.0412 16.1009L9.97151 42.2075C9.3544 41.8796 1.49652 37.6583 1.49652 26.6747C1.49652 15.1993 8.16132 9.37959 9.23098 8.55992Z" fill="white"/>
<path d="M9.97195 42.1665C10.0131 42.2066 9.97195 42.2066 9.97195 42.1665V42.1665Z" fill="#606060"/>
<path d="M9.93087 42.2075H12.1113V46.4288H9.93087V42.2075Z" fill="white"/>
</g>
<defs>
<clipPath id="clip0">
<rect width="22" height="46" fill="white" transform="matrix(-1 0 0 1 22.0615 0.428772)"/>
</clipPath>
</defs>
</svg>
