<svg width="23" height="47" viewBox="0 0 23 47" fill="none" xmlns="http://www.w3.org/2000/svg">
<g clip-path="url(#clip0)">
<path d="M19.9899 22.5475C17.7528 12.7282 13.1521 10.1041 11.9702 8.28416C11.2949 7.26837 10.6618 5.74469 10.6618 5.74469C10.6195 6.59118 10.4929 7.18372 9.73317 7.81859C8.25586 9.13065 1.96676 14.2942 1.46026 25.4256C0.953755 35.7951 9.05783 42.2284 10.1553 42.9056C10.9994 43.3288 11.9702 42.9056 12.4767 42.5247C16.3599 39.8582 21.7204 32.6631 19.9899 22.5475Z" fill="#10AA50"/>
<path d="M10.9967 37.3611C10.7857 39.9429 10.6591 41.4242 10.1104 42.9056C10.2792 44.5986 10.4902 46.2492 10.7013 47.9422H11.5454C11.8409 45.0218 12.474 42.5247 12.474 42.5247C11.3766 41.9745 11.0389 39.6043 10.9967 37.3611Z" fill="#B8C4C2"/>
<path d="M12.4745 42.5247C11.3771 42.0168 11.0394 39.6043 10.9972 37.3611C11.2504 34.3137 11.3771 30.3775 11.2504 26.2721C11.2082 24.3251 11.2926 8.28415 10.7861 5.9563C10.9972 6.42187 11.5037 7.47998 11.968 8.28415C13.1498 10.1464 17.7506 12.7282 19.9876 22.5475C21.676 32.6631 16.3999 39.8159 12.4745 42.5247Z" fill="#12924F"/>
</g>
<defs>
<clipPath id="clip0">
<rect width="22" height="46" fill="white" transform="matrix(-1 0 0 1 22.0615 0.428772)"/>
</clipPath>
</defs>
</svg>
