<svg width="40" height="39" viewBox="0 0 40 39" fill="none" xmlns="http://www.w3.org/2000/svg">
<path fill-rule="evenodd" clip-rule="evenodd" d="M9.39813 6.77108C9.03873 6.71365 8.50053 6.71369 8.21484 6.7711V6.8285H8.27198C8.50053 7.23034 8.73932 7.62878 9.025 7.97321C9.25355 8.37504 9.52898 8.78026 9.75753 9.18209L9.81467 9.12469C10.2146 8.83767 10.3864 8.37948 10.3864 7.91919C10.3864 7.4589 10.3259 7.34875 10.1545 7.17653C9.92592 6.94692 9.75753 6.8285 9.39813 6.77108Z" fill="white"/>
<path fill-rule="evenodd" clip-rule="evenodd" d="M36.5552 29.9625C34.4412 29.9051 32.7842 30.1347 31.3558 30.7088C30.9558 30.881 30.3273 30.881 30.2702 31.3976C30.4987 31.6272 30.4987 31.9717 30.7273 32.2587C31.0701 32.7753 31.5843 33.5216 32.0986 33.9234C32.6699 34.3253 33.2413 34.7845 33.8127 35.1863C34.8411 35.8178 36.041 36.2196 37.0694 36.8511C37.6408 37.2529 38.2693 37.7121 38.8407 38.114C39.1264 38.3436 39.2978 38.688 39.6977 38.8028V38.7454C39.5263 38.5158 39.4692 38.1714 39.2978 37.8843C39.0121 37.5973 38.7835 37.3677 38.4979 37.0807C37.6979 36.0474 36.7838 35.1289 35.6982 34.3827C34.8411 33.8086 32.9556 33.0049 32.6128 31.9717C32.6128 31.9717 32.6128 31.9717 32.5557 31.9143C33.127 31.8569 33.8127 31.6272 34.384 31.455C35.2982 31.2254 36.0981 31.2828 37.0694 31.0532C37.5265 30.9384 37.9265 30.8236 38.3836 30.6514V30.4217C37.9265 29.9625 37.5265 29.2736 37.0694 28.8144C35.6982 27.6089 34.2126 26.4608 32.6699 25.4849C31.8129 24.9683 30.7844 24.6239 29.8702 24.1646C29.5274 23.9924 29.0132 23.935 28.8418 23.648C28.3847 23.0739 28.099 22.2703 27.7562 21.5814C26.9563 20.0889 26.2135 18.4816 25.585 16.9316C25.1279 15.8984 24.7851 14.8651 24.2137 13.8892C21.4711 9.29681 18.4429 6.54139 13.872 3.84337C12.9007 3.26933 11.7008 3.03971 10.4438 2.75268C9.75814 2.75268 9.12964 2.69528 8.444 2.63787C7.98691 2.46566 7.58695 1.94902 7.18699 1.7194C5.6443 0.743519 1.75901 -1.32305 0.616279 1.43238C-0.126497 3.15452 1.70188 4.87666 2.27324 5.79513C2.73033 6.42658 3.3017 7.11544 3.64452 7.80429C3.81593 8.26353 3.87307 8.72277 4.10162 9.23941C4.50157 10.4449 4.90153 11.7652 5.47289 12.8559C5.75857 13.43 6.1014 14.004 6.44422 14.5206C6.67276 14.8077 7.01558 14.9225 7.12986 15.4391C6.7299 15.9558 6.7299 16.7594 6.50135 17.4483C5.53003 20.4907 5.92999 24.222 7.30127 26.4608C7.70122 27.1497 8.72968 28.5848 10.101 28.0681C11.3008 27.6089 11.0151 26.059 11.358 24.7387C11.4151 24.3942 11.358 24.222 11.5294 23.9924V24.0498C11.9293 24.7961 12.2722 25.5423 12.615 26.2886C13.472 27.6089 14.729 29.2115 15.9289 30.1299C16.5574 30.5892 17.243 31.2254 18.0429 31.5124V31.455H17.9287C17.7573 31.2254 17.372 30.8735 17.1435 30.7013C16.6864 30.242 16.2717 29.8477 15.9289 29.331C14.7862 27.8385 13.8148 26.1738 12.9578 24.4516C12.5007 23.5906 12.1579 22.7295 11.8151 21.8684C11.6437 21.524 11.6436 21.0648 11.4151 20.8926C11.0151 21.4666 10.4438 21.9832 10.1581 22.7295C9.64387 23.8776 9.58673 25.3127 9.41532 26.8052C9.30105 26.8052 9.35818 26.8052 9.30105 26.8626C8.444 26.633 8.15832 25.772 7.8155 25.0257C7.01558 23.1313 6.90131 20.0315 7.58695 17.8501C7.75836 17.2761 8.55827 15.4965 8.27259 14.9799C8.10118 14.4632 7.58695 14.1762 7.30127 13.7744C6.95845 13.2577 6.55849 12.6263 6.32994 12.0522C5.70144 10.5597 5.35862 8.89498 4.67298 7.40246C4.33016 6.7136 3.81593 5.96734 3.35884 5.33589C2.84461 4.58963 2.27324 4.07299 1.87329 3.26932C1.75901 2.9823 1.53047 2.46566 1.75901 2.17864C1.81615 1.94902 1.93042 1.89161 2.15897 1.83421C2.50179 1.54718 3.47311 1.89161 3.81593 2.06383C4.78726 2.46566 5.6443 2.86749 6.44422 3.38413C6.84417 3.67116 7.24413 4.1878 7.70122 4.30261H8.27259C9.12964 4.47482 10.101 4.36001 10.9009 4.58963C12.3293 5.04887 13.5863 5.73773 14.729 6.42658C18.2144 8.66536 21.1283 11.8226 23.071 15.6113C23.4138 16.2428 23.5281 16.8168 23.8138 17.4483C24.3851 18.7686 25.0708 20.0889 25.6421 21.4092C26.2135 22.6721 26.7277 23.935 27.5276 25.0257C27.9276 25.5997 29.5274 25.8868 30.2702 26.1738C30.7844 26.4034 31.6415 26.633 32.0986 26.9201C33.0127 27.4941 33.9269 28.1255 34.784 28.757C35.1268 28.757 36.4981 29.4459 36.5552 29.9625Z" fill="white"/>
</svg>
