<svg width="68" height="41" viewBox="0 0 68 41" fill="none" xmlns="http://www.w3.org/2000/svg">
<g clip-path="url(#clip0)">
<path d="M16.4674 11.0317H28.9911V12.0252H17.6154V19.5032H28.3127V20.4968H17.6154V28.7068H29.1215V29.7004H16.4674V11.0317ZM30.113 11.0317H31.4436L37.3402 19.2417L43.3672 11.0317L51.5649 0.603027L38.0968 20.1046L45.037 29.7004H43.6542L37.3402 20.9674L31.0001 29.7004H29.6433L36.6357 20.1046L30.113 11.0317ZM45.5327 12.0252V11.0317H59.8045V12.0252H53.2295V29.7004H52.0815V12.0252H45.5327ZM0.799805 11.0317H2.23481L22.0226 40.588L13.8453 29.7004L1.99999 12.4436L1.94781 29.7004H0.799805V11.0317ZM59.6888 28.407C59.4542 28.407 59.2783 28.2256 59.2783 27.9912C59.2783 27.7567 59.4542 27.5753 59.6888 27.5753C59.9261 27.5753 60.0992 27.7567 60.0992 27.9912C60.0992 28.2256 59.9261 28.407 59.6888 28.407ZM60.8168 27.313H61.4311C61.4395 27.6451 61.6824 27.8684 62.0398 27.8684C62.4391 27.8684 62.6653 27.6284 62.6653 27.1791V24.3325H63.2907V27.1818C63.2907 27.9912 62.8216 28.4572 62.0454 28.4572C61.3166 28.4572 60.8168 28.0051 60.8168 27.313ZM64.1088 27.2767H64.7287C64.7818 27.6591 65.1559 27.9018 65.6948 27.9018C66.1974 27.9018 66.566 27.6423 66.566 27.2851C66.566 26.9781 66.3314 26.7939 65.7981 26.6684L65.2788 26.5428C64.55 26.3725 64.2177 26.0209 64.2177 25.4293C64.2177 24.7121 64.8041 24.2348 65.6836 24.2348C66.5018 24.2348 67.0993 24.7121 67.1356 25.3902H66.5269C66.4682 25.019 66.1444 24.7874 65.6753 24.7874C65.181 24.7874 64.8516 25.0246 64.8516 25.3874C64.8516 25.6749 65.0638 25.8395 65.5887 25.9623L66.0327 26.0711C66.8592 26.2637 67.1998 26.5986 67.1998 27.2042C67.1998 27.9744 66.6023 28.4572 65.6473 28.4572C64.7538 28.4572 64.1535 27.9967 64.1088 27.2767Z" fill="white"/>
</g>
<defs>
<clipPath id="clip0">
<rect width="66.4" height="40" fill="white" transform="translate(0.799805 0.603027)"/>
</clipPath>
</defs>
</svg>
