<svg width="41" height="41" viewBox="0 0 41 41" fill="none" xmlns="http://www.w3.org/2000/svg">
<g clip-path="url(#clip0)">
<path d="M30.3757 37.8211C30.227 37.8998 30.2395 37.9248 30.382 37.8523C30.4282 37.8336 30.467 37.8073 30.5007 37.7761C30.5007 37.7498 30.5007 37.7498 30.3757 37.8211ZM30.6757 37.6586C30.6045 37.7173 30.6045 37.7173 30.6895 37.6786C30.7345 37.6523 30.7745 37.6273 30.7745 37.6198C30.7745 37.5861 30.7545 37.5936 30.6757 37.6586ZM30.8707 37.5411C30.7995 37.5998 30.7995 37.5998 30.8845 37.5611C30.9307 37.5348 30.9695 37.5073 30.9695 37.5011C30.9695 37.4698 30.9495 37.4761 30.8707 37.5411ZM31.0682 37.4248C30.997 37.4836 30.997 37.4836 31.0795 37.4436C31.1257 37.4186 31.1645 37.3923 31.1645 37.3848C31.1645 37.3536 31.1445 37.3598 31.0682 37.4248ZM31.3345 37.2486C31.1982 37.3398 31.1507 37.3986 31.2757 37.3336C31.3595 37.2823 31.502 37.1698 31.477 37.1698C31.4232 37.1898 31.3782 37.2236 31.3332 37.2486H31.3345ZM19.3807 0.328585C19.2895 0.334835 19.0157 0.359835 18.7757 0.379835C13.0907 0.894835 7.77195 3.95483 4.4007 8.66858C2.53695 11.2523 1.32695 14.2536 0.870703 17.4048C0.709453 18.5048 0.689453 18.8298 0.689453 20.3211C0.689453 21.8111 0.709453 22.1311 0.870703 23.2311C1.95945 30.7448 7.30445 37.0523 14.5495 39.3898C15.8532 39.8061 17.2195 40.0936 18.7757 40.2698C19.3807 40.3348 21.997 40.3348 22.602 40.2698C25.292 39.9698 27.5632 39.3061 29.8107 38.1598C30.1557 37.9848 30.2207 37.9386 30.1745 37.8998C29.0745 36.4486 27.9945 34.9961 26.9132 33.5311L23.717 29.2148L19.7132 23.2836C18.3782 21.2986 17.0382 19.3186 15.677 17.3536C15.6632 17.3536 15.6457 19.9898 15.6382 23.2048C15.6245 28.8361 15.6245 29.0648 15.5532 29.1948C15.482 29.3511 15.3645 29.4811 15.2082 29.5536C15.0845 29.6123 14.9732 29.6248 14.382 29.6248H13.7057L13.5295 29.5148C13.4195 29.4436 13.3282 29.3448 13.2695 29.2286L13.1845 29.0523L13.1907 21.2136L13.2045 13.3748L13.3282 13.2186C13.407 13.1223 13.5045 13.0436 13.6145 12.9848C13.7782 12.9061 13.8432 12.8936 14.5195 12.8936C15.3132 12.8936 15.4445 12.9248 15.6532 13.1536C17.2732 15.5686 18.8882 17.9898 20.477 20.4186C23.0757 24.3586 26.6232 29.7348 28.367 32.3723L31.5382 37.1711L31.6945 37.0673C33.2182 36.0511 34.6045 34.8411 35.8007 33.4611C38.3207 30.5761 39.9557 27.0273 40.5095 23.2398C40.6707 22.1398 40.6907 21.8136 40.6907 20.3236C40.6907 18.8323 40.6707 18.5136 40.5095 17.4136C39.4207 9.89984 34.0757 3.59233 26.8307 1.25358C25.4757 0.824835 24.082 0.532335 22.6707 0.382335C22.292 0.343585 19.707 0.297335 19.382 0.331085L19.3807 0.328585ZM27.5645 12.4248C27.7532 12.5148 27.8957 12.6848 27.9607 12.8798C27.9945 12.9848 28.0007 15.1586 27.9945 20.0548L27.9807 27.0848L26.7445 25.1848L25.5007 23.2836V18.1798C25.5007 14.8711 25.5145 13.0161 25.532 12.9248C25.5907 12.7161 25.7332 12.5411 25.9232 12.4311C26.0782 12.3523 26.1382 12.3461 26.757 12.3461C27.3357 12.3461 27.4332 12.3523 27.5632 12.4248H27.5645Z" fill="white"/>
</g>
<defs>
<clipPath id="clip0">
<rect width="40" height="40" fill="white" transform="translate(0.689453 0.314575)"/>
</clipPath>
</defs>
</svg>
