<svg width="36" height="41" viewBox="0 0 36 41" fill="none" xmlns="http://www.w3.org/2000/svg">
<path d="M35.5346 12.4617V29.3965C35.5346 29.8372 35.4411 30.2646 35.2675 30.6519C35.007 31.2395 34.5663 31.7404 33.9987 32.0676L19.3277 40.535C19.1006 40.6618 18.8469 40.762 18.5931 40.8288C18.346 40.8956 18.0856 40.929 17.8318 40.929C17.8252 40.929 17.8118 40.929 17.8051 40.929H17.7985C17.2576 40.929 16.7167 40.8021 16.2492 40.535L1.59155 32.0676C1.1842 31.8339 0.843641 31.5066 0.583208 31.126C0.242643 30.6252 0.0556641 30.0242 0.0556641 29.3965V12.455C0.0556641 11.5869 0.422941 10.7655 1.03729 10.1912C1.20424 10.0377 1.39121 9.89743 1.59155 9.7839L16.2626 1.32319C16.7233 1.06276 17.2509 0.935877 17.7851 0.929199C17.7918 0.929199 17.7918 0.929199 17.7918 0.929199C17.8118 0.929199 17.8385 0.929199 17.8586 0.929199C18.3794 0.935877 18.8936 1.06943 19.341 1.32319L33.9987 9.79058C34.2591 9.93749 34.4862 10.1245 34.6865 10.3315C35.2207 10.8991 35.5346 11.6604 35.5346 12.4617Z" fill="url(#paint0_linear)"/>
<path fill-rule="evenodd" clip-rule="evenodd" d="M17.8499 40.5753L17.8299 40.9292C17.8232 40.9292 17.8099 40.9292 17.8032 40.9292H17.7965C17.2556 40.9292 16.7147 40.8024 16.2473 40.5352L1.58959 32.0679C1.18225 31.8341 0.841688 31.5069 0.581255 31.1263C0.24069 30.6255 0.0537109 30.0245 0.0537109 29.3967V12.4553C0.0537109 11.5872 0.420988 10.7658 1.03534 10.1915L1.229 10.2984L6.77821 20.4085L17.8499 40.5753Z" fill="url(#paint1_linear)"/>
<path fill-rule="evenodd" clip-rule="evenodd" d="M35.5316 12.4617V29.3965C35.5316 29.8372 35.4382 30.2646 35.2645 30.6519C35.0175 30.3314 34.8705 30.1377 34.8705 30.1377L29.141 20.2947L17.8623 0.929199C18.3832 0.935877 18.8974 1.06943 19.3448 1.32319L33.9958 9.79058C34.2562 9.93749 34.4832 10.1245 34.6836 10.3315C35.2178 10.8991 35.5316 11.6604 35.5316 12.4617Z" fill="url(#paint2_linear)"/>
<path fill-rule="evenodd" clip-rule="evenodd" d="M17.8487 40.5753L17.8287 40.9293C17.822 40.9293 17.8087 40.9293 17.802 40.9293H17.7953C17.2544 40.9293 16.7135 40.8024 16.2461 40.5353L1.58842 32.0679C1.18107 31.8342 0.840511 31.5069 0.580078 31.1263L0.633499 30.9393L6.78371 20.4219L17.8487 40.5753Z" fill="url(#paint3_linear)"/>
<path fill-rule="evenodd" clip-rule="evenodd" d="M34.6836 10.3315L34.3964 10.672L29.141 20.2947L17.8623 0.929199C18.3832 0.935877 18.8974 1.06943 19.3448 1.32319L33.9958 9.79058C34.2495 9.93749 34.4832 10.1178 34.6836 10.3315Z" fill="url(#paint4_linear)"/>
<defs>
<linearGradient id="paint0_linear" x1="3.25926" y1="13.448" x2="32.1845" y2="29.8919" gradientUnits="userSpaceOnUse">
<stop stop-color="#6EBF47"/>
<stop offset="0.598721" stop-color="#6DA45E"/>
<stop offset="1" stop-color="#469345"/>
</linearGradient>
<linearGradient id="paint1_linear" x1="0.053711" y1="11.6653" x2="1.47425" y2="30.2884" gradientUnits="userSpaceOnUse">
<stop stop-color="#52914D"/>
<stop offset="1" stop-color="#5AAD45"/>
</linearGradient>
<linearGradient id="paint2_linear" x1="34.1621" y1="10.08" x2="35.5316" y2="30.6519" gradientUnits="userSpaceOnUse">
<stop stop-color="#3E863D"/>
<stop offset="1" stop-color="#50904B"/>
</linearGradient>
<linearGradient id="paint3_linear" x1="7.02043" y1="22.3636" x2="17.8488" y2="38.6093" gradientUnits="userSpaceOnUse">
<stop stop-color="#3E863D"/>
<stop offset="1" stop-color="#3E863D"/>
</linearGradient>
<linearGradient id="paint4_linear" x1="34.6836" y1="9.88192" x2="21.8788" y2="5.3252" gradientUnits="userSpaceOnUse">
<stop stop-color="#6CA35E"/>
<stop offset="1" stop-color="#629958"/>
</linearGradient>
</defs>
</svg>
