<svg width="84" height="33" viewBox="0 0 84 33" fill="none" xmlns="http://www.w3.org/2000/svg">
<path fill-rule="evenodd" clip-rule="evenodd" d="M17.9086 17.2552C17.9086 16.9087 17.7268 16.5897 17.425 16.4182L9.44285 11.8252C9.30907 11.7463 9.15814 11.7051 9.00378 11.6982H8.92145C8.76709 11.7051 8.61616 11.7463 8.47895 11.8252L0.500263 16.4182C0.201833 16.5897 0.0166016 16.9087 0.0166016 17.2552L0.0337527 29.6246C0.0337527 29.7961 0.122938 29.9573 0.273868 30.0396C0.421367 30.1288 0.606599 30.1288 0.754099 30.0396L5.49809 27.3229C5.79652 27.1445 5.98175 26.8289 5.98175 26.4859V20.7094C5.98175 20.363 6.16356 20.0474 6.46198 19.8759L8.48238 18.713C8.63331 18.6273 8.79796 18.5827 8.96604 18.5827C9.1307 18.5827 9.29878 18.6239 9.44628 18.713L11.4667 19.8759C11.7651 20.0474 11.9503 20.3664 11.9503 20.7094V26.4894C11.9503 26.8324 12.1356 27.148 12.434 27.3263L17.178 30.0431C17.3255 30.1322 17.5107 30.1322 17.6617 30.0431C17.8092 29.9573 17.9018 29.7995 17.9018 29.628L17.9086 17.2552Z" fill="white"/>
<path fill-rule="evenodd" clip-rule="evenodd" d="M61.0646 2.90321L56.3172 0.251647C56.1662 0.169322 55.9844 0.169322 55.8369 0.258507C55.6894 0.344263 55.6003 0.502053 55.6003 0.673564V12.9229C55.6003 13.0429 55.5351 13.1561 55.4322 13.2144C55.3293 13.2762 55.1989 13.2762 55.096 13.2144L53.0962 12.0619C52.7978 11.8904 52.4307 11.8904 52.1323 12.0619L44.1467 16.6687C43.8483 16.8402 43.6631 17.1592 43.6631 17.5022V26.7227C43.6631 27.0691 43.8483 27.3847 44.1467 27.5562L52.1323 32.1664C52.4307 32.3379 52.7978 32.3379 53.0962 32.1664L61.0817 27.5528C61.3802 27.3778 61.5654 27.0622 61.5654 26.7192V3.74361C61.562 3.39373 61.3699 3.07472 61.0646 2.90321ZM55.4528 23.903L52.712 25.4843C52.6365 25.5255 52.5474 25.5255 52.4719 25.4843L49.7311 23.903C49.6557 23.8619 49.6111 23.7795 49.6111 23.6938V20.5311C49.6111 20.4454 49.6557 20.3665 49.7311 20.3219L52.4719 18.7371C52.5474 18.6925 52.64 18.6925 52.7154 18.7371L55.4562 20.3219C55.5316 20.3665 55.5762 20.4454 55.5762 20.5311V23.6972C55.5762 23.783 55.5282 23.8619 55.4528 23.903Z" fill="white"/>
<path fill-rule="evenodd" clip-rule="evenodd" d="M82.9043 20.4453C83.1993 20.2738 83.3845 19.9548 83.3845 19.6118V17.3787C83.3845 17.0357 83.2027 16.7167 82.9043 16.5452L74.9702 11.9384C74.6718 11.7635 74.3047 11.7635 74.0029 11.9384L66.0208 16.5452C65.7223 16.7201 65.5371 17.0357 65.5371 17.3787V26.5957C65.5371 26.9422 65.7223 27.2612 66.0242 27.4327L73.9549 31.9537C74.2464 32.1218 74.6066 32.1218 74.9016 31.9606L79.7005 29.2953C79.8514 29.2096 79.9475 29.0518 79.9475 28.8768C79.9475 28.7019 79.8549 28.5407 79.7039 28.4549L71.6738 23.8481C71.5228 23.7624 71.4302 23.6046 71.4302 23.4331V20.5414C71.4302 20.3699 71.5194 20.2087 71.6703 20.1229L74.171 18.6822C74.3185 18.5965 74.5037 18.5965 74.6512 18.6822L77.1518 20.1229C77.2993 20.2087 77.3919 20.3664 77.3919 20.538V22.8122C77.3919 22.9837 77.4846 23.1449 77.6321 23.2307C77.7796 23.3164 77.9648 23.3164 78.1157 23.2272L82.9043 20.4453Z" fill="white"/>
<path fill-rule="evenodd" clip-rule="evenodd" d="M74.3696 20.0167C74.4244 19.9824 74.4965 19.9824 74.5548 20.0167L76.0881 20.9017C76.1464 20.936 76.1807 20.9943 76.1807 21.0629V22.8295C76.1807 22.8946 76.1464 22.9564 76.0881 22.9907L74.5548 23.8757C74.4965 23.91 74.4279 23.91 74.3696 23.8757L72.8397 22.9907C72.7814 22.9564 72.7471 22.8981 72.7471 22.8295V21.0595C72.7471 20.9943 72.7814 20.9326 72.8397 20.8983L74.3696 20.0167Z" fill="#EFEFEF"/>
<path d="M40.0783 17.5812V26.2802C40.0783 26.5066 40.0303 26.7261 39.9411 26.9251C39.8073 27.2269 39.5809 27.4842 39.2893 27.6523L31.7531 32.0018C31.6365 32.067 31.5062 32.1184 31.3758 32.1527C31.2489 32.187 31.1151 32.2042 30.9848 32.2042C30.9813 32.2042 30.9745 32.2042 30.971 32.2042H30.9676C30.6898 32.2042 30.4119 32.139 30.1718 32.0018L22.6425 27.6523C22.4332 27.5322 22.2583 27.3641 22.1245 27.1686C21.9496 26.9114 21.8535 26.6026 21.8535 26.2802V17.5777C21.8535 17.1318 22.0422 16.7099 22.3578 16.4149C22.4435 16.336 22.5396 16.264 22.6425 16.2056L30.1787 11.8595C30.4153 11.7258 30.6863 11.6606 30.9607 11.6572C30.9642 11.6572 30.9642 11.6572 30.9642 11.6572C30.9745 11.6572 30.9882 11.6572 30.9985 11.6572C31.266 11.6606 31.5302 11.7292 31.76 11.8595L39.2893 16.2091C39.4231 16.2845 39.5397 16.3806 39.6426 16.4869C39.9171 16.7785 40.0783 17.1695 40.0783 17.5812Z" fill="white"/>
<path fill-rule="evenodd" clip-rule="evenodd" d="M30.9951 32.0223L30.9848 32.2041C30.9813 32.2041 30.9745 32.2041 30.971 32.2041H30.9676C30.6898 32.2041 30.4119 32.1389 30.1718 32.0017L22.6425 27.6522C22.4332 27.5321 22.2583 27.3641 22.1245 27.1685C21.9496 26.9113 21.8535 26.6025 21.8535 26.2801V17.5776C21.8535 17.1317 22.0422 16.7098 22.3578 16.4148L22.4572 16.4697L25.3077 21.663L30.9951 32.0223Z" fill="#D2D2D2"/>
<path fill-rule="evenodd" clip-rule="evenodd" d="M40.0793 17.5812V26.2802C40.0793 26.5066 40.0313 26.7261 39.9421 26.9251C39.8152 26.7604 39.7397 26.6609 39.7397 26.6609L36.7966 21.6048L31.0029 11.6572C31.2705 11.6606 31.5346 11.7292 31.7644 11.8595L39.2903 16.2091C39.4241 16.2845 39.5407 16.3806 39.6437 16.4869C39.9181 16.7785 40.0793 17.1695 40.0793 17.5812Z" fill="#BEBEBE"/>
<path fill-rule="evenodd" clip-rule="evenodd" d="M30.9946 32.0223L30.9843 32.2041C30.9809 32.2041 30.974 32.2041 30.9706 32.2041H30.9671C30.6893 32.2041 30.4114 32.1389 30.1713 32.0017L22.642 27.6522C22.4327 27.5321 22.2578 27.364 22.124 27.1685L22.1515 27.0725L25.3107 21.6699L30.9946 32.0223Z" fill="#B4B4B4"/>
<path fill-rule="evenodd" clip-rule="evenodd" d="M39.6437 16.4869L39.4962 16.6619L36.7966 21.6048L31.0029 11.6572C31.2705 11.6606 31.5346 11.7292 31.7644 11.8595L39.2903 16.2091C39.4207 16.2845 39.5407 16.3771 39.6437 16.4869Z" fill="#DEDEDE"/>
</svg>
