<svg width="65" height="34" viewBox="0 0 65 34" fill="none" xmlns="http://www.w3.org/2000/svg">
<path d="M32.2399 33.5715C50.0134 33.5715 64.4221 26.261 64.4221 17.2431C64.4221 8.22523 50.0134 0.914581 32.2399 0.914581C14.4663 0.914581 0.0576172 8.22523 0.0576172 17.2431C0.0576172 26.261 14.4663 33.5715 32.2399 33.5715Z" fill="white"/>
<path d="M16.9446 19.2674C18.4061 19.2674 19.4971 18.9976 20.1874 18.4657C20.8704 17.9392 21.342 17.0271 21.5893 15.7549C21.8198 14.5656 21.732 13.7353 21.3284 13.2872C20.9157 12.8295 20.0234 12.5974 18.6764 12.5974H16.3409L15.0461 19.2674H16.9446ZM9.30568 27.4838C9.19727 27.4838 9.0943 27.4353 9.02538 27.3513C8.95633 27.2675 8.92835 27.1572 8.94907 27.0506L12.3805 9.37474C12.4137 9.20387 12.5633 9.08041 12.7372 9.08041H20.1328C22.4571 9.08041 24.1871 9.71225 25.2745 10.9586C26.3677 12.2115 26.7053 13.9628 26.2778 16.1638C26.1039 17.0605 25.8047 17.8933 25.3886 18.6389C24.972 19.3853 24.4215 20.076 23.752 20.692C22.9506 21.443 22.0435 21.9875 21.0585 22.3079C20.0891 22.6241 18.8441 22.7844 17.3581 22.7844H14.3635L13.5083 27.1893C13.4752 27.3603 13.3257 27.4838 13.1517 27.4838H9.30568Z" fill="black"/>
<path d="M16.6416 12.9613H18.6775C20.3032 12.9613 20.868 13.3184 21.0598 13.5312C21.3782 13.8846 21.4383 14.6297 21.2337 15.6859C21.0038 16.8683 20.5776 17.7067 19.9669 18.1775C19.3416 18.6594 18.325 18.9037 16.9457 18.9037H15.488L16.6416 12.9613ZM20.1339 8.71666H12.7382C12.3903 8.71666 12.0912 8.96357 12.0249 9.30544L8.59345 26.9813C8.55202 27.1946 8.60798 27.4152 8.74595 27.5829C8.88404 27.7506 9.08972 27.8477 9.30679 27.8477H13.1527C13.5007 27.8477 13.7998 27.6007 13.8662 27.2589L14.6642 23.1483H17.3593C18.8833 23.1483 20.1664 22.9819 21.1724 22.6538C22.207 22.3173 23.1588 21.7467 24.0013 20.958C24.698 20.3162 25.2719 19.5958 25.7068 18.8166C26.1418 18.0372 26.4543 17.168 26.6356 16.2332C27.0857 13.9164 26.7201 12.0612 25.5492 10.7194C24.3897 9.39046 22.5677 8.71666 20.1339 8.71666ZM14.6063 19.6313H16.9457C18.4963 19.6313 19.6513 19.3389 20.4102 18.754C21.1692 18.169 21.6811 17.1926 21.9471 15.8244C22.2016 14.5108 22.0857 13.5838 21.5994 13.0437C21.1124 12.5037 20.1386 12.2336 18.6775 12.2336H16.0424L14.6063 19.6313ZM20.1339 9.4443C22.3587 9.4443 23.9818 10.0288 25.0019 11.198C26.022 12.3673 26.3292 13.9992 25.9222 16.0945C25.7547 16.9576 25.4713 17.7467 25.0724 18.4616C24.6731 19.177 24.1516 19.8312 23.5072 20.4243C22.7392 21.1439 21.8861 21.6566 20.9473 21.962C20.0085 22.2682 18.8128 22.4206 17.3593 22.4206H14.065L13.1527 27.12H9.30679L12.7382 9.4443H20.1339Z" fill="white"/>
<path d="M35.0959 22.7845C34.9873 22.7845 34.8845 22.736 34.8156 22.6521C34.7464 22.5683 34.7184 22.458 34.7391 22.3513L36.257 14.5304C36.4014 13.7867 36.3658 13.2528 36.1569 13.0273C36.0289 12.8894 35.6447 12.6581 34.5086 12.6581H31.7587L29.8503 22.49C29.8171 22.661 29.6675 22.7845 29.4935 22.7845H25.6779C25.5693 22.7845 25.4665 22.736 25.3974 22.6521C25.3284 22.5683 25.3004 22.4579 25.3211 22.3513L28.7526 4.67546C28.7857 4.50459 28.9353 4.38113 29.1093 4.38113H32.9249C33.0335 4.38113 33.1363 4.42964 33.2054 4.51344C33.2744 4.59736 33.3024 4.7076 33.2817 4.81432L32.4536 9.0805H35.4119C37.6655 9.0805 39.1937 9.47828 40.0838 10.2966C40.9911 11.1315 41.2742 12.4664 40.9253 14.2646L39.3288 22.49C39.2956 22.661 39.1461 22.7845 38.9721 22.7845H35.0959Z" fill="black"/>
<path d="M32.926 4.01726H29.1104C28.7624 4.01726 28.4633 4.26418 28.3969 4.60605L24.9655 22.2819C24.9241 22.4952 24.9801 22.7158 25.1181 22.8835C25.2562 23.0512 25.4619 23.1483 25.679 23.1483H29.4946C29.8425 23.1483 30.1417 22.9013 30.2081 22.5595L32.0593 13.0219H34.5097C35.6439 13.0219 35.8819 13.2644 35.8915 13.2748C35.9603 13.3489 36.0508 13.6921 35.9014 14.461L34.3835 22.2819C34.3421 22.4952 34.398 22.7158 34.5361 22.8835C34.6742 23.0512 34.8799 23.1483 35.097 23.1483H38.9732C39.3211 23.1483 39.6203 22.9013 39.6866 22.5595L41.283 14.3341C41.6577 12.4032 41.3372 10.9549 40.3308 10.0288C39.3705 9.14582 37.7619 8.71663 35.413 8.71663H32.8954L33.6395 4.88377C33.6808 4.67044 33.625 4.44973 33.4869 4.28213C33.3488 4.1144 33.1431 4.01726 32.926 4.01726ZM32.926 4.74491L32.0138 9.44428H35.413C37.5518 9.44428 39.0271 9.81805 39.839 10.5646C40.651 11.3117 40.8942 12.5221 40.5697 14.1953L38.9732 22.4206H35.097L36.6149 14.5999C36.7876 13.7102 36.7241 13.1034 36.4242 12.7798C36.1242 12.4562 35.4859 12.2942 34.5097 12.2942H31.4601L29.4946 22.4206H25.679L29.1104 4.74491H32.926Z" fill="white"/>
<path d="M46.9631 19.2674C48.4246 19.2674 49.5156 18.9976 50.206 18.4657C50.8889 17.9394 51.3606 17.0273 51.6079 15.7549C51.8385 14.5656 51.7506 13.7353 51.3469 13.2872C50.9342 12.8295 50.0419 12.5974 48.695 12.5974H46.3594L45.0646 19.2674H46.9631ZM39.3243 27.4838C39.2159 27.4838 39.113 27.4353 39.044 27.3513C38.975 27.2675 38.9469 27.1572 38.9676 27.0506L42.399 9.37474C42.4323 9.20387 42.5818 9.08041 42.7559 9.08041H50.1513C52.4757 9.08041 54.2056 9.71225 55.2931 10.9586C56.3863 12.2113 56.7238 13.9627 56.2965 16.1638C56.1223 17.0605 55.8232 17.8933 55.4071 18.6389C54.9905 19.3853 54.44 20.076 53.7705 20.692C52.9691 21.443 52.0621 21.9875 51.077 22.3079C50.1076 22.6241 48.8626 22.7844 47.3767 22.7844H44.3819L43.5271 27.1893C43.4938 27.3603 43.3443 27.4838 43.1703 27.4838H39.3243Z" fill="black"/>
<path d="M46.659 12.9613H48.695C50.3207 12.9613 50.8854 13.3184 51.0773 13.5312C51.3958 13.8846 51.4558 14.6297 51.2511 15.6858C51.0212 16.8683 50.595 17.7067 49.9843 18.1775C49.359 18.6594 48.3425 18.9037 46.9632 18.9037H45.5056L46.659 12.9613ZM50.1514 8.71666H42.7558C42.4079 8.71666 42.1088 8.96357 42.0424 9.30544L38.611 26.9813C38.5696 27.1946 38.6256 27.4152 38.7635 27.5829C38.9016 27.7506 39.1073 27.8477 39.3244 27.8477H43.1703C43.5182 27.8477 43.8174 27.6007 43.8838 27.2589L44.6817 23.1483H47.3767C48.9008 23.1483 50.1838 22.9819 51.1898 22.6538C52.2244 22.3173 53.1765 21.7466 54.019 20.9577C54.7157 20.316 55.2894 19.5958 55.7243 18.8166C56.1593 18.0372 56.4718 17.168 56.6531 16.2332C57.1031 13.9163 56.7375 12.061 55.5667 10.7193C54.4072 9.39046 52.5853 8.71666 50.1514 8.71666ZM44.6239 19.6313H46.9632C48.5138 19.6313 49.6688 19.3389 50.4277 18.754C51.1868 18.169 51.6986 17.1926 51.9646 15.8244C52.2192 14.5108 52.1033 13.5838 51.6168 13.0437C51.1299 12.5037 50.1561 12.2336 48.695 12.2336H46.0599L44.6239 19.6313ZM50.1514 9.4443C52.3762 9.4443 53.9992 10.0288 55.0194 11.198C56.0396 12.3673 56.3467 13.9992 55.9396 16.0945C55.7721 16.9576 55.4888 17.7467 55.0899 18.4616C54.6905 19.177 54.1691 19.8312 53.5246 20.4243C52.7567 21.1439 51.9035 21.6566 50.9648 21.962C50.026 22.2682 48.8303 22.4206 47.3767 22.4206H44.0824L43.1703 27.12H39.3244L42.7558 9.4443H50.1514Z" fill="white"/>
</svg>
