<svg width="46" height="46" viewBox="0 0 46 46" fill="none" xmlns="http://www.w3.org/2000/svg">
<circle cx="22.9415" cy="22.9319" r="22.0821" fill="#777BB3"/>
<path d="M12.1804 25.1081C13.134 25.1081 13.8458 24.932 14.2963 24.585C14.7419 24.2415 15.0497 23.6463 15.211 22.8162C15.3614 22.0402 15.3041 21.4984 15.0407 21.206C14.7715 20.9074 14.1893 20.7559 13.3104 20.7559H11.7864L10.9416 25.1081H12.1804ZM7.19603 30.4692C7.12529 30.4692 7.05811 30.4375 7.01314 30.3828C6.96809 30.3281 6.94983 30.2561 6.96335 30.1865L9.20232 18.6532C9.22397 18.5417 9.32158 18.4611 9.43508 18.4611H14.2606C15.7772 18.4611 16.906 18.8734 17.6155 19.6866C18.3288 20.5041 18.5491 21.6469 18.2702 23.083C18.1567 23.6681 17.9615 24.2115 17.69 24.698C17.4182 25.185 17.059 25.6357 16.6221 26.0376C16.0992 26.5276 15.5074 26.8829 14.8646 27.092C14.2321 27.2983 13.4198 27.4029 12.4502 27.4029H10.4962L9.93823 30.277C9.91658 30.3886 9.81905 30.4692 9.70555 30.4692H7.19603Z" fill="white"/>
<path d="M24.3628 27.4028C24.2919 27.4028 24.2248 27.3711 24.1799 27.3164C24.1347 27.2617 24.1165 27.1898 24.13 27.1201L25.1204 22.0171C25.2146 21.5318 25.1914 21.1834 25.055 21.0363C24.9716 20.9463 24.7209 20.7954 23.9796 20.7954H22.1853L20.94 27.2106C20.9184 27.3222 20.8208 27.4028 20.7073 27.4028H18.2176C18.1468 27.4028 18.0797 27.3711 18.0346 27.3164C17.9896 27.2617 17.9713 27.1897 17.9848 27.1201L20.2238 15.5868C20.2455 15.4753 20.3431 15.3947 20.4566 15.3947H22.9462C23.0171 15.3947 23.0842 15.4264 23.1292 15.4811C23.1743 15.5358 23.1925 15.6078 23.179 15.6774L22.6387 18.461H24.569C26.0395 18.461 27.0366 18.7206 27.6174 19.2546C28.2093 19.7993 28.3941 20.6703 28.1664 21.8436L27.1247 27.2106C27.1031 27.3222 27.0055 27.4028 26.8919 27.4028H24.3628Z" fill="white"/>
<path d="M32.7155 25.108C33.6691 25.108 34.381 24.9319 34.8314 24.5848C35.277 24.2414 35.5848 23.6463 35.7462 22.816C35.8966 22.0401 35.8393 21.4983 35.5759 21.2059C35.3066 20.9073 34.7244 20.7558 33.8455 20.7558H32.3216L31.4768 25.108H32.7155ZM27.7313 30.4691C27.6605 30.4691 27.5933 30.4374 27.5484 30.3826C27.5033 30.328 27.485 30.256 27.4985 30.1864L29.7375 18.6531C29.7592 18.5416 29.8567 18.461 29.9703 18.461H34.7958C36.3124 18.461 37.4412 18.8733 38.1508 19.6865C38.8641 20.5039 39.0843 21.6467 38.8054 23.0829C38.6918 23.668 38.4966 24.2113 38.2251 24.6978C37.9533 25.1849 37.5941 25.6355 37.1573 26.0375C36.6343 26.5275 36.0425 26.8828 35.3998 27.0919C34.7672 27.2981 33.9549 27.4028 32.9853 27.4028H31.0313L30.4735 30.2769C30.4518 30.3885 30.3543 30.4691 30.2407 30.4691H27.7313Z" fill="white"/>
</svg>
