<svg width="42" height="43" viewBox="0 0 42 43" fill="none" xmlns="http://www.w3.org/2000/svg">
<path d="M21.0399 27.74C20.9026 32.6469 21.0744 37.588 21.5545 38.7889C22.0349 39.9898 23.0631 42.3255 26.5986 41.5681C29.5523 40.9349 30.627 39.7094 31.0933 37.0045C31.4368 35.0145 32.099 29.4876 32.1839 28.3552" stroke="white" stroke-width="1.23526" stroke-linecap="round" stroke-linejoin="round"/>
<path d="M16.8021 3.14122C16.8021 3.14122 0.795687 -3.40081 1.53981 11.4762C1.69807 14.6412 6.07641 35.4246 11.2983 29.147C13.2065 26.8513 14.9323 25.0508 14.9323 25.0508" stroke="white" stroke-width="1.23526" stroke-linecap="round" stroke-linejoin="round"/>
<path d="M25.4471 1.94715C24.8931 2.12087 34.3509 -1.51027 39.7258 5.3578C41.6244 7.78411 39.4243 17.6974 34.1612 25.5072" stroke="white" stroke-width="1.23526" stroke-linecap="round" stroke-linejoin="round"/>
<path d="M34.1616 25.5072C34.1616 25.5072 34.5046 27.1954 39.4895 26.1665C41.6736 25.7154 40.3592 27.4324 38.144 28.4611C36.3261 29.3048 32.2503 29.5211 32.1837 28.3552C32.0124 25.3471 34.3289 26.2609 34.1617 25.5072C34.0106 24.8284 32.9746 24.1622 32.2894 22.5008C31.6911 21.0507 24.0845 9.93033 34.3988 11.5819C34.7767 11.5037 31.7087 1.77101 22.0559 1.61275C12.4053 1.4545 12.7219 13.4809 12.7219 13.4809" stroke="white" stroke-width="1.23526" stroke-linecap="round" stroke-linejoin="bevel"/>
<path d="M18.338 26.536C16.9925 28.039 17.3882 28.3029 14.6988 28.8566C11.9777 29.4175 13.5764 30.4157 14.6198 30.6765C15.8851 30.9932 18.8124 31.4414 20.7903 28.6719C21.3926 27.8287 20.7867 26.4832 19.9593 26.1402C19.5596 25.9747 19.025 25.7671 18.338 26.536V26.536Z" stroke="white" stroke-width="1.23526" stroke-linecap="round" stroke-linejoin="round"/>
<path d="M18.2503 26.5097C18.1147 25.626 18.5406 24.5745 18.9971 23.3443C19.683 21.4985 21.2657 19.6524 19.9997 13.7973C19.056 9.43412 12.7263 12.8893 12.7223 13.4809C12.7185 14.0723 13.0086 16.4796 12.6166 19.2829C12.105 22.9409 14.9442 26.0346 18.2135 25.7181" stroke="white" stroke-width="1.23526" stroke-linecap="round" stroke-linejoin="round"/>
<path d="M16.7446 13.3923C16.7161 13.5943 17.1145 14.1335 17.6341 14.2056C18.1528 14.2779 18.5967 13.8565 18.6249 13.6547C18.653 13.4526 18.2551 13.23 17.7353 13.1577C17.2163 13.0853 16.7722 13.1907 16.7447 13.3923H16.7446Z" fill="white" stroke="white" stroke-width="0.411751"/>
<path d="M32.5425 12.9803C32.5706 13.1824 32.1726 13.7215 31.653 13.7936C31.1339 13.8659 30.6899 13.4446 30.6615 13.2427C30.634 13.0406 31.0321 12.8181 31.5513 12.7457C32.0705 12.6734 32.5143 12.7787 32.5425 12.9804V12.9803Z" fill="white" stroke="white" stroke-width="0.205876"/>
<path d="M34.3988 11.582C34.4843 13.1669 34.0574 14.2465 34.0036 15.9337C33.924 18.3862 35.1729 21.1933 33.291 24.0038" stroke="white" stroke-width="1.23526" stroke-linecap="round" stroke-linejoin="round"/>
</svg>
