<svg width="43" height="45" viewBox="0 0 43 45" fill="none" xmlns="http://www.w3.org/2000/svg">
<path d="M31.7441 32.5984C32.0216 30.2867 31.9384 29.9477 33.6603 30.3222L34.0974 30.3605C35.4214 30.4208 37.1534 30.1476 38.1709 29.6749C40.3612 28.6586 41.6601 26.9617 39.5003 27.4076C34.5737 28.4239 34.235 26.7557 34.235 26.7557C39.4372 19.0369 41.6119 9.23871 39.7348 6.84031C34.6149 0.298331 25.7526 3.39189 25.6043 3.4722L25.5571 3.48092C24.5837 3.27895 23.4943 3.15827 22.2705 3.13849C20.041 3.10186 18.3493 3.72296 17.0661 4.69629C17.0661 4.69629 1.25618 -1.81719 1.99169 12.8876C2.14811 16.0158 6.47554 36.5577 11.6368 30.3531C13.5232 28.0843 15.3463 26.1659 15.3463 26.1659C16.2515 26.7674 17.3354 27.0741 18.4721 26.9639L18.5599 26.889C18.5324 27.1707 18.5445 27.4462 18.5951 27.7724C17.2657 29.258 17.6563 29.5189 14.9981 30.066C12.3087 30.6203 13.8887 31.6072 14.92 31.8651C16.1706 32.1778 19.0638 32.6208 21.0192 29.8841L20.9413 30.1964C21.4629 30.6137 21.4276 33.1955 21.5016 35.0402C21.5756 36.885 21.6991 38.6065 22.0752 39.6214C22.4512 40.6362 22.8949 43.2505 26.3885 42.5017C29.3083 41.876 31.5406 40.9755 31.7441 32.5983" fill="black"/>
<path d="M31.7441 32.5984C32.0216 30.2867 31.9384 29.9477 33.6603 30.3222L34.0974 30.3605C35.4214 30.4208 37.1534 30.1476 38.1709 29.6749C40.3612 28.6586 41.6601 26.9617 39.5003 27.4076C34.5737 28.4239 34.235 26.7557 34.235 26.7557C39.4372 19.0369 41.6119 9.23871 39.7348 6.84031C34.6149 0.298331 25.7526 3.39189 25.6043 3.4722L25.5571 3.48092C24.5837 3.27895 23.4943 3.15827 22.2705 3.13849C20.041 3.10186 18.3493 3.72296 17.0661 4.69628C17.0661 4.69628 1.25618 -1.81719 1.99169 12.8876C2.14811 16.0158 6.47554 36.5577 11.6368 30.3531C13.5232 28.0843 15.3463 26.1659 15.3463 26.1659C16.2515 26.7674 17.3354 27.0741 18.4721 26.9639L18.5599 26.889C18.5324 27.1707 18.5445 27.4462 18.5951 27.7724C17.2657 29.258 17.6563 29.5189 14.9981 30.066C12.3087 30.6203 13.8887 31.6072 14.92 31.8651C16.1706 32.1778 19.0638 32.6208 21.0192 29.8841L20.9413 30.1964C21.4629 30.6137 21.4276 33.1955 21.5016 35.0402C21.5756 36.885 21.6991 38.6065 22.0752 39.6214C22.4512 40.6362 22.8949 43.2505 26.3885 42.5017C29.3083 41.876 31.5406 40.9755 31.7441 32.5983" stroke="black" stroke-width="3.66287"/>
<path d="M39.5002 27.4073C34.5732 28.4236 34.2345 26.7555 34.2345 26.7555C39.4367 19.0362 41.6114 9.23779 39.7346 6.83968C34.6148 0.298093 25.7521 3.39184 25.6042 3.47216L25.5566 3.48068C24.5832 3.27861 23.4937 3.15823 22.2694 3.13825C20.0399 3.10172 18.3488 3.72272 17.0656 4.69585C17.0656 4.69585 1.25539 -1.81733 1.9907 12.8874C2.14712 16.0157 6.47445 36.5577 11.6359 30.3531C13.5224 28.0842 15.3452 26.1659 15.3452 26.1659C16.2505 26.7673 17.3344 27.0741 18.4706 26.9639L18.5588 26.889C18.5314 27.1707 18.5439 27.4462 18.5942 27.7724C17.2645 29.258 17.6552 29.5188 14.9972 30.066C12.3076 30.6203 13.8876 31.6071 14.9192 31.865C16.1698 32.1778 19.0632 32.6208 21.0182 29.8841L20.9402 30.1963C21.4612 30.6136 21.827 32.9106 21.7657 34.9929C21.7044 37.0752 21.6635 38.5048 22.074 39.6214C22.4845 40.738 22.8936 43.2504 26.3879 42.5017C29.3077 41.876 30.8207 40.2545 31.0312 37.5498C31.1806 35.627 31.5186 35.9112 31.5399 34.1921L31.8111 33.3782C32.1237 30.7717 31.8607 29.9308 33.6596 30.3219L34.0967 30.3603C35.4207 30.4206 37.1536 30.1474 38.1706 29.6747C40.3605 28.6583 41.6594 26.9614 39.5 27.4073H39.5002Z" fill="#336791"/>
<path d="M21.2317 28.902C21.0961 33.7521 21.2658 38.636 21.7404 39.8229C22.2152 41.0099 23.2315 43.3185 26.726 42.5699C29.6455 41.944 30.7078 40.7328 31.1687 38.0592C31.5082 36.0922 32.1627 30.6293 32.2467 29.51" stroke="white" stroke-width="1.22096" stroke-linecap="round" stroke-linejoin="round"/>
<path d="M17.042 4.58801C17.042 4.58801 1.22101 -1.87825 1.95651 12.8265C2.11294 15.9548 6.44057 36.4975 11.6019 30.2925C13.4881 28.0234 15.1939 26.2438 15.1939 26.2438" stroke="white" stroke-width="1.22096" stroke-linecap="round" stroke-linejoin="round"/>
<path d="M25.5865 3.40779C25.0389 3.57949 34.3871 -0.0095887 39.6998 6.77893C41.5765 9.17714 39.4018 18.9756 34.1996 26.695" stroke="white" stroke-width="1.22096" stroke-linecap="round" stroke-linejoin="round"/>
<path d="M34.2014 26.695C34.2014 26.695 34.5404 28.3636 39.4675 27.3466C41.6264 26.9008 40.3271 28.5978 38.1377 29.6147C36.3408 30.4486 32.3122 30.6623 32.2464 29.51C32.077 26.5367 34.3667 27.44 34.2015 26.695C34.0521 26.024 33.0281 25.3655 32.3508 23.7234C31.7595 22.2901 24.2409 11.2985 34.4358 12.9309C34.8093 12.8537 31.7769 3.2337 22.2359 3.07728C12.697 2.92085 13.01 14.808 13.01 14.808" stroke="white" stroke-width="1.22096" stroke-linecap="round" stroke-linejoin="bevel"/>
<path d="M18.5597 27.7118C17.2298 29.1973 17.6209 29.4581 14.9626 30.0055C12.273 30.5599 13.8533 31.5465 14.8846 31.8043C16.1352 32.1173 19.0285 32.5603 20.9835 29.8229C21.5789 28.9894 20.98 27.6596 20.1622 27.3206C19.7671 27.1569 19.2387 26.9518 18.5597 27.7118V27.7118Z" stroke="white" stroke-width="1.22096" stroke-linecap="round" stroke-linejoin="round"/>
<path d="M18.4724 27.6859C18.3384 26.8125 18.7594 25.7731 19.2106 24.5572C19.8886 22.7327 21.4529 20.908 20.2015 15.1208C19.2688 10.8081 13.0124 14.2232 13.0085 14.808C13.0047 15.3926 13.2915 17.772 12.904 20.5428C12.3984 24.1584 15.2046 27.2163 18.4361 26.9035" stroke="white" stroke-width="1.22096" stroke-linecap="round" stroke-linejoin="round"/>
<path d="M16.9838 14.7203C16.9556 14.9201 17.3495 15.453 17.863 15.5242C18.3757 15.5957 18.8145 15.1792 18.8424 14.9797C18.8702 14.78 18.4768 14.56 17.9631 14.4885C17.4501 14.4169 17.0111 14.5211 16.9839 14.7203H16.9838Z" fill="white" stroke="white" stroke-width="0.406982"/>
<path d="M32.6007 14.3131C32.6286 14.5128 32.2352 15.0458 31.7215 15.117C31.2085 15.1885 30.7697 14.772 30.7416 14.5725C30.7144 14.3728 31.1079 14.1528 31.6211 14.0813C32.1342 14.0098 32.5729 14.1139 32.6007 14.3132V14.3131Z" fill="white" stroke="white" stroke-width="0.203491"/>
<path d="M34.4348 12.931C34.5194 14.4976 34.0974 15.5647 34.0442 17.2324C33.9654 19.6565 35.1999 22.431 33.3398 25.209" stroke="white" stroke-width="1.22096" stroke-linecap="round" stroke-linejoin="round"/>
</svg>
