<svg width="41" height="41" viewBox="0 0 41 41" fill="none" xmlns="http://www.w3.org/2000/svg">
<path fill-rule="evenodd" clip-rule="evenodd" d="M39.771 21.1092L36.8454 18.153C36.6135 17.9187 36.4833 17.6011 36.4833 17.2701V13.6517C36.4833 10.3086 36.1389 9.09629 35.4919 7.87408C34.8451 6.65188 33.8957 5.69268 32.6863 5.03904C31.4766 4.3854 30.2768 4.03729 26.9682 4.03729H22.2363C22.0993 4.03729 21.9883 3.92538 21.9883 3.7873C21.9883 3.72109 22.0144 3.6576 22.0607 3.61072L24.9864 0.654417C25.219 0.419417 25.5347 0.287354 25.864 0.287354H27.5077C31.9192 0.287354 33.519 0.751475 35.1317 1.623C36.7445 2.49452 38.0102 3.77344 38.8726 5.40306C39.7353 7.03266 40.1946 8.64907 40.1946 13.1066V20.9325C40.1946 21.0706 40.0835 21.1826 39.9466 21.1826C39.8808 21.1826 39.8175 21.1561 39.771 21.1092Z" fill="#E55638"/>
<path fill-rule="evenodd" clip-rule="evenodd" d="M19.5861 39.8607L22.5118 36.9043C22.7444 36.6693 23.0601 36.5372 23.3894 36.5372H26.9678C30.2764 36.5372 31.4762 36.1891 32.6856 35.5355C33.8952 34.8819 34.8445 33.9227 35.4915 32.7005C36.1383 31.4783 36.4828 30.2659 36.4828 26.9228V22.1419C36.4828 22.0038 36.5939 21.892 36.7307 21.892C36.7967 21.892 36.8598 21.9183 36.9063 21.9653L39.8318 24.9214C40.0637 25.1557 40.1939 25.4733 40.1939 25.8043V27.4679C40.1939 31.9255 39.7346 33.5418 38.8722 35.1715C38.0097 36.8011 36.7439 38.0801 35.1311 38.9516C33.5183 39.823 31.9187 40.2873 27.5072 40.2873H19.7615C19.6246 40.2873 19.5137 40.1753 19.5137 40.0372C19.5137 39.971 19.5397 39.9076 19.5861 39.8607Z" fill="#F4C942"/>
<path fill-rule="evenodd" clip-rule="evenodd" d="M1.03186 19.4651L3.95743 22.4213C4.18936 22.6556 4.3196 22.9732 4.3196 23.3042V26.9225C4.3196 30.2658 4.6641 31.478 5.31098 32.7002C5.95787 33.9224 6.90715 34.8816 8.11672 35.5352C9.32631 36.189 10.5261 36.5371 13.8347 36.5371H18.5667C18.7037 36.5371 18.8147 36.6489 18.8147 36.787C18.8147 36.8532 18.7886 36.9168 18.7423 36.9635L15.8165 39.9199C15.5839 40.1549 15.2682 40.287 14.9389 40.287H13.2952C8.88371 40.287 7.284 39.8229 5.67124 38.9513C4.05846 38.0798 2.79275 36.8009 1.93024 35.1712C1.06772 33.5417 0.608398 31.9252 0.608398 27.4678V19.6418C0.608398 19.5037 0.719408 19.3917 0.856345 19.3917C0.922197 19.3917 0.985343 19.4182 1.03186 19.4651Z" fill="#7B8FEA"/>
<path fill-rule="evenodd" clip-rule="evenodd" d="M21.2164 0.713935L18.2905 3.67024C18.058 3.90524 17.7424 4.03731 17.4131 4.03731H13.8347C10.5261 4.03731 9.3263 4.3854 8.11672 5.03904C6.90715 5.69268 5.95788 6.65188 5.31098 7.87408C4.6641 9.09628 4.3196 10.3086 4.3196 13.6518V18.4326C4.3196 18.5707 4.20859 18.6827 4.07165 18.6827C4.0058 18.6827 3.94265 18.6562 3.89614 18.6093L0.970564 15.6531C0.738647 15.4188 0.608398 15.1012 0.608398 14.7702V13.1066C0.608398 8.64908 1.06772 7.03268 1.93024 5.40306C2.79275 3.77346 4.05846 2.49452 5.67124 1.623C7.284 0.751476 8.88371 0.287354 13.2952 0.287354H21.0408C21.1778 0.287354 21.2888 0.399281 21.2888 0.537351C21.2888 0.60356 21.2628 0.667066 21.2164 0.713935Z" fill="#D97EE8"/>
<path fill-rule="evenodd" clip-rule="evenodd" d="M33.5903 14.8817L29.601 11.0291C29.337 10.7624 29.0283 10.5686 28.6994 10.4476C28.4274 10.3437 28.1325 10.2868 27.8245 10.2868H16.0487C15.9118 10.2868 15.8008 10.1749 15.8008 10.0368C15.8008 9.97057 15.8269 9.90703 15.8733 9.86016L18.8017 6.90355C19.0343 6.66877 19.3499 6.53687 19.679 6.53687H29.0615C31.7944 6.53687 34.0097 8.7754 34.0097 11.5368V14.7011C34.0097 14.8392 33.8989 14.9511 33.7619 14.9511C33.698 14.9511 33.6365 14.9262 33.5903 14.8817Z" fill="#E55638"/>
<path fill-rule="evenodd" clip-rule="evenodd" d="M25.7482 33.6172L29.5622 29.5848C29.8261 29.3181 30.018 29.0063 30.1377 28.6738C30.2406 28.3989 30.2967 28.1009 30.2967 27.7897V15.8916C30.2967 15.7535 30.4078 15.6416 30.5447 15.6416C30.6106 15.6416 30.6738 15.668 30.7203 15.7151L33.6462 18.674C33.878 18.9083 34.008 19.2257 34.008 19.5566V29.0397C34.008 31.8012 31.7927 34.0397 29.0597 34.0397H25.9277C25.7907 34.0397 25.6797 33.9278 25.6797 33.7897C25.6797 33.7254 25.7041 33.6636 25.7482 33.6172Z" fill="#F4C942"/>
<path fill-rule="evenodd" clip-rule="evenodd" d="M7.21438 25.6926L11.2038 29.5452C11.4677 29.8119 11.7764 30.0056 12.1054 30.1267C12.3774 30.2305 12.6722 30.2875 12.9803 30.2875H24.756C24.893 30.2875 25.004 30.3994 25.004 30.5375C25.004 30.6037 24.9779 30.6672 24.9314 30.7141L22.003 33.6706C21.7704 33.9054 21.4548 34.0374 21.1257 34.0374H11.7432C9.01034 34.0374 6.79492 31.7989 6.79492 29.0375V25.8731C6.79492 25.7351 6.90594 25.6232 7.04288 25.6232C7.10679 25.6232 7.16822 25.648 7.21438 25.6926Z" fill="#7B8FEA"/>
<path fill-rule="evenodd" clip-rule="evenodd" d="M15.0548 6.95938L11.2407 10.9918C10.9768 11.2584 10.785 11.5703 10.6653 11.9027C10.5624 12.1776 10.5061 12.4755 10.5061 12.7868V24.685C10.5061 24.8231 10.3951 24.9349 10.2582 24.9349C10.1923 24.9349 10.1291 24.9084 10.0826 24.8614L7.15673 21.9025C6.92503 21.6682 6.79492 21.3508 6.79492 21.02V11.5368C6.79492 8.7754 9.01034 6.53687 11.7432 6.53687H14.8753C15.0123 6.53687 15.1233 6.64878 15.1233 6.78686C15.1233 6.85112 15.0987 6.91289 15.0548 6.95938Z" fill="#D97EE8"/>
</svg>
