<svg width="40" height="41" viewBox="0 0 40 41" fill="none" xmlns="http://www.w3.org/2000/svg">
<path fill-rule="evenodd" clip-rule="evenodd" d="M39.4312 21.1899L36.5056 18.2337C36.2737 17.9994 36.1435 17.6818 36.1435 17.3508V13.7324C36.1435 10.3893 35.7991 9.17697 35.1521 7.95477C34.5053 6.73256 33.5559 5.77337 32.3464 5.11973C31.1368 4.46608 29.937 4.11798 26.6284 4.11798H21.8964C21.7595 4.11798 21.6484 4.00606 21.6484 3.86799C21.6484 3.80178 21.6745 3.73829 21.7209 3.69141L24.6466 0.735106C24.8791 0.500106 25.1949 0.368042 25.5242 0.368042H27.1679C31.5794 0.368042 33.1791 0.832163 34.7919 1.70369C36.4047 2.57521 37.6703 3.85413 38.5328 5.48375C39.3954 7.11335 39.8547 8.72976 39.8547 13.1873V21.0132C39.8547 21.1513 39.7437 21.2633 39.6067 21.2633C39.5409 21.2633 39.4777 21.2368 39.4312 21.1899Z" fill="white"/>
<path fill-rule="evenodd" clip-rule="evenodd" d="M19.2463 39.9413L22.172 36.9849C22.4045 36.75 22.7203 36.6179 23.0496 36.6179H26.6279C29.9365 36.6179 31.1363 36.2698 32.3458 35.6162C33.5554 34.9626 34.5046 34.0034 35.1516 32.7812C35.7984 31.5589 36.143 30.3466 36.143 27.0035V22.2226C36.143 22.0845 36.254 21.9727 36.3908 21.9727C36.4568 21.9727 36.5199 21.9989 36.5664 22.046L39.492 25.0021C39.7239 25.2364 39.8541 25.554 39.8541 25.885V27.5486C39.8541 32.0062 39.3948 33.6225 38.5323 35.2522C37.6698 36.8817 36.404 38.1608 34.7913 39.0323C33.1785 39.9037 31.5789 40.368 27.1674 40.368H19.4217C19.2847 40.368 19.1738 40.256 19.1738 40.1179C19.1738 40.0517 19.1999 39.9882 19.2463 39.9413Z" fill="white"/>
<path fill-rule="evenodd" clip-rule="evenodd" d="M0.692014 19.5458L3.61758 22.502C3.84951 22.7363 3.97976 23.0539 3.97976 23.3849V27.0032C3.97976 30.3465 4.32425 31.5586 4.97113 32.7809C5.61803 34.0031 6.5673 34.9623 7.77688 35.6159C8.98647 36.2697 10.1862 36.6177 13.4948 36.6177H18.2269C18.3638 36.6177 18.4749 36.7295 18.4749 36.8676C18.4749 36.9338 18.4488 36.9975 18.4024 37.0442L15.4766 40.0006C15.244 40.2356 14.9283 40.3677 14.5991 40.3677H12.9553C8.54387 40.3677 6.94416 39.9036 5.3314 39.032C3.71862 38.1604 2.45291 36.8816 1.5904 35.2519C0.72788 33.6224 0.268555 32.0059 0.268555 27.5484V19.7225C0.268555 19.5844 0.379564 19.4724 0.516502 19.4724C0.582353 19.4724 0.6455 19.4989 0.692014 19.5458Z" fill="white"/>
<path fill-rule="evenodd" clip-rule="evenodd" d="M20.8766 0.794623L17.9507 3.75093C17.7181 3.98593 17.4025 4.118 17.0732 4.118H13.4948C10.1862 4.118 8.98645 4.46608 7.77688 5.11973C6.5673 5.77337 5.61803 6.73256 4.97113 7.95477C4.32425 9.17697 3.97976 10.3893 3.97976 13.7324V18.5133C3.97976 18.6514 3.86874 18.7633 3.7318 18.7633C3.66596 18.7633 3.60281 18.7369 3.5563 18.69L0.630721 15.7338C0.398803 15.4995 0.268555 15.1819 0.268555 14.8509V13.1873C0.268555 8.72977 0.72788 7.11336 1.5904 5.48375C2.45291 3.85415 3.71862 2.57521 5.3314 1.70369C6.94416 0.832165 8.54387 0.368042 12.9553 0.368042H20.701C20.8379 0.368042 20.949 0.479969 20.949 0.618039C20.949 0.684249 20.9229 0.747755 20.8766 0.794623Z" fill="white"/>
<path fill-rule="evenodd" clip-rule="evenodd" d="M33.2495 14.9624L29.2601 11.1098C28.9962 10.8431 28.6875 10.6493 28.3586 10.5283C28.0866 10.4244 27.7917 10.3675 27.4837 10.3675H15.7079C15.571 10.3675 15.46 10.2556 15.46 10.1175C15.46 10.0513 15.486 9.98772 15.5325 9.94085L18.4609 6.98424C18.6935 6.74946 19.0091 6.61755 19.3382 6.61755H28.7207C31.4536 6.61755 33.6689 8.85609 33.6689 11.6175V14.7818C33.6689 14.9199 33.558 15.0318 33.4211 15.0318C33.3572 15.0318 33.2957 15.0069 33.2495 14.9624Z" fill="white"/>
<path fill-rule="evenodd" clip-rule="evenodd" d="M25.4094 33.6979L29.2233 29.6654C29.4873 29.3988 29.6791 29.0869 29.7989 28.7545C29.9017 28.4796 29.9579 28.1816 29.9579 27.8704V15.9723C29.9579 15.8342 30.0689 15.7223 30.2059 15.7223C30.2717 15.7223 30.3349 15.7487 30.3815 15.7958L33.3073 18.7547C33.5391 18.989 33.6691 19.3064 33.6691 19.6373V29.1204C33.6691 31.8819 31.4538 34.1204 28.7209 34.1204H25.5888C25.4519 34.1204 25.3408 34.0084 25.3408 33.8703C25.3408 33.8061 25.3653 33.7443 25.4094 33.6979Z" fill="white"/>
<path fill-rule="evenodd" clip-rule="evenodd" d="M6.87454 25.7733L10.864 29.6259C11.1279 29.8925 11.4365 30.0863 11.7655 30.2073C12.0375 30.3112 12.3324 30.3682 12.6404 30.3682H24.4161C24.5531 30.3682 24.6642 30.4801 24.6642 30.6182C24.6642 30.6844 24.6381 30.7479 24.5916 30.7948L21.6631 33.7513C21.4306 33.9861 21.115 34.1181 20.7858 34.1181H11.4033C8.67049 34.1181 6.45508 31.8795 6.45508 29.1182V25.9538C6.45508 25.8158 6.56609 25.7039 6.70304 25.7039C6.76695 25.7039 6.82838 25.7287 6.87454 25.7733Z" fill="white"/>
<path fill-rule="evenodd" clip-rule="evenodd" d="M14.7149 7.04007L10.9009 11.0725C10.637 11.3391 10.4452 11.651 10.3254 11.9834C10.2226 12.2583 10.1663 12.5562 10.1663 12.8675V24.7657C10.1663 24.9038 10.0553 25.0156 9.91834 25.0156C9.85245 25.0156 9.78927 24.9891 9.74276 24.9421L6.81689 21.9832C6.58518 21.7489 6.45508 21.4315 6.45508 21.1006V11.6175C6.45508 8.85609 8.6705 6.61755 11.4033 6.61755H14.5355C14.6724 6.61755 14.7834 6.72947 14.7834 6.86755C14.7834 6.93181 14.7589 6.99358 14.7149 7.04007Z" fill="white"/>
</svg>
