<svg width="138" height="136" viewBox="0 0 138 136" fill="none" xmlns="http://www.w3.org/2000/svg">
<path opacity="0.6" fill-rule="evenodd" clip-rule="evenodd" d="M69.0001 0.00537109C31.1776 0.00537109 0.516375 30.4476 0.516375 68C0.516375 68.5872 0.523873 69.1727 0.538778 69.7563H0.263694C0.124127 69.7563 0.0109863 69.8687 0.0109863 70.0072C0.0109863 70.1458 0.124127 70.2581 0.263694 70.2581H0.553431C1.75327 106.765 31.9387 135.995 69.0001 135.995C81.8656 135.995 94.2086 132.466 104.92 125.902C104.92 125.885 104.92 125.869 104.92 125.853C104.92 125.827 104.919 125.803 104.918 125.78C107.971 123.946 110.858 121.843 113.581 119.471C117.526 116.029 120.179 113.473 121.545 111.797C121.679 111.633 121.561 111.388 121.349 111.388H86.4282C84.7583 111.388 83.4046 110.044 83.4046 108.386C83.4046 106.728 84.7583 105.384 86.4282 105.384H124.27C126.264 105.384 127.881 103.779 127.881 101.799C127.881 99.8191 126.264 98.214 124.27 98.214H104.039C102.264 98.214 100.825 96.7853 100.825 95.0229C100.825 93.2606 102.264 91.8319 104.039 91.8319H132.743C132.769 91.8319 132.794 91.828 132.817 91.8208C132.836 91.835 132.858 91.8467 132.881 91.8553C133.012 91.9036 133.157 91.8375 133.206 91.7076C136.024 84.1887 137.484 76.1938 137.484 68C137.484 62.0048 136.702 56.1121 135.175 50.427C135.146 50.32 135.052 50.2477 134.946 50.2412C134.915 50.1376 134.819 50.0622 134.704 50.0622H118.074C116.775 50.0622 115.723 49.0173 115.723 47.7283C115.723 46.4394 116.775 45.3945 118.074 45.3945H127.488C129.463 45.3945 131.064 43.8053 131.064 41.8449C131.064 39.8845 129.463 38.2952 127.488 38.2952H107.848C106.072 38.2952 104.632 36.8656 104.632 35.102C104.632 33.3384 106.072 31.9087 107.848 31.9087H126.301C126.348 31.9087 126.393 31.8957 126.43 31.8731C126.432 31.8752 126.433 31.8773 126.434 31.8794C126.433 31.8769 126.432 31.8744 126.433 31.8719C126.448 31.8627 126.462 31.8521 126.474 31.8401C126.518 31.8218 126.589 31.8035 126.66 31.7853C126.78 31.7544 126.899 31.7238 126.879 31.6939C113.149 11.473 92.656 0.00537109 69.0001 0.00537109ZM126.13 31.4069C126.23 31.5618 126.331 31.7172 126.43 31.8731C126.431 31.8727 126.432 31.8723 126.433 31.8719C126.433 31.8613 126.449 31.8507 126.474 31.8401C126.523 31.7944 126.553 31.7296 126.553 31.6578C126.553 31.5192 126.44 31.4069 126.301 31.4069H126.13ZM1.04436 69.7563H0.538778C0.543054 69.9237 0.547939 70.091 0.553431 70.2581H1.05912C2.25874 106.488 32.2179 135.493 69.0001 135.493C81.5747 135.493 93.6453 132.098 104.162 125.774C104.16 125.822 104.171 125.871 104.198 125.915C104.269 126.034 104.424 126.073 104.544 126.002C104.669 125.929 104.794 125.854 104.918 125.78C104.899 125.433 104.762 125.41 104.654 125.475C104.491 125.576 104.327 125.675 104.162 125.774C104.167 125.693 104.21 125.616 104.286 125.571C107.45 123.702 110.437 121.543 113.247 119.093C116.861 115.941 119.383 113.538 120.809 111.89H117.477H86.4282C84.4791 111.89 82.8991 110.321 82.8991 108.386C82.8991 106.451 84.4791 104.883 86.4282 104.883H124.27C125.985 104.883 127.376 103.502 127.376 101.799C127.376 100.096 125.985 98.7158 124.27 98.7158H104.039C101.985 98.7158 100.319 97.0624 100.319 95.0229C100.319 92.9834 101.985 91.3301 104.039 91.3301H132.743C132.764 91.3301 132.785 91.3327 132.805 91.3377C132.781 91.4027 132.757 91.4677 132.732 91.5327C132.692 91.6393 132.73 91.7558 132.817 91.8208C132.921 91.7892 132.996 91.6938 132.996 91.581C132.996 91.4637 132.915 91.3652 132.805 91.3377C135.554 83.9314 136.979 76.0631 136.979 68C136.979 62.0513 136.203 56.2046 134.688 50.564H134.704C134.844 50.564 134.957 50.4516 134.957 50.3131C134.957 50.2881 134.953 50.264 134.946 50.2412C134.92 50.2396 134.893 50.2421 134.865 50.2493C134.731 50.285 134.65 50.4225 134.686 50.5564C134.687 50.5589 134.688 50.5614 134.688 50.564H118.074C116.496 50.564 115.218 49.2944 115.218 47.7283C115.218 46.1622 116.496 44.8927 118.074 44.8927H127.488C129.184 44.8927 130.558 43.5281 130.558 41.8449C130.558 40.1616 129.184 38.797 127.488 38.797H107.848C105.793 38.797 104.127 37.1427 104.127 35.102C104.127 33.0612 105.793 31.4069 107.848 31.4069H126.13C113.692 12.302 92.3639 0.507176 69.0001 0.507176C31.4567 0.507176 1.02179 30.7247 1.02179 68C1.02179 68.5872 1.02934 69.1727 1.04436 69.7563ZM1.04436 69.7563C1.04867 69.9237 1.05359 70.091 1.05912 70.2581H69.1926C69.3322 70.2581 69.4454 70.1458 69.4454 70.0072C69.4454 69.8687 69.3322 69.7563 69.1926 69.7563H1.04436ZM34.1354 37.2793C34.1354 48.2263 43.0736 57.1006 54.0993 57.1006C65.1251 57.1006 74.0632 48.2263 74.0632 37.2793C74.0632 26.3323 65.1251 17.458 54.0993 17.458C48.4202 17.458 43.295 19.8124 39.6597 23.5917C39.5997 23.5979 39.5418 23.6254 39.4983 23.6733C39.4574 23.7185 39.436 23.7743 39.4336 23.8306C36.1449 27.3642 34.1354 32.0887 34.1354 37.2793ZM39.747 24.2333L39.517 24.0277C39.4588 23.9756 39.4306 23.9027 39.4336 23.8306C39.5083 23.7504 39.5837 23.6707 39.6597 23.5917C39.7284 23.5846 39.7998 23.6053 39.8552 23.6548L40.0932 23.8676C39.9762 23.988 39.8608 24.1099 39.747 24.2333ZM34.6442 37.6406C34.642 37.5203 34.6409 37.3998 34.6409 37.279C34.6409 32.2504 36.5759 27.6705 39.747 24.2333L45.9935 29.8193C44.1648 31.7771 43.0469 34.3985 43.0469 37.2792C43.0469 37.4002 43.0488 37.5206 43.0527 37.6406H34.6442ZM34.66 38.1424H43.0805C43.2876 40.7844 44.437 43.1638 46.1954 44.9496L40.4008 50.9999C37.0357 47.6879 34.8824 43.1641 34.66 38.1424ZM40.7643 51.3485C40.6416 51.2339 40.5204 51.1176 40.4008 50.9999L40.2407 51.167C40.1445 51.2674 40.1485 51.4263 40.2497 51.5217C40.3508 51.6172 40.5107 51.6132 40.6069 51.5128L40.7643 51.3485ZM46.5568 45.3004L40.7643 51.3485C44.131 54.4953 48.6273 56.4641 53.585 56.5918V56.7845C53.585 56.9231 53.6982 57.0354 53.8377 57.0354C53.9773 57.0354 54.0904 56.9231 54.0904 56.7845V56.5985L54.0993 56.5985C58.9049 56.5985 63.3036 54.8689 66.6984 52.0025L66.786 52.1048C66.8764 52.2104 67.0358 52.2232 67.1422 52.1334C67.2485 52.0437 67.2614 51.8853 67.171 51.7798L67.0792 51.6725C70.8545 48.3141 73.3008 43.513 73.5387 38.1424H73.7618C73.9014 38.1424 74.0146 38.0301 74.0146 37.8915C74.0146 37.753 73.9014 37.6406 73.7618 37.6406H73.5545C73.5567 37.5203 73.5578 37.3998 73.5578 37.279C73.5578 32.1215 71.5224 27.4361 68.2055 23.9714C68.2646 23.8748 68.2521 23.7472 68.1681 23.6638C68.0857 23.582 67.9605 23.5685 67.8639 23.6234C64.3422 20.1241 59.4754 17.9595 54.0993 17.9595L54.0904 17.9595V17.8193C54.0904 17.6807 53.9773 17.5684 53.8377 17.5684C53.6982 17.5684 53.585 17.6807 53.585 17.8193V17.9661C48.2901 18.1025 43.5216 20.339 40.0932 23.8676L46.3458 29.459C46.2256 29.5764 46.1082 29.6965 45.9935 29.8193L46.1762 29.9827C46.2799 30.0754 46.4397 30.0671 46.5331 29.9642C46.6265 29.8612 46.6182 29.7026 46.5145 29.6098L46.3458 29.459C48.2269 27.6202 50.7685 26.4454 53.585 26.3173V26.518C53.585 26.6566 53.6982 26.7689 53.8377 26.7689C53.9773 26.7689 54.0904 26.6566 54.0904 26.518V26.3057L54.0994 26.3057C57.1509 26.3057 59.9136 27.5335 61.9137 29.5188L61.7457 29.6855C61.647 29.7835 61.647 29.9423 61.7457 30.0403C61.8444 30.1383 62.0044 30.1383 62.1031 30.0403L62.263 29.8816C64.0574 31.8326 65.1519 34.429 65.1519 37.2792C65.1519 37.4002 65.1499 37.5206 65.146 37.6406H64.9568C64.8173 37.6406 64.7041 37.753 64.7041 37.8915C64.7041 38.0301 64.8173 38.1424 64.9568 38.1424H65.1182C64.8969 40.9663 63.599 43.4902 61.6316 45.3099L61.4871 45.1411C61.3967 45.0356 61.2372 45.0227 61.1309 45.1125C61.0245 45.2022 61.0116 45.3606 61.102 45.4661L61.254 45.6436C59.326 47.2709 56.8281 48.2528 54.0994 48.2528L54.0904 48.2528V48.1264C54.0904 47.9878 53.9773 47.8755 53.8377 47.8755C53.6982 47.8755 53.585 47.9878 53.585 48.1264V48.2411C50.8725 48.1177 48.415 47.0236 46.5568 45.3004ZM46.8212 44.8584C46.8404 44.9382 46.8198 45.0259 46.7585 45.0898L46.5568 45.3004C46.4337 45.1862 46.3131 45.0693 46.1954 44.9496L46.3923 44.744C46.4553 44.6782 46.5457 44.6538 46.6289 44.6717C46.6922 44.7347 46.7563 44.7969 46.8212 44.8584ZM46.8212 44.8584C48.7139 46.6507 51.2772 47.7511 54.0993 47.7511C59.9243 47.7511 64.6463 43.0628 64.6463 37.2794C64.6463 31.496 59.9243 26.8076 54.0993 26.8076C48.2743 26.8076 43.5522 31.496 43.5522 37.2794C43.5522 40.1648 44.7276 42.7776 46.6289 44.6717C46.6728 44.6811 46.7147 44.7022 46.7495 44.7351C46.7863 44.7698 46.8102 44.8128 46.8212 44.8584ZM53.585 48.2411C53.7525 48.2487 53.921 48.2526 54.0904 48.2528V56.5985C53.9214 56.5984 53.753 56.5962 53.585 56.5918V48.2411ZM61.254 45.6436C61.3824 45.5352 61.5083 45.424 61.6316 45.3099L67.0792 51.6725C66.9537 51.7841 66.8267 51.8941 66.6984 52.0025L61.254 45.6436ZM65.1182 38.1424C65.1312 37.9762 65.1405 37.8089 65.146 37.6406H73.5545C73.5514 37.8084 73.5461 37.9757 73.5387 38.1424H65.1182ZM62.263 29.8816C62.1493 29.758 62.0328 29.637 61.9137 29.5188L67.8107 23.6638C67.827 23.6477 67.8449 23.6342 67.8639 23.6234C67.9793 23.7379 68.0931 23.854 68.2055 23.9714C68.1952 23.9882 68.1827 24.0041 68.1681 24.0187L62.263 29.8816ZM54.0904 26.3057C53.921 26.3058 53.7525 26.3097 53.585 26.3173V17.9661C53.753 17.9618 53.9214 17.9595 54.0904 17.9595V26.3057ZM34.66 38.1424C34.6526 37.9757 34.6473 37.8084 34.6442 37.6406H34.6319C34.4924 37.6406 34.3792 37.753 34.3792 37.8915C34.3792 38.0301 34.4924 38.1424 34.6319 38.1424H34.66ZM43.0805 38.1424H43.2859C43.4255 38.1424 43.5386 38.0301 43.5386 37.8915C43.5386 37.753 43.4255 37.6406 43.2859 37.6406H43.0527C43.0582 37.8089 43.0675 37.9762 43.0805 38.1424Z" fill="white"/>
</svg>
