<svg width="41" height="36" viewBox="0 0 41 36" fill="none" xmlns="http://www.w3.org/2000/svg">
<path fill-rule="evenodd" clip-rule="evenodd" d="M31.8491 11.0481C32.274 11.1705 32.6956 11.3035 33.1137 11.4471C37.3564 12.9097 40.098 15.2009 40.098 17.5698C40.098 20.0404 37.1681 22.456 32.6647 23.9501C32.4267 24.0292 32.1828 24.1051 31.9342 24.1785C32.0228 24.5358 32.1019 24.8866 32.1697 25.2301C33.0588 29.7272 32.3742 33.4235 30.2671 34.6449C28.227 35.8276 24.9297 34.6658 21.5911 31.7889C21.2282 31.4754 20.8741 31.1519 20.5292 30.8186C20.2554 31.0838 19.9819 31.3367 19.7095 31.5752C16.2627 34.5924 12.7232 35.8441 10.6142 34.6263C8.57229 33.4468 7.93061 30.0061 8.75223 25.6728C8.84201 25.2019 8.94491 24.7336 9.06081 24.2684C8.70404 24.1664 8.34985 24.0555 7.99859 23.9358C3.66658 22.4532 0.81543 20.0079 0.81543 17.5698C0.81543 15.2094 3.47152 12.9336 7.63037 11.4816C8.09525 11.3194 8.58116 11.1668 9.08428 11.0237C8.9765 10.592 8.87969 10.1575 8.79395 9.72079C7.93218 5.3109 8.53857 1.78664 10.5858 0.599819C12.7209 -0.63784 16.2767 0.69122 19.8241 3.84552C20.0447 4.04215 20.2617 4.24286 20.475 4.44755C20.7934 4.13973 21.1195 3.84001 21.4531 3.54868C24.8379 0.598948 28.1894 -0.635055 30.2386 0.54846C32.3759 1.78246 33.0018 5.53113 32.0446 10.1844C31.9847 10.4735 31.9196 10.7614 31.8491 11.0481ZM31.4777 22.5617C31.7023 22.4951 31.9228 22.4263 32.1375 22.3551H32.1376C36.0258 21.0648 38.4206 19.0906 38.4206 17.5698C38.4206 16.1422 36.2033 14.2893 32.5681 13.0363C32.1922 12.9066 31.8021 12.7839 31.4003 12.6673C30.917 14.2333 30.272 15.8877 29.4885 17.5782C30.3094 19.3096 30.9805 20.9856 31.4777 22.5617ZM30.7129 30.7485C30.9734 29.343 30.9172 27.5451 30.5241 25.5566C30.4628 25.2461 30.3915 24.9288 30.3115 24.6049C28.6844 24.9815 26.8903 25.2575 24.9912 25.4262C23.9115 26.9913 22.8053 28.4008 21.6984 29.6132C22.0291 29.9318 22.3589 30.233 22.6862 30.515C25.5412 32.9754 28.1888 33.9082 29.4268 33.1906C30.0085 32.8533 30.4789 32.0114 30.7129 30.7485ZM11.4532 33.1704C12.0355 33.5065 12.9988 33.4944 14.2083 33.0666H14.2084C15.5544 32.5905 17.0817 31.6441 18.6058 30.3098C18.8609 30.0859 19.1104 29.8558 19.3542 29.6196C18.2072 28.3869 17.069 26.9791 15.9822 25.4476C14.0786 25.293 12.2975 25.0365 10.6885 24.6802C10.5808 25.1128 10.4852 25.5483 10.4016 25.9862C9.69909 29.6919 10.214 32.4548 11.4532 33.1704ZM3.96028 19.9083C5.04459 20.838 6.62645 21.69 8.54194 22.3457C8.86265 22.455 9.18599 22.5563 9.51168 22.6497C10.0078 21.0297 10.6619 19.3289 11.4501 17.6108C10.672 15.9178 10.0271 14.2437 9.5355 12.6425C9.08076 12.7713 8.62989 12.9134 8.18346 13.0686C4.62665 14.3104 2.49403 16.1375 2.49403 17.5698C2.49403 18.2431 2.98602 19.0727 3.96028 19.9083ZM11.4272 2.05427C10.1933 2.76946 9.70309 5.61962 10.4414 9.39805V9.39788C10.5212 9.80411 10.6113 10.2083 10.7114 10.6099C12.3373 10.241 14.1059 9.96561 15.9534 9.79413C17.0307 8.27147 18.1585 6.87434 19.2996 5.64712C19.1027 5.45857 18.906 5.27629 18.7103 5.1022C15.6474 2.37879 12.7415 1.29242 11.4272 2.05427ZM26.1916 11.6208C26.6038 12.2679 27.0021 12.9238 27.3861 13.5881C27.7764 14.2628 28.1531 14.9453 28.5161 15.6351C29.013 14.4704 29.4349 13.3342 29.7734 12.2477C28.6458 11.9898 27.4451 11.7792 26.1916 11.6208ZM22.7878 9.64266C22.0253 8.62541 21.2501 7.68772 20.4761 6.84805C19.6899 7.69747 18.9081 8.63377 18.1449 9.64162C19.6917 9.56912 21.241 9.56947 22.7878 9.64266ZM12.4129 15.6339C12.7666 14.9472 13.1364 14.2689 13.5217 13.5995C13.9076 12.9296 14.3091 12.2687 14.726 11.6176C13.4807 11.7734 12.2855 11.9787 11.1646 12.2299C11.5061 13.332 11.9242 14.4732 12.4129 15.6339ZM11.1415 23.0591C12.262 23.3034 13.4753 23.4982 14.7618 23.642C14.3347 22.9785 13.9235 22.3049 13.5285 21.6218C13.1414 20.9521 12.7701 20.2734 12.4148 19.5862C11.9157 20.7718 11.4884 21.9376 11.1415 23.0591ZM18.159 25.5778C18.9339 26.6003 19.7271 27.5508 20.5225 28.4104C21.2913 27.5627 22.0637 26.6107 22.8286 25.5696C22.0496 25.6044 21.2581 25.6224 20.4573 25.6224C19.6779 25.6224 18.9111 25.6074 18.159 25.5778ZM29.8513 22.9864C29.4998 21.8838 29.0572 20.7243 28.5321 19.5258C28.1679 20.229 27.788 20.9239 27.3929 21.6101C27.0042 22.2853 26.6021 22.9527 26.1869 23.6119C27.4826 23.4563 28.7123 23.2466 29.8513 22.9864ZM24.0546 23.8156C24.7156 22.8213 25.3441 21.8058 25.9392 20.7706H25.9393C26.5395 19.7296 27.1025 18.6675 27.6273 17.5864C27.0971 16.5161 26.5323 15.4635 25.9338 14.43C25.3386 13.3992 24.7073 12.3898 24.0411 11.4037C22.8731 11.3145 21.6737 11.2679 20.4575 11.2679C19.2466 11.2679 18.0488 11.3142 16.8805 11.4026C16.2074 12.3903 15.5721 13.4032 14.9758 14.4392V14.4389C14.3793 15.4746 13.822 16.5325 13.3049 17.6102C13.8233 18.6876 14.3823 19.7449 14.9808 20.7799C15.5822 21.8203 16.2226 22.8376 16.9007 23.8295C18.0458 23.9039 19.235 23.942 20.4573 23.942C21.6847 23.942 22.8891 23.899 24.0546 23.8156ZM30.4016 9.84531C31.228 5.82766 30.7164 2.76407 29.401 2.00431C28.166 1.29103 25.4555 2.28896 22.5553 4.8165C22.2474 5.08555 21.9462 5.36222 21.652 5.64625C22.7747 6.85762 23.8931 8.25719 24.9726 9.79639C26.8255 9.97049 28.5953 10.2508 30.2249 10.6274C30.2885 10.3678 30.3474 10.107 30.4016 9.84531Z" fill="white"/>
<path d="M20.457 14.0571C22.3944 14.0571 23.9648 15.6299 23.9648 17.5698C23.9648 19.51 22.3944 21.0828 20.457 21.0828C18.5198 21.0828 16.9492 19.51 16.9492 17.5698C16.9492 15.6299 18.5198 14.0571 20.457 14.0571Z" fill="white"/>
</svg>
