<svg width="45" height="41" viewBox="0 0 45 41" fill="none" xmlns="http://www.w3.org/2000/svg">
<path d="M0.0976562 20.7577C0.0976562 24.1176 3.37392 27.2541 8.53896 29.0221C7.50752 34.222 8.35422 38.4132 11.1819 40.0462C14.0883 41.7249 18.4184 40.563 22.5282 36.9652C26.5344 40.4176 30.5831 41.7763 33.4084 40.1386C36.3122 38.4552 37.1952 33.9798 36.1353 28.6175C41.5151 26.8364 44.5244 24.1619 44.5244 20.7577C44.5244 17.4757 41.2422 14.6365 36.1466 12.8799C37.2877 7.29602 36.3209 3.20655 33.3761 1.50603C30.537 -0.133468 26.4411 1.29549 22.3762 4.83818C18.147 1.07797 14.0916 -0.0699937 11.1499 1.63525C8.31354 3.27947 7.50421 7.54695 8.53896 12.843C3.54818 14.5854 0.0976562 17.489 0.0976562 20.7577Z" fill="white"/>
<path d="M35.0669 14.6243C34.6469 14.48 34.2234 14.3464 33.7967 14.2235C33.8675 13.9356 33.9329 13.6463 33.993 13.356C34.9544 8.68231 34.3258 4.91721 32.1791 3.67779C30.121 2.48909 26.7548 3.7285 23.3551 6.69117C23.0201 6.98377 22.6925 7.2848 22.3727 7.59398C22.1585 7.3884 21.9406 7.1868 21.7189 6.98931C18.156 3.82118 14.5846 2.48629 12.4402 3.72938C10.384 4.9214 9.7749 8.46111 10.6405 12.8903C10.7266 13.329 10.8238 13.7653 10.9321 14.199C10.4267 14.3427 9.93869 14.4959 9.47178 14.6589C5.29469 16.1172 2.62695 18.403 2.62695 20.7738C2.62695 23.2225 5.4906 25.6786 9.84161 27.1677C10.1944 27.2879 10.5501 27.3993 10.9085 27.5017C10.7921 27.9689 10.6887 28.4393 10.5986 28.9123C9.77333 33.2646 10.4178 36.7204 12.4687 37.905C14.5869 39.1282 18.142 37.8709 21.6039 34.8406C21.8775 34.6011 22.1522 34.347 22.4272 34.0807C22.7736 34.4154 23.1292 34.7403 23.4937 35.0552C26.847 37.9447 30.1587 39.1116 32.2078 37.9238C34.3241 36.6969 35.0117 32.9845 34.1187 28.4676C34.0506 28.1226 33.9712 27.7703 33.8821 27.4115C34.1318 27.3377 34.3768 27.2614 34.6158 27.1821C39.139 25.6814 42.0818 23.2552 42.0818 20.7738C42.0818 18.3944 39.3281 16.0933 35.0669 14.6243Z" fill="#53C1DE"/>
<path d="M34.0869 25.58C33.8712 25.6515 33.6498 25.7205 33.4242 25.7875C32.9248 24.2045 32.2508 22.5211 31.4263 20.7821C32.2133 19.0842 32.8611 17.4225 33.3465 15.8496C33.75 15.9668 34.1419 16.0901 34.5194 16.2204C38.1705 17.4788 40.3976 19.3399 40.3976 20.7737C40.3976 22.3011 37.9923 24.2841 34.087 25.58H34.0869ZM32.4665 28.7955C32.8613 30.7927 32.9177 32.5985 32.6561 34.0102C32.4211 35.2786 31.9486 36.1242 31.3643 36.4629C30.1209 37.1837 27.4617 36.2468 24.5942 33.7757C24.2654 33.4924 23.9342 33.1899 23.6021 32.8699C24.7138 31.6522 25.8249 30.2365 26.9092 28.6645C28.8167 28.4951 30.6187 28.2179 32.2529 27.8397C32.3332 28.1649 32.4048 28.4837 32.4665 28.7955ZM16.0791 36.3384C14.8643 36.7681 13.8967 36.7803 13.312 36.4427C12.0673 35.724 11.5501 32.9489 12.2557 29.227C12.3396 28.7872 12.4357 28.3497 12.5438 27.9152C14.1599 28.2732 15.9488 28.5307 17.8608 28.686C18.9523 30.2243 20.0955 31.6382 21.2476 32.8764C21.0027 33.1136 20.7521 33.3447 20.4959 33.5695C18.9651 34.9097 17.4311 35.8602 16.0792 36.3384H16.0791ZM10.3879 25.5705C8.46402 24.912 6.87522 24.0562 5.78616 23.1225C4.80763 22.2831 4.31348 21.4499 4.31348 20.7737C4.31348 19.3351 6.45545 17.5 10.0279 16.2527C10.4762 16.0968 10.9291 15.9541 11.3858 15.8248C11.8796 17.433 12.5273 19.1145 13.3088 20.8148C12.5171 22.5405 11.8602 24.2487 11.3619 25.8758C11.0348 25.7821 10.71 25.6803 10.3879 25.5705ZM12.2957 12.5661C11.5541 8.77111 12.0466 5.90846 13.2858 5.19013C14.6059 4.42494 17.5245 5.51607 20.6008 8.25142C20.7974 8.42628 20.9949 8.60936 21.1928 8.79874C20.0466 10.0313 18.9139 11.4346 17.8318 12.9639C15.9762 13.1362 14.1999 13.4128 12.5669 13.7833C12.4663 13.3799 12.3759 12.9739 12.2957 12.5659V12.5661ZM29.3147 16.7745C28.929 16.1073 28.529 15.4485 28.1149 14.7986C29.3739 14.9577 30.5799 15.1693 31.7125 15.4282C31.3725 16.5195 30.9487 17.6607 30.4497 18.8305C30.0851 18.1377 29.7067 17.4522 29.3147 16.7745ZM22.3744 10.0049C23.1517 10.8483 23.9303 11.7901 24.6962 12.8118C23.1427 12.7383 21.5865 12.7379 20.033 12.8107C20.7995 11.7985 21.5848 10.8581 22.3744 10.0049ZM15.3895 16.786C15.0025 17.4583 14.6311 18.1396 14.2758 18.8293C13.785 17.6635 13.3651 16.5173 13.0221 15.4104C14.1478 15.1581 15.3483 14.9519 16.5991 14.7954C16.1804 15.4494 15.7771 16.1131 15.3895 16.786ZM16.635 26.8725C15.3429 26.7281 14.1243 26.5324 12.9989 26.2871C13.3472 25.1606 13.7764 23.9898 14.2778 22.799C14.6346 23.4891 15.0075 24.1708 15.3963 24.8434C15.7931 25.5296 16.2061 26.2061 16.635 26.8725ZM22.421 31.6618C21.6221 30.7985 20.8254 29.8438 20.0471 28.8168C20.8025 28.8465 21.5727 28.8616 22.3555 28.8616C23.1598 28.8616 23.9548 28.8436 24.7372 28.8086C23.9689 29.8543 23.1931 30.8104 22.421 31.6618ZM30.4658 22.7383C30.9931 23.942 31.4376 25.1066 31.7907 26.214C30.6467 26.4754 29.4116 26.6859 28.1102 26.8423C28.5273 26.1802 28.9311 25.5099 29.3215 24.8317C29.7184 24.1425 30.0999 23.4445 30.4658 22.7383ZM27.8614 23.9885C27.2637 25.0283 26.6325 26.0482 25.9686 27.0469C24.798 27.1306 23.5883 27.1738 22.3555 27.1738C21.1278 27.1738 19.9335 27.1355 18.7833 27.0609C18.1022 26.0646 17.459 25.0428 16.855 23.9978C16.2539 22.9584 15.6924 21.8964 15.1718 20.8143C15.6911 19.7318 16.2509 18.6693 16.85 17.629V17.6294C17.4489 16.5889 18.087 15.5715 18.763 14.5795C19.9364 14.4906 21.1395 14.4441 22.3557 14.4441C23.5773 14.4441 24.7819 14.491 25.955 14.5805C26.6242 15.571 27.2582 16.5848 27.856 17.6201C28.4571 18.6581 29.0244 19.7154 29.5569 20.7903C29.0299 21.8762 28.4644 22.943 27.8616 23.9885H27.8614ZM31.3385 5.13995C32.6596 5.90304 33.1735 8.98007 32.3434 13.0153C32.289 13.2782 32.2298 13.5401 32.166 13.8008C30.5291 13.4226 28.7516 13.1411 26.8906 12.9662C25.8064 11.4203 24.6831 10.0145 23.5555 8.79786C23.8509 8.51259 24.1535 8.2347 24.4627 7.96448C27.3756 5.42585 30.098 4.42354 31.3385 5.13995Z" fill="white"/>
<path d="M22.3552 17.2455C24.3011 17.2455 25.8784 18.8252 25.8784 20.7737C25.8784 22.7224 24.3011 24.3021 22.3552 24.3021C20.4095 24.3021 18.832 22.7224 18.832 20.7737C18.832 18.8252 20.4095 17.2455 22.3552 17.2455Z" fill="#53C1DE"/>
</svg>
