<svg width="48" height="49" viewBox="0 0 48 49" fill="none" xmlns="http://www.w3.org/2000/svg">
<path d="M23.9998 47.8093C11.3244 47.8093 1 37.4894 1 24.8194C1 12.1495 11.3244 1.82959 23.9998 1.82959C36.6753 1.82959 46.9997 12.1495 46.9997 24.8194C46.9997 37.4894 36.6753 47.8093 23.9998 47.8093Z" stroke="white" stroke-width="2" stroke-miterlimit="10"/>
<path d="M27.5625 23.0811C25.9918 23.6044 24.6829 24.7819 24.1593 26.4828C24.0284 26.7445 23.7666 26.7445 23.6357 26.4828C23.1121 24.9128 21.9341 23.6044 20.2325 23.0811C19.9707 22.9502 19.9707 22.6886 20.2325 22.5577C21.8032 22.0344 23.1121 20.8568 23.6357 19.156C23.7666 18.8943 24.0284 18.8943 24.1593 19.156C24.6829 20.726 25.8609 22.0344 27.5625 22.5577C27.8243 22.5577 27.8243 22.9502 27.5625 23.0811Z" fill="white"/>
<path d="M27.568 32.006H20.3304C18.1476 29.8242 16.8839 28.561 14.7012 26.3792V19.2596C16.8839 17.0778 18.1476 15.8147 20.3304 13.6328H27.568C29.7507 15.8147 31.0144 17.0778 33.1972 19.2596V26.494C31.0144 28.561 29.8656 29.8242 27.568 32.006Z" stroke="white" stroke-width="2" stroke-miterlimit="10"/>
<path d="M23.8975 32.9466L23.8975 39.7323" stroke="white" stroke-width="2" stroke-miterlimit="10"/>
</svg>
