<svg width="32" height="41" viewBox="0 0 32 41" fill="none" xmlns="http://www.w3.org/2000/svg">
<path d="M31.3134 28.3447C31.3529 30.8739 30.5249 33.3642 28.9871 35.3875C28.9871 35.2319 28.9871 35.1152 28.9871 34.9595C28.9871 34.8817 28.9871 34.8039 28.9871 34.7261C28.9871 34.5704 28.9871 34.4148 28.9477 34.2591C28.9477 34.1035 28.9083 33.9868 28.9083 33.8311C28.8688 33.4809 28.8294 33.1307 28.7506 32.8194C28.7111 32.6638 28.6717 32.5082 28.6717 32.3525C28.6323 32.1969 28.5928 32.0801 28.5534 31.9245V31.8856C28.514 31.7689 28.4746 31.6521 28.4351 31.5354C28.3957 31.4576 28.3957 31.4187 28.3563 31.3408C28.3168 31.263 28.3168 31.1852 28.2774 31.0685C28.1591 30.7572 28.0014 30.4459 27.8437 30.1735C27.8043 30.0957 27.7648 30.0179 27.686 29.9401C27.6466 29.8622 27.6071 29.7844 27.5677 29.7455C27.5283 29.6677 27.4494 29.551 27.41 29.4731C27.3311 29.3564 27.2523 29.2397 27.1734 29.1229C27.1734 29.1229 27.1734 29.1229 27.134 29.084C27.0551 28.9673 26.9368 28.8506 26.858 28.7338C26.2271 28.0335 25.5174 27.4109 24.6105 26.8272C23.0334 25.8156 21.0225 25.0373 18.5385 24.3759L11.5202 22.7805C5.80299 21.6521 1.46582 18.656 1.46582 12.2747C1.46582 9.86225 2.2544 7.41089 3.75269 5.50427C3.75269 8.85058 5.05384 11.3798 7.69557 13.2086L7.735 13.2475C9.31215 14.337 11.3625 15.1541 13.8465 15.8156L20.9831 17.4498C27.41 18.8895 31.3134 22.5082 31.3134 28.3447Z" fill="white"/>
<path d="M27.3709 35.4264V37.0218C24.7292 39.2008 21.0229 40.3681 16.7646 40.3681C8.01137 40.3681 1.78162 36.0879 0.480469 28.6949H8.87881C9.98281 32.0801 12.8217 33.6755 16.7251 33.6755C20.7075 33.7144 23.5463 31.9245 24.3349 28.656C24.7292 28.9284 25.0446 29.2397 25.3601 29.5509C26.7401 30.9906 27.3709 32.8583 27.3709 35.4264Z" fill="#CECDCD"/>
<path d="M31.038 11.6132H22.9157C22.6003 10.7571 22.1665 9.94003 21.5357 9.27855C20.3134 7.91668 18.4208 6.98283 15.7002 6.98283C11.9545 7.02174 9.27333 8.81162 8.40589 11.7688C6.47388 10.368 5.48816 8.53925 5.33044 6.16571C5.33044 5.93224 5.29102 5.73769 5.29102 5.46532V4.45365C5.33044 4.18127 5.33044 3.9089 5.4093 3.67543C7.93275 1.57427 11.4419 0.368042 15.5819 0.368042C17.79 0.368042 19.8008 0.640415 21.5357 1.18516C26.8586 2.78049 30.0129 6.67154 31.038 11.6132Z" fill="#CECDCD"/>
<path opacity="0.56" d="M5.33008 5.50426C5.33008 5.73772 5.33008 5.97118 5.36951 6.20465C5.33008 5.89336 5.33008 5.54317 5.33008 5.23188C5.33008 4.99842 5.33008 4.76496 5.36951 4.53149V5.50426H5.33008Z" fill="#F37368"/>
</svg>
