<svg width="32" height="41" viewBox="0 0 32 41" fill="none" xmlns="http://www.w3.org/2000/svg">
<path d="M31.3134 28.3446C31.3529 30.8738 30.5249 33.3641 28.9871 35.3874C28.9871 35.2318 28.9871 35.115 28.9871 34.9594C28.9871 34.8816 28.9871 34.8038 28.9871 34.7259C28.9871 34.5703 28.9871 34.4147 28.9477 34.259C28.9477 34.1034 28.9083 33.9866 28.9083 33.831C28.8688 33.4808 28.8294 33.1306 28.7506 32.8193C28.7111 32.6637 28.6717 32.508 28.6717 32.3524C28.6323 32.1968 28.5928 32.08 28.5534 31.9244V31.8855C28.514 31.7687 28.4746 31.652 28.4351 31.5353C28.3957 31.4575 28.3957 31.4185 28.3563 31.3407C28.3168 31.2629 28.3168 31.1851 28.2774 31.0684C28.1591 30.7571 28.0014 30.4458 27.8437 30.1734C27.8043 30.0956 27.7648 30.0178 27.686 29.9399C27.6466 29.8621 27.6071 29.7843 27.5677 29.7454C27.5283 29.6676 27.4494 29.5508 27.41 29.473C27.3311 29.3563 27.2523 29.2396 27.1734 29.1228C27.1734 29.1228 27.1734 29.1228 27.134 29.0839C27.0551 28.9672 26.9368 28.8505 26.858 28.7337C26.2271 28.0333 25.5174 27.4108 24.6105 26.8271C23.0334 25.8154 21.0225 25.0372 18.5385 24.3757L11.5202 22.7804C5.80299 21.652 1.46582 18.6559 1.46582 12.2746C1.46582 9.86213 2.2544 7.41077 3.75269 5.50415C3.75269 8.85045 5.05384 11.3796 7.69557 13.2084L7.735 13.2473C9.31215 14.3368 11.3625 15.154 13.8465 15.8154L20.9831 17.4497C27.41 18.8894 31.3134 22.508 31.3134 28.3446Z" fill="#F04939"/>
<path d="M27.3699 35.4263V37.0216C24.7282 39.2006 21.0219 40.3679 16.7636 40.3679C8.0104 40.3679 1.78064 36.0878 0.479492 28.6948H8.87783C9.98184 32.08 12.8207 33.6753 16.7242 33.6753C20.7065 33.7142 23.5453 31.9244 24.3339 28.6559C24.7282 28.9283 25.0436 29.2395 25.3591 29.5508C26.7391 30.9905 27.3699 32.8582 27.3699 35.4263Z" fill="#F37368"/>
<path d="M31.0361 11.6131H22.9137C22.5983 10.757 22.1646 9.9399 21.5337 9.27843C20.3114 7.91656 18.4189 6.98271 15.6983 6.98271C11.9525 7.02162 9.27137 8.8115 8.40394 11.7687C6.47193 10.3679 5.48621 8.53913 5.32849 6.16559C5.32849 5.93212 5.28906 5.73757 5.28906 5.4652V4.45352C5.32849 4.18115 5.32849 3.90878 5.40735 3.67531C7.93079 1.57415 11.44 0.36792 15.58 0.36792C17.788 0.36792 19.7989 0.640293 21.5337 1.18504C26.8566 2.78037 30.0109 6.67142 31.0361 11.6131Z" fill="#F37368"/>
<path opacity="0.56" d="M5.33008 5.50413C5.33008 5.7376 5.33008 5.97106 5.36951 6.20452C5.33008 5.89324 5.33008 5.54305 5.33008 5.23176C5.33008 4.9983 5.33008 4.76484 5.36951 4.53137V5.50413H5.33008Z" fill="#F37368"/>
</svg>
