<svg width="160" height="144" viewBox="0 0 160 144" fill="none" xmlns="http://www.w3.org/2000/svg">
<path opacity="0.6" fill-rule="evenodd" clip-rule="evenodd" d="M119.024 140.327C109.86 145.617 95.1519 138.772 80.076 123.977L80.2296 123.82C80.2965 123.751 80.3635 123.682 80.4304 123.613C95.3462 138.256 109.845 145.043 118.771 139.89C127.631 134.774 129.048 119.021 123.96 98.9947C124.125 98.9546 124.289 98.9141 124.453 98.8735C129.592 119.114 128.119 135.076 119.024 140.327ZM124.327 98.3812C124.347 98.4598 124.368 98.5384 124.388 98.6169C124.41 98.7025 124.431 98.788 124.453 98.8735C145.622 93.6224 159.627 84.3827 159.816 73.5829C160.008 62.5749 145.797 52.6857 124.136 46.7315C129.648 25.913 128.302 9.41168 119.024 4.05492C109.86 -1.23545 95.1519 5.60955 80.076 20.4049C64.36 4.33219 48.8123 -3.31104 39.2736 2.19613C29.853 7.63511 28.6101 24.5633 34.4197 45.8342C13.97 51.1365 0.524979 60.2192 0.340304 70.7993C0.151887 81.5937 13.8125 91.3122 34.7673 97.2995C28.5648 119.155 29.6694 136.641 39.2736 142.186C48.8123 147.693 64.36 140.05 80.076 123.977C79.9554 123.859 79.8348 123.74 79.7142 123.621L79.8128 123.52C79.898 123.432 79.9833 123.345 80.0685 123.257C80.1892 123.376 80.3098 123.495 80.4304 123.613C86.1011 117.769 91.788 110.832 97.2169 103.025C106.904 102.338 115.938 100.951 123.96 98.9947C123.918 98.8309 123.876 98.6668 123.834 98.5024C123.999 98.4623 124.163 98.4219 124.327 98.3812ZM114.836 72.191C119.027 81.3267 122.213 90.1971 124.327 98.3812C145.281 93.1864 159.127 84.0957 159.311 73.574C159.498 62.8494 145.448 53.1152 124.005 47.2225C124.049 47.0586 124.093 46.8949 124.136 46.7315L123.906 46.6686L123.646 46.5979C129.102 25.9976 127.809 9.71064 118.771 4.49274C109.845 -0.660544 95.3463 6.12639 80.4305 20.7688C80.3124 20.647 80.1942 20.5257 80.076 20.4049C79.9554 20.5233 79.8347 20.6422 79.714 20.7616C64.1564 4.84777 48.8202 -2.73187 39.5263 2.63396C30.3475 7.93338 29.1571 24.6504 34.9119 45.7077C34.7474 45.7496 34.5833 45.7918 34.4197 45.8342C34.4642 45.9972 34.5091 46.1604 34.5545 46.3239C14.3152 51.5675 1.02555 60.5012 0.845642 70.808C0.662089 81.3238 14.1667 90.8873 34.907 96.811C34.86 96.9741 34.8134 97.1369 34.7673 97.2995C34.9299 97.346 35.0929 97.3922 35.2563 97.4382C29.1137 119.076 30.1685 136.346 39.5263 141.748C48.8202 147.114 64.1565 139.534 79.7142 123.621C73.7391 117.709 67.7128 110.554 61.9573 102.417C62.1805 102.44 62.4041 102.464 62.628 102.486C68.2912 110.451 74.2088 117.457 80.0685 123.257C85.6345 117.519 91.2232 110.72 96.5682 103.07C96.7847 103.055 97.001 103.04 97.2169 103.025C97.3405 102.847 97.4641 102.669 97.5874 102.49C107.094 101.794 115.957 100.422 123.834 98.5024C121.758 90.4728 118.646 81.7693 114.556 72.7979C114.65 72.5955 114.743 72.3932 114.836 72.191ZM114.556 71.5842C114.65 71.7866 114.743 71.9889 114.836 72.191C118.82 63.508 121.895 55.0647 124.005 47.2225C123.842 47.1777 123.679 47.1331 123.515 47.0888C123.559 46.9249 123.603 46.7612 123.646 46.5979C115.812 44.4769 107.02 42.8681 97.5947 41.9026C92.0523 33.8725 86.2329 26.7487 80.4305 20.7688C80.3099 20.8872 80.1892 21.0061 80.0685 21.1256C79.9504 21.0038 79.8322 20.8824 79.714 20.7616C73.8779 26.5362 67.9929 33.4963 62.3591 41.3995C52.3719 42.1385 43.0916 43.6225 34.9119 45.7077C34.9564 45.8707 35.0014 46.034 35.0467 46.1975C34.8822 46.2394 34.7181 46.2815 34.5545 46.3239C36.8096 54.4554 40.0878 63.2096 44.3266 72.191C40.3036 80.715 37.146 89.0344 34.907 96.811C35.0695 96.8574 35.2326 96.9036 35.396 96.9496C35.349 97.1127 35.3025 97.2756 35.2563 97.4382C43.2362 99.6841 52.2553 101.392 61.9573 102.417C61.8277 102.233 61.6982 102.05 61.5689 101.866C61.7918 101.89 62.0151 101.913 62.2387 101.937C62.3683 102.12 62.4981 102.304 62.628 102.486C68.0723 103.042 73.7277 103.383 79.5319 103.485C85.3743 103.587 91.0745 103.44 96.5682 103.07C96.6921 102.892 96.8159 102.715 96.9395 102.536C97.1558 102.521 97.3718 102.506 97.5874 102.49C100.572 98.1669 103.476 93.5811 106.254 88.7695C109.345 83.4143 112.117 78.0637 114.556 72.7979L114.429 72.5211L114.345 72.3362L114.278 72.1911C114.371 71.9887 114.464 71.7864 114.556 71.5842ZM114.556 71.5842C112.117 66.3184 109.345 60.9677 106.254 55.6125C103.595 51.0078 100.821 46.6098 97.9718 42.451C107.212 43.4198 115.83 45.0088 123.515 47.0888C121.445 54.7801 118.441 63.0613 114.556 71.5842ZM97.3105 42.3828C97.5313 42.4052 97.7517 42.4279 97.9718 42.451C97.8463 42.2677 97.7206 42.0849 97.5947 41.9026C97.3744 41.88 97.1536 41.8578 96.9326 41.836C91.4775 33.9723 85.7611 26.9936 80.0685 21.1256C74.3426 26.7929 68.5613 33.6119 63.0162 41.352C62.7968 41.3674 62.5778 41.3833 62.3591 41.3995C62.2319 41.5779 62.1048 41.7569 61.9778 41.9363C52.179 42.6845 43.0759 44.1523 35.0467 46.1975C37.2619 54.1797 40.4676 62.774 44.6076 71.5983C44.5135 71.796 44.4198 71.9935 44.3266 72.191C44.4198 72.3885 44.5135 72.5861 44.6077 72.7838C40.6804 81.1548 37.5938 89.3187 35.396 96.9496C43.222 99.1512 52.06 100.837 61.5689 101.866C58.2826 97.1841 55.0873 92.1829 52.0434 86.9107C49.312 82.1798 46.8305 77.4524 44.6077 72.7838C44.7003 72.5864 44.7934 72.3888 44.887 72.1911C47.1485 76.9688 49.6829 81.8113 52.4812 86.6581C55.5968 92.0546 58.8713 97.1649 62.2387 101.937C67.803 102.518 73.5929 102.875 79.5407 102.979C85.5136 103.083 91.3364 102.927 96.9395 102.536C99.9972 98.1279 102.973 93.4416 105.816 88.5169C108.978 83.0403 111.803 77.5694 114.278 72.1911C111.803 66.8129 108.978 61.3419 105.816 55.8653C103.088 51.1401 100.238 46.6342 97.3105 42.3828ZM62.6341 41.8873C62.7613 41.7084 62.8887 41.5299 63.0162 41.352C68.6857 40.9522 74.5789 40.7921 80.6243 40.8976C86.2171 40.9952 91.6718 41.3155 96.9326 41.836C97.0587 42.0178 97.1847 42.2001 97.3105 42.3828C91.9325 41.838 86.3473 41.5029 80.6155 41.4029C74.4352 41.295 68.4158 41.4661 62.6341 41.8873ZM62.6341 41.8873C59.1276 46.8182 55.7186 52.1167 52.4812 57.7241C49.6829 62.571 47.1485 67.4134 44.887 72.1911C44.7934 71.9934 44.7003 71.7958 44.6076 71.5983C46.8305 66.9297 49.312 62.2023 52.0434 57.4713C55.2134 51.9807 58.5476 46.784 61.9778 41.9363C62.1962 41.9196 62.415 41.9033 62.6341 41.8873ZM80 90.3032C70.6618 90.3032 63.0917 82.733 63.0917 73.3948C63.0917 64.0566 70.6618 56.4864 80 56.4864C89.3382 56.4864 96.9084 64.0566 96.9084 73.3948C96.9084 82.733 89.3382 90.3032 80 90.3032ZM96.403 73.3948C96.403 82.4539 89.0591 89.7977 80 89.7977C70.9409 89.7977 63.5971 82.4539 63.5971 73.3948C63.5971 64.3357 70.9409 56.9919 80 56.9919C89.0591 56.9919 96.403 64.3357 96.403 73.3948Z" fill="white"/>
</svg>
