<svg width="36" height="41" viewBox="0 0 36 41" fill="none" xmlns="http://www.w3.org/2000/svg">
<path d="M31.3274 8.14795C31.2996 7.94595 31.1232 7.83388 30.9767 7.82168C30.8314 7.80948 27.9838 7.76621 27.9838 7.76621C27.9838 7.76621 25.6022 5.45351 25.367 5.21825C25.1318 4.98299 24.6723 5.05401 24.4936 5.10727C24.4914 5.10839 24.0464 5.24599 23.2974 5.47793C23.172 5.07177 22.9877 4.57238 22.7247 4.07078C21.8769 2.45279 20.6351 1.59718 19.1347 1.59497C19.1325 1.59497 19.1314 1.59497 19.1292 1.59497C19.0248 1.59497 18.9216 1.60495 18.8174 1.61383C18.773 1.56056 18.7286 1.50841 18.682 1.45735C18.0283 0.758222 17.1905 0.417533 16.1862 0.447496C14.2486 0.502983 12.3188 1.90236 10.754 4.38817C9.65316 6.13711 8.81529 8.33441 8.57782 10.0356C6.35279 10.7247 4.79694 11.2063 4.76254 11.2175C3.63948 11.5703 3.60398 11.6047 3.45749 12.6635C3.34874 13.4635 0.410156 36.1865 0.410156 36.1865L25.0363 40.4457L35.7097 37.7923C35.7097 37.7923 31.3551 8.34995 31.3274 8.14795ZM22.0644 5.85967C21.4974 6.03501 20.8526 6.23477 20.1534 6.45117C20.139 5.47016 20.0225 4.10519 19.5653 2.92553C21.0357 3.20408 21.7592 4.86757 22.0644 5.85967ZM18.865 6.85067C17.5744 7.25015 16.1662 7.68628 14.7535 8.12355C15.1508 6.60209 15.9043 5.0873 16.8298 4.09409C17.1738 3.72455 17.6554 3.31283 18.2258 3.07757C18.7618 4.19618 18.8784 5.77977 18.865 6.85067ZM16.225 1.73701C16.68 1.72702 17.0628 1.8269 17.3902 2.04219C16.8664 2.31407 16.3604 2.7047 15.8854 3.21407C14.6547 4.53465 13.7114 6.58433 13.3352 8.56188C12.1622 8.92475 11.0148 9.28101 9.95829 9.60728C10.6253 6.49445 13.2342 1.82357 16.225 1.73701Z" fill="#95BF47"/>
<path d="M30.9775 7.82285C30.8322 7.81065 27.9846 7.76738 27.9846 7.76738C27.9846 7.76738 25.6031 5.45468 25.3678 5.21942C25.2802 5.13174 25.1614 5.08624 25.0371 5.06738L25.0382 40.4446L35.7106 37.7924C35.7106 37.7924 31.356 8.35112 31.3282 8.14912C31.3004 7.94712 31.1229 7.83505 30.9775 7.82285Z" fill="#5E8E3E"/>
<path d="M19.1212 13.3105L17.8816 17.948C17.8816 17.948 16.4989 17.3188 14.8598 17.422C12.4561 17.5741 12.4306 19.0899 12.455 19.4706C12.586 21.5447 18.0425 21.9975 18.3488 26.8559C18.5896 30.6778 16.3213 33.2923 13.0532 33.4987C9.13024 33.7462 6.9707 31.4324 6.9707 31.4324L7.80191 27.8968C7.80191 27.8968 9.97584 29.537 11.7159 29.4271C12.8523 29.355 13.2584 28.4306 13.2174 27.7769C13.0465 25.0714 8.60311 25.2312 8.32238 20.7856C8.08598 17.0447 10.543 13.2539 15.964 12.9121C18.0525 12.7778 19.1212 13.3105 19.1212 13.3105Z" fill="white"/>
</svg>
