<svg width="36" height="41" viewBox="0 0 36 41" fill="none" xmlns="http://www.w3.org/2000/svg">
<path fill-rule="evenodd" clip-rule="evenodd" d="M30.9777 7.74416C31.1241 7.75636 31.3006 7.86843 31.3283 8.07043C31.3561 8.27243 35.7107 37.7148 35.7107 37.7148L25.0373 40.3682L0.411133 36.109C0.411133 36.109 3.34971 13.386 3.45847 12.586C3.60495 11.5272 3.64046 11.4928 4.76351 11.14C4.78742 11.1322 5.5459 10.8973 6.75304 10.5235C7.28317 10.3594 7.89983 10.1684 8.5788 9.9581C8.81627 8.2569 9.65413 6.05959 10.755 4.31065C12.3197 1.82484 14.2495 0.425468 16.1871 0.369981C17.1915 0.340019 18.0293 0.680707 18.6829 1.37984C18.7295 1.43089 18.7739 1.48304 18.8183 1.53631C18.8295 1.53536 18.8406 1.5344 18.8517 1.53344C18.9446 1.52542 19.0369 1.51745 19.1301 1.51745H19.1357C20.6361 1.51966 21.8779 2.37527 22.7257 3.99326C22.9887 4.49486 23.1729 4.99425 23.2983 5.40041C23.4896 5.34118 23.6611 5.28809 23.8105 5.24186C24.2458 5.10709 24.493 5.03059 24.4946 5.02976C24.6733 4.97649 25.1327 4.90547 25.3679 5.14073C25.6032 5.376 27.9847 7.6887 27.9847 7.6887C27.9847 7.6887 30.8323 7.73196 30.9777 7.74416ZM20.842 6.16079C21.2794 6.02536 21.6895 5.8984 22.0654 5.78216C21.7602 4.79006 21.0367 3.12656 19.5663 2.84802C20.0235 4.02767 20.14 5.39264 20.1544 6.37365C20.3901 6.30071 20.6195 6.22966 20.842 6.16079ZM14.7545 8.04603L18.866 6.77315C18.8793 5.70226 18.7628 4.11866 18.2268 3.00005C17.6564 3.23532 17.1748 3.64703 16.8308 4.01657C15.9053 5.00978 15.1517 6.52457 14.7545 8.04603ZM17.3912 1.96467C17.0638 1.74938 16.6809 1.6495 16.2259 1.65949C13.2352 1.74605 10.6263 6.41693 9.95927 9.52977C10.5714 9.34073 11.2141 9.14161 11.8745 8.93698C12.354 8.78844 12.8428 8.63699 13.3362 8.48436C13.7124 6.50682 14.6557 4.45714 15.8864 3.13655C16.3613 2.62718 16.8674 2.23656 17.3912 1.96467ZM17.8828 17.8705L19.1223 13.233C19.1223 13.233 18.0536 12.7003 15.9651 12.8346C10.5441 13.1764 8.08709 16.9672 8.32349 20.7081C8.4812 23.2055 9.95253 24.2495 11.2421 25.1645C12.2482 25.8784 13.1436 26.5138 13.2185 27.6994C13.2596 28.3531 12.8534 29.2775 11.717 29.3496C9.97696 29.4595 7.80303 27.8193 7.80303 27.8193L6.97182 31.3549C6.97182 31.3549 9.13136 33.6687 13.0543 33.4212C16.3224 33.2148 18.5908 30.6003 18.35 26.7784C18.1647 23.8399 16.0954 22.513 14.4599 21.4643C13.3913 20.7791 12.5079 20.2127 12.4562 19.3931C12.4317 19.0124 12.4572 17.4966 14.861 17.3445C16.5 17.2413 17.8828 17.8705 17.8828 17.8705Z" fill="white"/>
<path d="M30.9785 7.74533C30.8332 7.73313 27.9856 7.68987 27.9856 7.68987C27.9856 7.68987 25.6041 5.37716 25.3688 5.1419C25.2812 5.05423 25.1624 5.00873 25.0381 4.98987L25.0392 40.3671L35.7116 37.7149C35.7116 37.7149 31.357 8.2736 31.3292 8.0716C31.3014 7.8696 31.1239 7.75753 30.9785 7.74533Z" fill="#BDBDBD"/>
</svg>
