<svg width="42" height="41" viewBox="0 0 42 41" fill="none" xmlns="http://www.w3.org/2000/svg">
<path fill-rule="evenodd" clip-rule="evenodd" d="M40.1909 0.637939H13.4824V14.0294H26.6243C27.0925 14.0294 27.4723 14.4092 27.4723 14.8774V27.8379H41.0389V1.4875C41.0391 1.37601 41.0173 1.26557 40.9748 1.1625C40.9323 1.05944 40.8699 0.965773 40.7911 0.886864C40.7123 0.807955 40.6188 0.745352 40.5158 0.702638C40.4128 0.659925 40.3024 0.637939 40.1909 0.637939Z" fill="#8E75FF"/>
<path opacity="0.405" fill-rule="evenodd" clip-rule="evenodd" d="M13.4799 0.637939V14.0294H0.950395C0.866211 14.0292 0.783969 14.0041 0.714111 13.9571C0.644253 13.9101 0.589928 13.8435 0.558034 13.7655C0.526139 13.6876 0.518114 13.602 0.534975 13.5195C0.551837 13.437 0.592826 13.3614 0.652738 13.3023L13.4799 0.637939ZM28.1937 40.5162C28.1341 40.5748 28.0584 40.6145 27.9763 40.6303C27.8942 40.6461 27.8092 40.6373 27.7321 40.605C27.655 40.5727 27.5891 40.5184 27.5427 40.4488C27.4963 40.3792 27.4714 40.2975 27.4713 40.2139V27.8379H41.0379L28.1937 40.5146V40.5162Z" fill="#8E75FF"/>
<path opacity="0.405" d="M13.4805 14.0294H27.0487C27.2812 14.0294 27.4719 14.2186 27.4719 14.4526V27.8379H14.33C14.1051 27.8379 13.8894 27.7486 13.7304 27.5895C13.5714 27.4305 13.482 27.2148 13.482 26.9899V14.0294H13.4805Z" fill="#8E75FF"/>
</svg>
