<svg width="40" height="40" viewBox="0 0 40 40" fill="none" xmlns="http://www.w3.org/2000/svg">
<path fill-rule="evenodd" clip-rule="evenodd" d="M37.7793 2.1095H13.3965V14.3349H25.394C25.8214 14.3349 26.1682 14.6816 26.1682 15.1091V26.941H38.5535V2.88508C38.5537 2.7833 38.5338 2.68248 38.495 2.58839C38.4562 2.4943 38.3992 2.40879 38.3273 2.33675C38.2554 2.26471 38.17 2.20756 38.0759 2.16856C37.9819 2.12957 37.8811 2.1095 37.7793 2.1095V2.1095Z" stroke="white" stroke-width="2.5" stroke-linejoin="round"/>
<path fill-rule="evenodd" clip-rule="evenodd" d="M13.3949 2.1095V14.3349H1.95644C1.87959 14.3348 1.80451 14.3118 1.74073 14.2689C1.67696 14.226 1.62736 14.1651 1.59825 14.094C1.56913 14.0229 1.5618 13.9447 1.57719 13.8694C1.59259 13.7941 1.63001 13.7251 1.6847 13.6711L13.3949 2.1095ZM26.8276 38.5154C26.7731 38.5689 26.7041 38.6051 26.6291 38.6195C26.5541 38.6339 26.4766 38.6259 26.4062 38.5964C26.3357 38.567 26.2756 38.5174 26.2332 38.4539C26.1909 38.3903 26.1682 38.3157 26.1681 38.2394V26.941H38.5534L26.8276 38.514V38.5154Z" stroke="white" stroke-width="2.5" stroke-linejoin="round"/>
<path d="M13.3945 14.3348H25.7813C25.9936 14.3348 26.1677 14.5075 26.1677 14.7212V26.941H14.1701C13.9648 26.941 13.7679 26.8594 13.6227 26.7142C13.4775 26.569 13.3959 26.3721 13.3959 26.1668V14.3348H13.3945Z" stroke="white" stroke-width="2.5" stroke-linejoin="round"/>
</svg>
