<svg width="83" height="29" viewBox="0 0 83 29" fill="none" xmlns="http://www.w3.org/2000/svg"><path fill-rule="evenodd" clip-rule="evenodd" d="M20.194 9.544c-.831.137-1.627.592-2.101 1.316-.73 1.135-.828 2.552-.797 3.873.05 1.195.232 2.5 1.069 3.407.742.799 1.895.96 2.92.945 1.122-.027 2.337-.486 2.898-1.544.747-1.304.384-2.864.5-4.291.084-.945-.154-1.962-.838-2.637-.92-.994-2.362-1.34-3.651-1.069zM27.159 0h.216c.36.144.523.499.49.879-.004 4.859.006 9.72-.006 14.578.003 1.612-.364 3.297-1.408 4.548-1.24 1.555-3.274 2.194-5.181 2.192-1.897.046-3.942-.463-5.268-1.938-1.487-1.636-1.891-3.979-1.85-6.14.022-2.05.445-4.265 1.899-5.775 1.264-1.364 3.172-1.848 4.956-1.837 1.305-.019 2.582.437 3.657 1.183 0-1.537 0-3.074-.002-4.61.002-.774.108-1.61.617-2.22.459-.566 1.191-.782 1.88-.86zm7.077 9.873c-1.091.468-1.687 1.632-1.856 2.78 2.154.007 4.308-.002 6.464.004.242.012.48-.052.696-.164-.066-1.07-.534-2.252-1.583-2.656-1.177-.456-2.554-.454-3.72.036zM31.18 8.355c1.123-1.176 2.733-1.719 4.307-1.823 1.64-.105 3.391.134 4.762 1.13 1.508 1.096 2.341 2.975 2.45 4.834.035.736.057 1.52-.284 2.193-.256.522-.853.768-1.4.76-2.887.005-5.775 0-8.661.002.105.974.424 1.978 1.167 2.64.998.929 2.448 1.095 3.737.943 1.05-.109 1.999-.635 2.84-1.26.381-.24.78-.634 1.267-.498.604.232.847.978.713 1.586-.197 1.029-1.014 1.787-1.856 2.3-1.932 1.173-4.338 1.295-6.462.655-1.442-.433-2.748-1.392-3.512-2.73-.909-1.57-1.123-3.45-1.081-5.244.069-1.974.585-4.072 2.013-5.488zM44.186 7.35c-.047-.42.312-.786.705-.83.943.006 1.941.325 2.55 1.105 1.04-.778 2.338-1.148 3.62-1.117 1.704.003 3.484.464 4.764 1.67 1.081-1.133 2.64-1.662 4.165-1.677 1.789-.04 3.723.26 5.127 1.488 1.24 1.062 1.766 2.76 1.79 4.373.005 2.995-.001 5.99.003 8.984.016.392-.167.9-.607.94-.536.006-1.067-.17-1.553-.392-.805-.368-1.312-1.256-1.293-2.149-.003-2.07 0-4.14 0-6.211-.022-.919-.001-1.924-.54-2.708-.442-.625-1.224-.858-1.94-.915-.918-.068-1.908-.078-2.729.404-.683.41-.966 1.257-.973 2.031-.006 3 .004 6.001-.005 9 .05.456-.259.985-.76.911-.837-.097-1.742-.39-2.255-1.12-.295-.403-.422-.91-.433-1.407-.006-2.213.01-4.425-.008-6.638-.035-.843-.043-1.797-.622-2.466-.524-.62-1.377-.737-2.132-.767-.921-.028-1.94.035-2.68.665-.583.526-.747 1.36-.744 2.122.005 2.652-.001 5.305.003 7.959-.006.384.029.774-.04 1.153-.078.38-.508.548-.849.471-.75-.13-1.556-.378-2.046-1.017-.404-.488-.53-1.15-.52-1.776.005-4.028 0-8.057.002-12.086zm23.556-.594c1.206-.505 3.018-.293 3.562 1.087 1.182 2.807 2.365 5.612 3.558 8.412 1.268-2.823 2.526-5.65 3.79-8.475.428-.999 1.617-1.361 2.604-1.254.56.067 1.272.203 1.436.855v.248c-2.285 5.197-4.668 10.352-6.989 15.535-.682 1.54-1.585 3.058-2.983 4.02-.822.582-1.817.85-2.805.925h-.367c-1.007-.036-2.06-.523-2.541-1.466-.248-.489-.4-1.176.02-1.614.395-.446 1.041-.323 1.567-.342.859.04 1.821-.02 2.48-.66.923-.904 1.343-2.18 1.856-3.344-1.835-4.234-3.689-8.459-5.534-12.686-.24-.426-.15-1.063.346-1.241zm-57.58 1.299c.463-.646 1.264-.93 2.019-.973.365-.015.651.33.613.695.014 2.854.001 5.71.005 8.563-.01 1.614-.431 3.374-1.69 4.448-1.354 1.176-3.215 1.419-4.93 1.4-1.698-.03-3.547-.393-4.768-1.7C.358 19.397.045 17.813 0 16.334V9.84c.055-.624.16-1.279.542-1.788.475-.646 1.29-.931 2.055-.947.345-.002.588.342.563.676.014 2.754-.003 5.509.005 8.262.018.787.125 1.655.676 2.256.59.643 1.502.784 2.323.81.879.012 1.845-.032 2.573-.597.686-.541.891-1.473.897-2.315.006-2.014-.001-4.029.001-6.042.01-.725.094-1.5.527-2.101z" fill="#80808E"/></svg>