<svg viewBox="0 0 60 60" fill="none" xmlns="https://www.w3.org/2000/svg">
  <path d="M29.0379 32.5972C30.7847 32.5972 32.2007 31.1812 32.2007 29.4344C32.2007 27.6876 30.7847 26.2715 29.0379 26.2715C27.2911 26.2715 25.875 27.6876 25.875 29.4344C25.875 31.1812 27.2911 32.5972 29.0379 32.5972Z" stroke="white" stroke-width="2" stroke-miterlimit="10" stroke-linejoin="round" />
  <path d="M29.5 56.666C44.4117 56.666 56.5 44.5777 56.5 29.666C56.5 14.7543 44.4117 2.66602 29.5 2.66602C14.5883 2.66602 2.5 14.7543 2.5 29.666C2.5 44.5777 14.5883 56.666 29.5 56.666Z" stroke="white" stroke-width="2" stroke-miterlimit="10" />
  <path d="M29.4228 43.4743C37.0491 43.4743 43.2314 37.292 43.2314 29.6658C43.2314 22.0395 37.0491 15.8572 29.4228 15.8572C21.7966 15.8572 15.6143 22.0395 15.6143 29.6658C15.6143 37.292 21.7966 43.4743 29.4228 43.4743Z" stroke="white" stroke-width="2" stroke-miterlimit="10" stroke-linejoin="round" />
  <path d="M25.7201 33.9858C30.2788 33.9858 33.9744 30.2903 33.9744 25.7315C33.9744 21.1728 30.2788 17.4773 25.7201 17.4773C21.1614 17.4773 17.4658 21.1728 17.4658 25.7315C17.4658 30.2903 21.1614 33.9858 25.7201 33.9858Z" stroke="white" stroke-width="2" stroke-miterlimit="10" stroke-linejoin="round" />
  <path d="M38.9893 39.6174L48.7864 49.4146" stroke="white" stroke-width="2" stroke-miterlimit="10" stroke-linejoin="round" />
  <path d="M11.6807 9.22339L21.5549 19.0977" stroke="white" stroke-width="2" stroke-miterlimit="10" stroke-linejoin="round" />
</svg>
