<svg width="67" height="40" viewBox="0 0 67 40" fill="none" xmlns="http://www.w3.org/2000/svg"><path fill-rule="evenodd" clip-rule="evenodd" d="M17.023 17.55c.907-2.253 3.027-3.985 5.442-4.433 2.425-.383 5.058.166 6.947 1.766-.003.7-.002 1.4-.002 2.099v1.4h-2.404v-.606c0-.605 0-1.21.002-1.815-1.893-1.115-4.56-1.076-6.221.444-2.055 1.838-2.254 5.323-.371 7.347.933 1.047 2.374 1.613 3.778 1.526a5.095 5.095 0 003.761-1.959c.508.39 1.019.773 1.53 1.157l.37.279c-1.074 1.404-2.662 2.452-4.435 2.736-1.777.325-3.676.048-5.242-.858a7.394 7.394 0 01-3.197-3.687 7.15 7.15 0 01.041-5.396zM0 13.32h4.437c.498 1.4.985 2.807 1.471 4.212.717 2.07 1.434 4.14 2.187 6.198.904-2.569 1.804-5.138 2.704-7.708l.947-2.703c1.385 0 2.771 0 4.158.002-.004.584-.004 1.168-.003 1.753v.584c-.779-.007-1.558-.008-2.337 0a2440.05 2440.05 0 01-4.49 11.815c-.569-.004-1.138-.003-1.707-.003h-.569c-1.414-3.947-2.86-7.885-4.307-11.821-.524.006-1.049.005-1.573.005H0V13.32zm40.151.196c-1.139.004-2.277.008-3.415-.01v.872c0 .436-.001.873-.003 1.308a54.41 54.41 0 011.7-.01l.636.002c-.004 2.214-.003 4.428-.002 6.642v2.847c-.406-.005-.812-.005-1.218-.004-.372 0-.744 0-1.116-.003.003.537.003 1.076.002 1.614v.645c2.898-.015 5.796-.011 8.696-.008l2.174.002c-.01-.642-.008-1.283-.005-1.925v-.298H45.417c-1.294.002-2.588.003-3.882-.005-.002-.82-.002-1.641-.001-2.462v-.005c0-.983 0-1.966-.002-2.95.048-2.113 1.835-4.203 4.07-4.147l-.007.42c-.008.561-.017 1.123-.069 1.681h2.424V15.9c0-.81 0-1.62-.002-2.431-.317.01-.637.006-.957.002-.775-.011-1.552-.023-2.303.188-1.454.338-2.674 1.371-3.39 2.646a38.288 38.288 0 01-.116-1.634c-.021-.386-.043-.772-.073-1.157l-.957.002zm10.52-.004c1.545.007 3.092.012 4.639-.004a3411.56 3411.56 0 00-.002 6.07v2.427c.036.965.186 2.007.842 2.768.75.837 2.036.998 3.072.655 1.635-.523 2.724-2.176 2.76-3.843.012-1.428.01-2.855.007-4.283l-.002-1.429c-.571.007-1.142.007-1.714.006h-.778c.006-.79.006-1.58 0-2.371 1.049.013 2.098.011 3.147.01.621-.002 1.243-.003 1.864 0 .004 1.23.001 2.46 0 3.692-.006 2.642-.01 5.284.043 7.924.42.036.842.033 1.264.029.215-.002.429-.004.643 0v2.246h-1.398c-.815 0-1.63-.001-2.445.006-.082-.57-.171-1.139-.26-1.708v-.001l-.092-.59c-.48.84-1.12 1.621-1.98 2.106-.857.505-1.887.652-2.871.558-1.31-.085-2.618-.663-3.432-1.699-.857-1.067-1.165-2.456-1.178-3.794-.007-1.125-.005-2.25-.004-3.374v-.002c0-1.012.002-2.025-.003-3.038-.532.007-1.064.006-1.595.005h-.532c.008-.7.007-1.402.005-2.103v-.263zM34.218 25.063c-.816.04-1.638.04-2.453-.003-.002.342-.002.684-.002 1.025 0 .47 0 .94-.004 1.41h.001c.82-.003 1.638-.006 2.458 0v-.81-1.622z" fill="#80808E"/></svg>