<svg width="57" height="57" viewBox="0 0 57 57" fill="none" xmlns="http://www.w3.org/2000/svg">
<path d="M28.8418 55.4155C43.7535 55.4155 55.8418 43.3272 55.8418 28.4155C55.8418 13.5038 43.7535 1.41553 28.8418 1.41553C13.9301 1.41553 1.8418 13.5038 1.8418 28.4155C1.8418 43.3272 13.9301 55.4155 28.8418 55.4155Z" stroke="white" stroke-width="2" stroke-miterlimit="10"/>
<path d="M28.7654 44.6156C37.7124 44.6156 44.9654 37.3626 44.9654 28.4156C44.9654 19.4686 37.7124 12.2156 28.7654 12.2156C19.8184 12.2156 12.5654 19.4686 12.5654 28.4156C12.5654 37.3626 19.8184 44.6156 28.7654 44.6156Z" stroke="white" stroke-width="2" stroke-miterlimit="10"/>
<path d="M30.3083 44.6149V32.8892H13.1826" stroke="white" stroke-width="2" stroke-miterlimit="10"/>
<path d="M2.38086 28.3377C18.9666 16.612 39.3323 40.372 56.3809 28.3377" stroke="white" stroke-width="2" stroke-miterlimit="10"/>
<path d="M38.6409 24.9441C39.3228 24.9441 39.8755 24.3913 39.8755 23.7095C39.8755 23.0276 39.3228 22.4749 38.6409 22.4749C37.959 22.4749 37.4062 23.0276 37.4062 23.7095C37.4062 24.3913 37.959 24.9441 38.6409 24.9441Z" fill="white"/>
<path d="M33.9378 24.9441C34.6196 24.9441 35.1724 24.3913 35.1724 23.7095C35.1724 23.0276 34.6196 22.4749 33.9378 22.4749C33.2559 22.4749 32.7031 23.0276 32.7031 23.7095C32.7031 24.3913 33.2559 24.9441 33.9378 24.9441Z" fill="white"/>
<path d="M29.3108 24.9441C29.9927 24.9441 30.5454 24.3913 30.5454 23.7095C30.5454 23.0276 29.9927 22.4749 29.3108 22.4749C28.629 22.4749 28.0762 23.0276 28.0762 23.7095C28.0762 24.3913 28.629 24.9441 29.3108 24.9441Z" fill="white"/>
</svg>
