<svg width="110" height="41" viewBox="0 0 110 41" fill="none" xmlns="http://www.w3.org/2000/svg"><path fill-rule="evenodd" clip-rule="evenodd" d="M54.223 22.149H49.46a.11.11 0 01-.11-.092.113.113 0 01.002-.051l2.382-8.372a.11.11 0 01.215 0l2.381 8.372a.114.114 0 01-.018.098.112.112 0 01-.088.045zm2.218 7.251h3.095l-4.719-16.594a3.167 3.167 0 00-1.12-1.632 3.067 3.067 0 00-1.856-.627c-.669 0-1.32.22-1.855.627-.536.407-.93.98-1.121 1.632l-4.721 16.596h3.104l1.364-4.805a.113.113 0 01.107-.082h6.238a.11.11 0 01.067.023c.02.014.034.035.04.059l1.377 4.803zm17.446-9.53h1.821a.11.11 0 01.079.033c.02.021.032.05.032.08v6.546c.006.832.335 1.627.915 2.212.58.585 1.365.911 2.18.908a6.262 6.262 0 001.821-.268v-2.15c-.342.03-.728.05-1.014.05a.902.902 0 01-.644-.272.937.937 0 01-.266-.657v-6.37c0-.031.011-.06.032-.081a.11.11 0 01.079-.033h1.82v-2.365h-1.82a.11.11 0 01-.079-.033.114.114 0 01-.032-.08v-3.929h-3.003v3.93c0 .03-.011.058-.032.08a.11.11 0 01-.079.032h-1.82l.01 2.367zM91.1 29.4h2.977v-8.216a3.993 3.993 0 00-1.154-2.783 3.843 3.843 0 00-2.745-1.14 6.43 6.43 0 00-3.459 1.092.111.111 0 01-.115 0 .113.113 0 01-.058-.098V10.79h-2.991V29.4h2.984v-8.896a.113.113 0 01.06-.1c.56-.291 1.668-.781 2.777-.781.454-.002.89.18 1.212.506a1.71 1.71 0 01.503 1.214v8.05l.009.007zM61.206 17.503v8.217a3.993 3.993 0 001.152 2.786 3.842 3.842 0 002.746 1.143 6.435 6.435 0 003.813-1.34.111.111 0 01.175.055l.314 1.038h2.33V17.503h-2.992v8.898a.115.115 0 01-.06.1c-.561.291-1.668.781-2.777.781a1.692 1.692 0 01-1.208-.502 1.757 1.757 0 01-.507-1.226v-8.05h-2.986zm41.593 9.78c-.91 0-1.639-.524-2.216-1.6-.694-1.3-1.076-3.284-1.076-5.585s.382-4.285 1.076-5.585c.574-1.076 1.298-1.6 2.216-1.6.918 0 1.639.524 2.216 1.6.693 1.3 1.076 3.284 1.076 5.585s-.383 4.285-1.076 5.585c-.574 1.074-1.298 1.6-2.216 1.6zm0-16.738c-1.919 0-3.543.912-4.694 2.636-1.15 1.724-1.75 4.105-1.75 6.917 0 2.812.605 5.197 1.75 6.917 1.145 1.72 2.775 2.636 4.694 2.636s3.543-.912 4.694-2.636c1.15-1.724 1.749-4.109 1.749-6.919 0-2.81-.604-5.197-1.749-6.917-1.145-1.72-2.775-2.635-4.694-2.635v.001z" fill="#80808E"/><path d="M34.41 12.42L30.445 0H17.632l3.96 12.42H34.41zM17.632 0H4.822L.862 12.42h12.81L17.634 0zM.863 12.42a18.306 18.306 0 000 11.109 17.961 17.961 0 006.405 8.987l3.959-12.42L.863 12.42zm33.54 0l-10.371 7.676 3.958 12.42a17.96 17.96 0 006.414-8.984c1.153-3.61 1.155-7.5.006-11.112h-.007zM7.268 32.516l10.366 7.676 10.364-7.676-10.366-7.676-10.364 7.676z" fill="#80808E"/></svg>