<svg width="90" height="40" viewBox="0 0 90 40" fill="none" xmlns="http://www.w3.org/2000/svg"><path fill-rule="evenodd" clip-rule="evenodd" d="M39.25 12v15.133h3.492v-7.078c.41-.499 1.09-1.067 2.111-1.067 1.11 0 1.815.43 1.815 1.768v6.377h3.493v-7.805c0-2.019-1.135-3.425-3.629-3.425-1.837 0-3.132.838-3.79 1.611V12H39.25zM8.6 20.351l3.153-8.35h5.423v15.132h-3.903V17.125l-3.81 10.008H7.738L3.902 17.125v10.008H0V12h5.423l3.178 8.351zm14.722-4.448c-1.679 0-3.562.497-4.97 1.7l1.294 2.427c.884-.748 1.972-1.179 3.063-1.179 1.408 0 2.224.659 2.224 1.611v1.088c-.657-.816-1.952-1.293-3.404-1.293-1.679 0-3.767.886-3.767 3.541 0 2.449 2.088 3.608 3.767 3.608 1.406 0 2.726-.547 3.404-1.363v1.09h3.493v-6.852c0-3.404-2.47-4.378-5.104-4.378zm-2.087 7.941c0 .863.841 1.268 1.746 1.268.773 0 1.59-.269 1.952-.794v-.974c-.363-.522-1.179-.773-1.952-.773-.905 0-1.746.409-1.746 1.273zm12.374-.724c-1.882-.31-4.525-.748-4.525-3.61 0-1.93 1.68-3.609 4.695-3.609 1.862 0 3.404.59 4.583 1.453l-1.336 2.473c-.659-.637-1.905-1.202-3.22-1.202-.82 0-1.364.318-1.364.748 0 .41.738.535 1.711.7 1.882.318 4.641.786 4.641 3.748 0 2.088-1.837 3.583-4.968 3.583-1.973 0-3.994-.658-5.15-1.7l1.45-2.495c.818.725 2.565 1.474 3.858 1.474 1.044 0 1.474-.295 1.474-.773 0-.484-.808-.617-1.849-.79zm22.61-7.217c-1.68 0-3.562.497-4.972 1.7l1.293 2.427c.886-.748 1.975-1.179 3.063-1.179 1.41 0 2.224.659 2.224 1.611v1.088c-.656-.816-1.95-1.293-3.402-1.293-1.678 0-3.768.886-3.768 3.541 0 2.449 2.09 3.608 3.768 3.608 1.404 0 2.724-.547 3.402-1.363v1.09h3.496v-6.852c0-3.404-2.473-4.378-5.104-4.378zm-2.09 7.941c0 .863.841 1.268 1.747 1.268.773 0 1.59-.269 1.951-.794v-.974c-.362-.522-1.178-.773-1.95-.773-.907 0-1.748.409-1.748 1.273zM66.02 12h-3.495v15.133h3.494v-1.269c.91 1.042 2.02 1.542 3.244 1.542 2.701 0 4.833-2.041 4.833-5.763 0-3.586-2.085-5.74-4.833-5.74-1.203 0-2.382.475-3.244 1.564V12zm0 11.344c.43.59 1.338.974 2.086.974 1.385 0 2.427-1.021 2.427-2.675 0-1.635-1.042-2.655-2.427-2.655-.748 0-1.657.408-2.087.999v3.357zm12.068 3.79h-3.494V12.001h3.494v15.133zm.497-5.492c0-3.178 2.385-5.741 5.811-5.741 3.244 0 5.602 2.384 5.602 6.105v.793h-7.803c.248.975 1.157 1.795 2.744 1.795.771 0 2.045-.343 2.678-.931l1.52 2.289c-1.09.979-2.905 1.452-4.583 1.452-3.38 0-5.969-2.201-5.969-5.762zm3.564-1.225c.136-.795.726-1.7 2.247-1.7 1.61 0 2.177.927 2.267 1.7H82.15z" fill="#80808E"/></svg>