<svg width="36" height="30" viewBox="0 0 36 30" fill="none" xmlns="http://www.w3.org/2000/svg">
<path fill-rule="evenodd" clip-rule="evenodd" d="M1.31607 14.8996L8.61957 0H15.5693L12.746 6.40981L12.5254 7.03452C12.279 7.87619 12.0759 8.97605 12.4613 9.54542C12.8026 10.0495 13.3314 10.415 13.7721 10.6535C17.5933 12.0892 20.3076 15.7324 20.3076 19.9999C20.3076 25.5228 15.7616 29.9999 10.1538 29.9999C4.54597 29.9999 -6.10352e-05 25.5228 -6.10352e-05 19.9999C-6.10352e-05 18.3789 0.391583 16.848 1.08677 15.4939C1.14397 15.2943 1.22002 15.0956 1.31607 14.8996ZM25.0461 19.8031C25.0461 23.3431 23.7263 26.5795 21.5448 29.0611C22.8509 29.6635 24.3087 30.0001 25.8463 30.0001C31.4541 30.0001 36.0001 25.523 36.0001 20.0002C36.0001 15.8405 33.4212 12.274 29.7521 10.7668C29.4004 10.5646 28.9262 10.2164 28.5542 9.66687C27.9516 8.77672 28.4218 6.83005 28.5324 6.41315L31.261 0.000244141H24.3113L19.9418 8.98571C23.0635 11.5816 25.0461 15.4643 25.0461 19.8031Z" fill="url(#paint0_linear)"/>
<defs>
<linearGradient id="paint0_linear" x1="0.899939" y1="3.37505" x2="37.9777" y2="9.26594" gradientUnits="userSpaceOnUse">
<stop stop-color="#E7A28F"/>
<stop offset="0.411458" stop-color="#F9D6AC"/>
<stop offset="1" stop-color="#FBFEFC"/>
</linearGradient>
</defs>
</svg>
