<svg width="130" height="40" viewBox="0 0 130 40" fill="none" xmlns="http://www.w3.org/2000/svg"><path fill-rule="evenodd" clip-rule="evenodd" d="M0 17.003V11h18.239v6.003h-6.08v12.01H6.081v-12.01H0zm68.325-.858v9.864h2.736v-4.504c0-.99.35-1.261.926-1.261.563 0 .913.271.913 1.291v4.474h2.752v-4.82c0-2.07-.836-3.226-2.585-3.226-.943 0-1.504.315-2.006.69v-3.588l-2.736 1.08zm-25.64 1.892V15.5h8.908v2.537h-2.979v7.972h-2.949v-7.972h-2.98zm12.251-.074c-2.099 0-3.647 1.395-3.647 4.112 0 2.416 1.32 4.1 3.723 4.1 1.246 0 2.265-.33 3.252-.903l-1.048-1.726c-.79.406-1.37.556-2.066.556-.745 0-1.262-.39-1.353-1.26h4.682c.014-.135.014-.302.014-.527 0-2.926-1.368-4.352-3.557-4.352zm-.077 1.995c-.621 0-.971.42-1.062 1.201h2.28c-.138-.794-.413-1.201-1.218-1.201zm8.708 6.217c-2.339 0-3.739-1.471-3.739-4.13 0-2.417 1.248-4.082 3.8-4.082 1.507 0 2.372.69 3.072 1.8l-1.884 1.41c-.381-.69-.64-1.019-1.232-1.019-.7 0-1.05.69-1.05 1.937s.382 1.89 1.125 1.89c.516 0 .882-.285 1.384-1.02l1.734 1.335c-.929 1.353-1.795 1.879-3.21 1.879zm18.635 0c-3.163 0-4.85-2.314-4.85-5.42 0-3.378 2.007-5.42 4.864-5.42 2.616 0 3.648 1.11 4.378 3.093l-2.675 1.035c-.38-.975-.745-1.59-1.717-1.59-1.231 0-1.764 1.215-1.764 2.881 0 1.606.516 2.882 1.794 2.882.927 0 1.321-.495 1.899-1.485l2.493 1.306c-.713 1.381-1.9 2.718-4.422 2.718zM91 18.697v-.57h-2.738v7.882H91v-4.294c0-.96.41-1.276 1.08-1.276.531 0 .926.285 1.276.66l.64-2.808c-.32-.194-.716-.328-1.293-.328-.7 0-1.231.284-1.703.734zm8.86 3.934v-4.504h2.753v7.882h-2.752v-.526c-.488.375-1.065.692-1.992.692-1.748 0-2.585-1.156-2.585-3.23v-4.818h2.754v4.475c0 1.018.347 1.291.91 1.291.563 0 .913-.273.913-1.262zm7.461-3.978v-.526h-2.735v7.882h2.735v-4.504c0-.99.35-1.26.929-1.26.563 0 .911.27.911 1.29v4.474h2.753v-4.82c0-2.07-.837-3.226-2.584-3.226-.944 0-1.507.315-2.009.69zm9.924 7.522c-2.339 0-3.739-1.471-3.739-4.13 0-2.417 1.248-4.082 3.8-4.082 1.506 0 2.372.69 3.07 1.8l-1.883 1.41c-.381-.69-.638-1.019-1.232-1.019-.699 0-1.049.69-1.049 1.937s.381 1.89 1.125 1.89c.518 0 .881-.285 1.383-1.02l1.734 1.335c-.927 1.353-1.795 1.879-3.209 1.879zm4.758-10.03v9.864h2.736v-4.504c0-.99.349-1.261.926-1.261.563 0 .913.271.913 1.291v4.474h2.751v-4.82c0-2.07-.837-3.226-2.584-3.226-.944 0-1.507.315-2.006.69v-3.588l-2.736 1.08zm-103.764.858v12.008h18.237v-6.003h-12.16v-6.005H18.24zm18.238 0h-12.16v-6.002h12.16v6.002z" fill="#80808E"/></svg>